<svg width="911" height="567" viewBox="0 0 911 567" fill="none" xmlns="http://www.w3.org/2000/svg">
<g filter="url(#filter0_d_1708_3116)">
<path d="M149.5 43H758.5C768.993 43 777.5 51.5066 777.5 62V466H130.5V62C130.5 51.5066 139.007 43 149.5 43Z" fill="#141414" stroke="#282828" stroke-width="6"/>
<rect x="153.5" y="75" width="601" height="363" rx="2" fill="white"/>
<rect x="133.5" y="461" width="641" height="8" rx="1" fill="#282828"/>
<path d="M61.1477 470.964C60.0238 470.655 60.2471 469 61.4127 469H849.338C850.472 469 850.73 470.59 849.654 470.949L801.654 486.949C801.552 486.983 801.445 487 801.338 487H119.635C119.545 487 119.456 486.988 119.37 486.964L61.1477 470.964Z" fill="url(#paint0_linear_1708_3116)"/>
<path d="M61.1863 470.954C60.0959 470.609 60.3439 469 61.4875 469H849.719C850.91 469 851.104 470.707 849.944 470.974L845.5 472H64.6541C64.552 472 64.4504 471.984 64.353 471.954L61.1863 470.954Z" fill="#606060"/>
<path d="M378.5 469H531.5V475C531.5 475 484.875 476.5 455 476.5C425.125 476.5 378.5 475 378.5 475V469Z" fill="#737373"/>
<rect x="153.5" y="75" width="601" height="363" rx="2" fill="#F8F7FA"/>
<rect x="320.52" y="98.5635" width="266.48" height="316.872" fill="white"/>
<line opacity="0.7" x1="422.585" y1="375.497" x2="484.08" y2="375.497" stroke="#2405F2" stroke-width="0.444744"/>
<line opacity="0.7" x1="409.347" y1="387.454" x2="497.746" y2="387.454" stroke="#2405F2" stroke-width="0.444744"/>
<path opacity="0.7" d="M426.352 370.04V370.567H424.195V372.239H425.946V372.766H424.195V375H423.548V370.04H426.352ZM428.834 375.064C428.469 375.064 428.137 374.981 427.838 374.815C427.544 374.649 427.312 374.414 427.141 374.111C426.975 373.802 426.892 373.446 426.892 373.043C426.892 372.645 426.977 372.294 427.148 371.99C427.323 371.682 427.561 371.447 427.859 371.285C428.158 371.119 428.493 371.036 428.863 371.036C429.233 371.036 429.567 371.119 429.866 371.285C430.165 371.447 430.4 371.679 430.571 371.983C430.746 372.286 430.834 372.64 430.834 373.043C430.834 373.446 430.744 373.802 430.564 374.111C430.388 374.414 430.148 374.649 429.845 374.815C429.541 374.981 429.204 375.064 428.834 375.064ZM428.834 374.495C429.067 374.495 429.285 374.44 429.489 374.331C429.693 374.222 429.857 374.058 429.98 373.84C430.108 373.622 430.172 373.356 430.172 373.043C430.172 372.73 430.11 372.464 429.987 372.246C429.864 372.028 429.703 371.867 429.503 371.762C429.304 371.653 429.088 371.599 428.856 371.599C428.619 371.599 428.4 371.653 428.201 371.762C428.007 371.867 427.85 372.028 427.731 372.246C427.613 372.464 427.554 372.73 427.554 373.043C427.554 373.361 427.61 373.629 427.724 373.847C427.843 374.065 427.999 374.229 428.194 374.338C428.388 374.443 428.602 374.495 428.834 374.495ZM432.333 371.734C432.447 371.511 432.608 371.338 432.817 371.214C433.03 371.091 433.289 371.029 433.592 371.029V371.698H433.422C432.696 371.698 432.333 372.092 432.333 372.879V375H431.685V371.1H432.333V371.734ZM435.948 371.036C436.285 371.036 436.579 371.11 436.83 371.257C437.087 371.404 437.276 371.589 437.4 371.812V371.1H438.054V375.085C438.054 375.441 437.979 375.757 437.827 376.032C437.675 376.312 437.457 376.53 437.172 376.686C436.892 376.843 436.565 376.921 436.19 376.921C435.678 376.921 435.251 376.8 434.909 376.558C434.568 376.316 434.366 375.987 434.304 375.569H434.945C435.016 375.806 435.163 375.996 435.386 376.139C435.609 376.286 435.877 376.359 436.19 376.359C436.546 376.359 436.835 376.248 437.058 376.025C437.286 375.802 437.4 375.489 437.4 375.085V374.267C437.272 374.495 437.082 374.685 436.83 374.836C436.579 374.988 436.285 375.064 435.948 375.064C435.602 375.064 435.286 374.979 435.002 374.808C434.722 374.637 434.501 374.398 434.34 374.089C434.179 373.781 434.098 373.43 434.098 373.036C434.098 372.638 434.179 372.289 434.34 371.99C434.501 371.686 434.722 371.452 435.002 371.285C435.286 371.119 435.602 371.036 435.948 371.036ZM437.4 373.043C437.4 372.749 437.34 372.493 437.222 372.275C437.103 372.056 436.942 371.89 436.738 371.776C436.539 371.658 436.318 371.599 436.076 371.599C435.834 371.599 435.614 371.656 435.414 371.769C435.215 371.883 435.056 372.049 434.938 372.267C434.819 372.486 434.76 372.742 434.76 373.036C434.76 373.335 434.819 373.596 434.938 373.819C435.056 374.037 435.215 374.205 435.414 374.324C435.614 374.438 435.834 374.495 436.076 374.495C436.318 374.495 436.539 374.438 436.738 374.324C436.942 374.205 437.103 374.037 437.222 373.819C437.34 373.596 437.4 373.337 437.4 373.043ZM440.849 375.064C440.484 375.064 440.152 374.981 439.853 374.815C439.559 374.649 439.327 374.414 439.156 374.111C438.99 373.802 438.907 373.446 438.907 373.043C438.907 372.645 438.992 372.294 439.163 371.99C439.338 371.682 439.576 371.447 439.875 371.285C440.173 371.119 440.508 371.036 440.878 371.036C441.248 371.036 441.582 371.119 441.881 371.285C442.18 371.447 442.415 371.679 442.586 371.983C442.761 372.286 442.849 372.64 442.849 373.043C442.849 373.446 442.759 373.802 442.579 374.111C442.403 374.414 442.163 374.649 441.86 374.815C441.556 374.981 441.219 375.064 440.849 375.064ZM440.849 374.495C441.082 374.495 441.3 374.44 441.504 374.331C441.708 374.222 441.872 374.058 441.995 373.84C442.123 373.622 442.187 373.356 442.187 373.043C442.187 372.73 442.126 372.464 442.002 372.246C441.879 372.028 441.718 371.867 441.518 371.762C441.319 371.653 441.103 371.599 440.871 371.599C440.634 371.599 440.415 371.653 440.216 371.762C440.022 371.867 439.865 372.028 439.746 372.246C439.628 372.464 439.569 372.73 439.569 373.043C439.569 373.361 439.625 373.629 439.739 373.847C439.858 374.065 440.014 374.229 440.209 374.338C440.403 374.443 440.617 374.495 440.849 374.495ZM444.49 371.634V373.933C444.49 374.122 444.531 374.258 444.611 374.338C444.692 374.414 444.832 374.452 445.031 374.452H445.508V375H444.924C444.564 375 444.293 374.917 444.113 374.751C443.933 374.585 443.843 374.312 443.843 373.933V371.634H443.337V371.1H443.843V370.118H444.49V371.1H445.508V371.634H444.49ZM451.506 371.492C451.506 371.905 451.363 372.249 451.079 372.524C450.799 372.794 450.369 372.929 449.791 372.929H448.837V375H448.19V370.04H449.791C450.35 370.04 450.775 370.175 451.064 370.446C451.358 370.716 451.506 371.065 451.506 371.492ZM449.791 372.396C450.151 372.396 450.417 372.317 450.588 372.161C450.758 372.004 450.844 371.781 450.844 371.492C450.844 370.88 450.493 370.574 449.791 370.574H448.837V372.396H449.791ZM452.068 373.036C452.068 372.638 452.149 372.289 452.31 371.99C452.472 371.686 452.692 371.452 452.972 371.285C453.257 371.119 453.572 371.036 453.919 371.036C454.26 371.036 454.557 371.11 454.808 371.257C455.059 371.404 455.247 371.589 455.37 371.812V371.1H456.025V375H455.37V374.274C455.242 374.502 455.05 374.692 454.794 374.843C454.542 374.991 454.248 375.064 453.911 375.064C453.565 375.064 453.252 374.979 452.972 374.808C452.692 374.637 452.472 374.398 452.31 374.089C452.149 373.781 452.068 373.43 452.068 373.036ZM455.37 373.043C455.37 372.749 455.311 372.493 455.192 372.275C455.074 372.056 454.912 371.89 454.708 371.776C454.509 371.658 454.289 371.599 454.047 371.599C453.805 371.599 453.584 371.656 453.385 371.769C453.186 371.883 453.027 372.049 452.908 372.267C452.789 372.486 452.73 372.742 452.73 373.036C452.73 373.335 452.789 373.596 452.908 373.819C453.027 374.037 453.186 374.205 453.385 374.324C453.584 374.438 453.805 374.495 454.047 374.495C454.289 374.495 454.509 374.438 454.708 374.324C454.912 374.205 455.074 374.037 455.192 373.819C455.311 373.596 455.37 373.337 455.37 373.043ZM458.5 375.064C458.201 375.064 457.933 375.014 457.696 374.915C457.458 374.81 457.271 374.668 457.133 374.488C456.996 374.303 456.92 374.092 456.906 373.854H457.575C457.594 374.049 457.684 374.208 457.845 374.331C458.011 374.454 458.227 374.516 458.493 374.516C458.739 374.516 458.934 374.462 459.076 374.352C459.218 374.243 459.289 374.106 459.289 373.94C459.289 373.769 459.214 373.643 459.062 373.563C458.91 373.477 458.675 373.394 458.357 373.314C458.068 373.238 457.831 373.162 457.646 373.086C457.465 373.005 457.309 372.889 457.176 372.737C457.048 372.581 456.984 372.377 456.984 372.125C456.984 371.926 457.043 371.743 457.162 371.577C457.28 371.411 457.449 371.281 457.667 371.186C457.885 371.086 458.134 371.036 458.414 371.036C458.846 371.036 459.195 371.146 459.46 371.364C459.726 371.582 459.868 371.881 459.887 372.26H459.24C459.225 372.056 459.142 371.893 458.991 371.769C458.844 371.646 458.644 371.584 458.393 371.584C458.16 371.584 457.975 371.634 457.838 371.734C457.7 371.833 457.631 371.964 457.631 372.125C457.631 372.253 457.672 372.36 457.752 372.445C457.838 372.526 457.942 372.592 458.066 372.645C458.194 372.692 458.369 372.747 458.592 372.808C458.872 372.884 459.1 372.96 459.275 373.036C459.451 373.107 459.6 373.216 459.724 373.363C459.852 373.51 459.918 373.703 459.923 373.94C459.923 374.153 459.864 374.345 459.745 374.516C459.626 374.687 459.458 374.822 459.24 374.922C459.026 375.017 458.78 375.064 458.5 375.064ZM462.217 375.064C461.919 375.064 461.651 375.014 461.413 374.915C461.176 374.81 460.989 374.668 460.851 374.488C460.714 374.303 460.638 374.092 460.623 373.854H461.292C461.311 374.049 461.401 374.208 461.563 374.331C461.729 374.454 461.945 374.516 462.21 374.516C462.457 374.516 462.651 374.462 462.794 374.352C462.936 374.243 463.007 374.106 463.007 373.94C463.007 373.769 462.931 373.643 462.78 373.563C462.628 373.477 462.393 373.394 462.075 373.314C461.786 373.238 461.549 373.162 461.363 373.086C461.183 373.005 461.027 372.889 460.894 372.737C460.766 372.581 460.702 372.377 460.702 372.125C460.702 371.926 460.761 371.743 460.88 371.577C460.998 371.411 461.167 371.281 461.385 371.186C461.603 371.086 461.852 371.036 462.132 371.036C462.564 371.036 462.912 371.146 463.178 371.364C463.444 371.582 463.586 371.881 463.605 372.26H462.957C462.943 372.056 462.86 371.893 462.708 371.769C462.561 371.646 462.362 371.584 462.111 371.584C461.878 371.584 461.693 371.634 461.556 371.734C461.418 371.833 461.349 371.964 461.349 372.125C461.349 372.253 461.39 372.36 461.47 372.445C461.556 372.526 461.66 372.592 461.783 372.645C461.911 372.692 462.087 372.747 462.31 372.808C462.59 372.884 462.818 372.96 462.993 373.036C463.169 373.107 463.318 373.216 463.441 373.363C463.569 373.51 463.636 373.703 463.641 373.94C463.641 374.153 463.581 374.345 463.463 374.516C463.344 374.687 463.176 374.822 462.957 374.922C462.744 375.017 462.497 375.064 462.217 375.064ZM469.749 371.1L468.532 375H467.864L466.924 371.905L465.985 375H465.316L464.092 371.1H464.754L465.651 374.374L466.618 371.1H467.28L468.227 374.381L469.109 371.1H469.749ZM472.093 375.064C471.727 375.064 471.395 374.981 471.096 374.815C470.802 374.649 470.57 374.414 470.399 374.111C470.233 373.802 470.15 373.446 470.15 373.043C470.15 372.645 470.235 372.294 470.406 371.99C470.582 371.682 470.819 371.447 471.118 371.285C471.417 371.119 471.751 371.036 472.121 371.036C472.491 371.036 472.826 371.119 473.124 371.285C473.423 371.447 473.658 371.679 473.829 371.983C474.004 372.286 474.092 372.64 474.092 373.043C474.092 373.446 474.002 373.802 473.822 374.111C473.646 374.414 473.407 374.649 473.103 374.815C472.8 374.981 472.463 375.064 472.093 375.064ZM472.093 374.495C472.325 374.495 472.543 374.44 472.747 374.331C472.951 374.222 473.115 374.058 473.238 373.84C473.366 373.622 473.43 373.356 473.43 373.043C473.43 372.73 473.369 372.464 473.245 372.246C473.122 372.028 472.961 371.867 472.762 371.762C472.562 371.653 472.346 371.599 472.114 371.599C471.877 371.599 471.659 371.653 471.459 371.762C471.265 371.867 471.108 372.028 470.99 372.246C470.871 372.464 470.812 372.73 470.812 373.043C470.812 373.361 470.869 373.629 470.983 373.847C471.101 374.065 471.258 374.229 471.452 374.338C471.647 374.443 471.86 374.495 472.093 374.495ZM475.591 371.734C475.705 371.511 475.866 371.338 476.075 371.214C476.289 371.091 476.547 371.029 476.851 371.029V371.698H476.68C475.954 371.698 475.591 372.092 475.591 372.879V375H474.944V371.1H475.591V371.734ZM477.356 373.036C477.356 372.638 477.437 372.289 477.598 371.99C477.76 371.686 477.98 371.452 478.26 371.285C478.545 371.119 478.862 371.036 479.214 371.036C479.517 371.036 479.799 371.108 480.06 371.25C480.321 371.387 480.52 371.57 480.658 371.798V369.734H481.313V375H480.658V374.267C480.53 374.5 480.34 374.692 480.089 374.843C479.837 374.991 479.543 375.064 479.206 375.064C478.86 375.064 478.545 374.979 478.26 374.808C477.98 374.637 477.76 374.398 477.598 374.089C477.437 373.781 477.356 373.43 477.356 373.036ZM480.658 373.043C480.658 372.749 480.599 372.493 480.48 372.275C480.362 372.056 480.2 371.89 479.996 371.776C479.797 371.658 479.576 371.599 479.334 371.599C479.093 371.599 478.872 371.656 478.673 371.769C478.473 371.883 478.315 372.049 478.196 372.267C478.077 372.486 478.018 372.742 478.018 373.036C478.018 373.335 478.077 373.596 478.196 373.819C478.315 374.037 478.473 374.205 478.673 374.324C478.872 374.438 479.093 374.495 479.334 374.495C479.576 374.495 479.797 374.438 479.996 374.324C480.2 374.205 480.362 374.037 480.48 373.819C480.599 373.596 480.658 373.337 480.658 373.043ZM483.674 369.976C484.143 369.976 484.523 370.109 484.812 370.375C485.102 370.64 485.246 370.996 485.246 371.442C485.246 371.94 485.092 372.31 484.784 372.552C484.475 372.789 484.058 372.908 483.531 372.908L483.51 373.584H482.948L482.919 372.46H483.126C483.595 372.46 483.963 372.388 484.229 372.246C484.494 372.104 484.627 371.836 484.627 371.442C484.627 371.157 484.542 370.932 484.371 370.766C484.2 370.6 483.97 370.517 483.681 370.517C483.387 370.517 483.154 370.598 482.983 370.759C482.817 370.915 482.734 371.131 482.734 371.406H482.122C482.122 371.122 482.186 370.873 482.314 370.659C482.443 370.441 482.623 370.273 482.855 370.154C483.093 370.035 483.365 369.976 483.674 369.976ZM483.225 375.043C483.102 375.043 482.998 375 482.912 374.915C482.827 374.829 482.784 374.725 482.784 374.602C482.784 374.478 482.827 374.374 482.912 374.288C482.998 374.203 483.102 374.16 483.225 374.16C483.344 374.16 483.444 374.203 483.524 374.288C483.61 374.374 483.652 374.478 483.652 374.602C483.652 374.725 483.61 374.829 483.524 374.915C483.444 375 483.344 375.043 483.225 375.043Z" fill="#2405F2"/>
<path opacity="0.7" d="M408.092 382.04C408.633 382.04 409.1 382.142 409.494 382.346C409.892 382.545 410.196 382.832 410.405 383.207C410.618 383.582 410.725 384.023 410.725 384.531C410.725 385.038 410.618 385.48 410.405 385.854C410.196 386.224 409.892 386.509 409.494 386.708C409.1 386.903 408.633 387 408.092 387H406.548V382.04H408.092ZM408.092 386.466C408.733 386.466 409.221 386.298 409.558 385.961C409.895 385.62 410.063 385.143 410.063 384.531C410.063 383.914 409.892 383.433 409.551 383.086C409.214 382.74 408.728 382.567 408.092 382.567H407.195V386.466H408.092ZM413.28 387.064C412.915 387.064 412.582 386.981 412.284 386.815C411.989 386.649 411.757 386.414 411.586 386.111C411.42 385.802 411.337 385.446 411.337 385.043C411.337 384.645 411.423 384.294 411.593 383.99C411.769 383.682 412.006 383.447 412.305 383.285C412.604 383.119 412.938 383.036 413.308 383.036C413.678 383.036 414.013 383.119 414.312 383.285C414.61 383.447 414.845 383.679 415.016 383.983C415.192 384.286 415.279 384.64 415.279 385.043C415.279 385.446 415.189 385.802 415.009 386.111C414.833 386.414 414.594 386.649 414.29 386.815C413.987 386.981 413.65 387.064 413.28 387.064ZM413.28 386.495C413.512 386.495 413.73 386.44 413.934 386.331C414.138 386.222 414.302 386.058 414.425 385.84C414.554 385.622 414.618 385.356 414.618 385.043C414.618 384.73 414.556 384.464 414.433 384.246C414.309 384.028 414.148 383.867 413.949 383.762C413.749 383.653 413.534 383.599 413.301 383.599C413.064 383.599 412.846 383.653 412.646 383.762C412.452 383.867 412.295 384.028 412.177 384.246C412.058 384.464 411.999 384.73 411.999 385.043C411.999 385.361 412.056 385.629 412.17 385.847C412.288 386.065 412.445 386.229 412.639 386.338C412.834 386.443 413.047 386.495 413.28 386.495ZM418.031 383.029C418.505 383.029 418.889 383.174 419.183 383.463C419.478 383.748 419.625 384.161 419.625 384.702V387H418.984V384.794C418.984 384.405 418.887 384.109 418.692 383.905C418.498 383.696 418.232 383.591 417.896 383.591C417.554 383.591 417.281 383.698 417.077 383.912C416.878 384.125 416.778 384.436 416.778 384.844V387H416.131V383.1H416.778V383.656C416.906 383.456 417.08 383.302 417.298 383.193C417.521 383.084 417.765 383.029 418.031 383.029ZM420.782 382.04H421.501L420.818 383.656H420.362L420.782 382.04ZM423.029 383.634V385.933C423.029 386.122 423.069 386.258 423.15 386.338C423.231 386.414 423.37 386.452 423.57 386.452H424.046V387H423.463C423.102 387 422.832 386.917 422.652 386.751C422.471 386.585 422.381 386.312 422.381 385.933V383.634H421.876V383.1H422.381V382.118H423.029V383.1H424.046V383.634H423.029ZM428.664 383.029C428.958 383.029 429.223 383.093 429.461 383.221C429.698 383.345 429.883 383.532 430.016 383.784C430.153 384.035 430.222 384.341 430.222 384.702V387H429.582V384.794C429.582 384.405 429.484 384.109 429.29 383.905C429.095 383.696 428.83 383.591 428.493 383.591C428.151 383.591 427.879 383.698 427.675 383.912C427.475 384.125 427.376 384.436 427.376 384.844V387H426.728V381.734H427.376V383.656C427.504 383.456 427.679 383.302 427.902 383.193C428.13 383.084 428.384 383.029 428.664 383.029ZM431.038 385.036C431.038 384.638 431.119 384.289 431.28 383.99C431.441 383.686 431.662 383.452 431.942 383.285C432.226 383.119 432.542 383.036 432.888 383.036C433.23 383.036 433.526 383.11 433.778 383.257C434.029 383.404 434.216 383.589 434.34 383.812V383.1H434.994V387H434.34V386.274C434.212 386.502 434.019 386.692 433.763 386.843C433.512 386.991 433.218 387.064 432.881 387.064C432.535 387.064 432.222 386.979 431.942 386.808C431.662 386.637 431.441 386.398 431.28 386.089C431.119 385.781 431.038 385.43 431.038 385.036ZM434.34 385.043C434.34 384.749 434.28 384.493 434.162 384.275C434.043 384.056 433.882 383.89 433.678 383.776C433.479 383.658 433.258 383.599 433.016 383.599C432.774 383.599 432.554 383.656 432.354 383.769C432.155 383.883 431.996 384.049 431.878 384.267C431.759 384.486 431.7 384.742 431.7 385.036C431.7 385.335 431.759 385.596 431.878 385.819C431.996 386.037 432.155 386.205 432.354 386.324C432.554 386.438 432.774 386.495 433.016 386.495C433.258 386.495 433.479 386.438 433.678 386.324C433.882 386.205 434.043 386.037 434.162 385.819C434.28 385.596 434.34 385.337 434.34 385.043ZM437.54 386.402L438.75 383.1H439.44L437.91 387H437.156L435.626 383.1H436.323L437.54 386.402ZM443.635 384.901C443.635 385.024 443.628 385.155 443.614 385.292H440.497C440.521 385.676 440.651 385.978 440.889 386.196C441.131 386.409 441.422 386.516 441.764 386.516C442.044 386.516 442.276 386.452 442.461 386.324C442.651 386.191 442.784 386.016 442.86 385.797H443.557C443.453 386.172 443.244 386.478 442.931 386.715C442.618 386.948 442.229 387.064 441.764 387.064C441.394 387.064 441.062 386.981 440.768 386.815C440.478 386.649 440.251 386.414 440.085 386.111C439.919 385.802 439.836 385.446 439.836 385.043C439.836 384.64 439.916 384.286 440.077 383.983C440.239 383.679 440.464 383.447 440.753 383.285C441.048 383.119 441.384 383.036 441.764 383.036C442.134 383.036 442.461 383.117 442.746 383.278C443.031 383.44 443.249 383.663 443.401 383.947C443.557 384.227 443.635 384.545 443.635 384.901ZM442.967 384.766C442.967 384.519 442.912 384.308 442.803 384.132C442.694 383.952 442.544 383.817 442.355 383.727C442.17 383.632 441.963 383.584 441.735 383.584C441.408 383.584 441.128 383.689 440.896 383.897C440.668 384.106 440.538 384.396 440.504 384.766H442.967ZM446.145 385.036C446.145 384.638 446.226 384.289 446.387 383.99C446.549 383.686 446.769 383.452 447.049 383.285C447.334 383.119 447.649 383.036 447.995 383.036C448.337 383.036 448.634 383.11 448.885 383.257C449.136 383.404 449.324 383.589 449.447 383.812V383.1H450.102V387H449.447V386.274C449.319 386.502 449.127 386.692 448.871 386.843C448.619 386.991 448.325 387.064 447.988 387.064C447.642 387.064 447.329 386.979 447.049 386.808C446.769 386.637 446.549 386.398 446.387 386.089C446.226 385.781 446.145 385.43 446.145 385.036ZM449.447 385.043C449.447 384.749 449.388 384.493 449.269 384.275C449.151 384.056 448.989 383.89 448.785 383.776C448.586 383.658 448.365 383.599 448.124 383.599C447.882 383.599 447.661 383.656 447.462 383.769C447.263 383.883 447.104 384.049 446.985 384.267C446.866 384.486 446.807 384.742 446.807 385.036C446.807 385.335 446.866 385.596 446.985 385.819C447.104 386.037 447.263 386.205 447.462 386.324C447.661 386.438 447.882 386.495 448.124 386.495C448.365 386.495 448.586 386.438 448.785 386.324C448.989 386.205 449.151 386.037 449.269 385.819C449.388 385.596 449.447 385.337 449.447 385.043ZM453.096 383.029C453.57 383.029 453.955 383.174 454.249 383.463C454.543 383.748 454.69 384.161 454.69 384.702V387H454.05V384.794C454.05 384.405 453.952 384.109 453.758 383.905C453.563 383.696 453.298 383.591 452.961 383.591C452.619 383.591 452.346 383.698 452.142 383.912C451.943 384.125 451.844 384.436 451.844 384.844V387H451.196V383.1H451.844V383.656C451.972 383.456 452.145 383.302 452.363 383.193C452.586 383.084 452.83 383.029 453.096 383.029ZM457.403 385.036C457.403 384.638 457.484 384.289 457.645 383.99C457.806 383.686 458.027 383.452 458.307 383.285C458.591 383.119 458.907 383.036 459.253 383.036C459.595 383.036 459.891 383.11 460.143 383.257C460.394 383.404 460.581 383.589 460.705 383.812V383.1H461.359V387H460.705V386.274C460.577 386.502 460.384 386.692 460.128 386.843C459.877 386.991 459.583 387.064 459.246 387.064C458.9 387.064 458.587 386.979 458.307 386.808C458.027 386.637 457.806 386.398 457.645 386.089C457.484 385.781 457.403 385.43 457.403 385.036ZM460.705 385.043C460.705 384.749 460.645 384.493 460.527 384.275C460.408 384.056 460.247 383.89 460.043 383.776C459.844 383.658 459.623 383.599 459.381 383.599C459.139 383.599 458.919 383.656 458.719 383.769C458.52 383.883 458.361 384.049 458.243 384.267C458.124 384.486 458.065 384.742 458.065 385.036C458.065 385.335 458.124 385.596 458.243 385.819C458.361 386.037 458.52 386.205 458.719 386.324C458.919 386.438 459.139 386.495 459.381 386.495C459.623 386.495 459.844 386.438 460.043 386.324C460.247 386.205 460.408 386.037 460.527 385.819C460.645 385.596 460.705 385.337 460.705 385.043ZM462.212 385.043C462.212 384.64 462.292 384.289 462.454 383.99C462.615 383.686 462.838 383.452 463.123 383.285C463.412 383.119 463.742 383.036 464.112 383.036C464.591 383.036 464.985 383.153 465.293 383.385C465.606 383.618 465.812 383.94 465.912 384.353H465.215C465.148 384.116 465.018 383.928 464.823 383.791C464.633 383.653 464.396 383.584 464.112 383.584C463.742 383.584 463.443 383.712 463.215 383.969C462.987 384.22 462.873 384.578 462.873 385.043C462.873 385.513 462.987 385.876 463.215 386.132C463.443 386.388 463.742 386.516 464.112 386.516C464.396 386.516 464.633 386.45 464.823 386.317C465.013 386.184 465.143 385.994 465.215 385.748H465.912C465.808 386.146 465.599 386.466 465.286 386.708C464.973 386.945 464.581 387.064 464.112 387.064C463.742 387.064 463.412 386.981 463.123 386.815C462.838 386.649 462.615 386.414 462.454 386.111C462.292 385.807 462.212 385.451 462.212 385.043ZM466.534 385.043C466.534 384.64 466.615 384.289 466.776 383.99C466.937 383.686 467.16 383.452 467.445 383.285C467.734 383.119 468.064 383.036 468.434 383.036C468.913 383.036 469.307 383.153 469.615 383.385C469.928 383.618 470.135 383.94 470.234 384.353H469.537C469.471 384.116 469.34 383.928 469.146 383.791C468.956 383.653 468.719 383.584 468.434 383.584C468.064 383.584 467.765 383.712 467.537 383.969C467.31 384.22 467.196 384.578 467.196 385.043C467.196 385.513 467.31 385.876 467.537 386.132C467.765 386.388 468.064 386.516 468.434 386.516C468.719 386.516 468.956 386.45 469.146 386.317C469.335 386.184 469.466 385.994 469.537 385.748H470.234C470.13 386.146 469.921 386.466 469.608 386.708C469.295 386.945 468.904 387.064 468.434 387.064C468.064 387.064 467.734 386.981 467.445 386.815C467.16 386.649 466.937 386.414 466.776 386.111C466.615 385.807 466.534 385.451 466.534 385.043ZM472.799 387.064C472.434 387.064 472.102 386.981 471.803 386.815C471.509 386.649 471.276 386.414 471.105 386.111C470.939 385.802 470.856 385.446 470.856 385.043C470.856 384.645 470.942 384.294 471.113 383.99C471.288 383.682 471.525 383.447 471.824 383.285C472.123 383.119 472.457 383.036 472.828 383.036C473.198 383.036 473.532 383.119 473.831 383.285C474.13 383.447 474.365 383.679 474.535 383.983C474.711 384.286 474.799 384.64 474.799 385.043C474.799 385.446 474.708 385.802 474.528 386.111C474.353 386.414 474.113 386.649 473.809 386.815C473.506 386.981 473.169 387.064 472.799 387.064ZM472.799 386.495C473.031 386.495 473.25 386.44 473.454 386.331C473.658 386.222 473.821 386.058 473.945 385.84C474.073 385.622 474.137 385.356 474.137 385.043C474.137 384.73 474.075 384.464 473.952 384.246C473.828 384.028 473.667 383.867 473.468 383.762C473.269 383.653 473.053 383.599 472.82 383.599C472.583 383.599 472.365 383.653 472.166 383.762C471.971 383.867 471.815 384.028 471.696 384.246C471.577 384.464 471.518 384.73 471.518 385.043C471.518 385.361 471.575 385.629 471.689 385.847C471.808 386.065 471.964 386.229 472.159 386.338C472.353 386.443 472.567 386.495 472.799 386.495ZM479.108 383.1V387H478.461V386.424C478.337 386.623 478.164 386.779 477.941 386.893C477.723 387.002 477.481 387.057 477.216 387.057C476.912 387.057 476.639 386.995 476.397 386.872C476.155 386.744 475.963 386.554 475.821 386.303C475.683 386.051 475.614 385.745 475.614 385.385V383.1H476.255V385.299C476.255 385.684 476.352 385.98 476.547 386.189C476.741 386.393 477.007 386.495 477.344 386.495C477.69 386.495 477.963 386.388 478.162 386.175C478.361 385.961 478.461 385.65 478.461 385.242V383.1H479.108ZM482.102 383.029C482.576 383.029 482.96 383.174 483.254 383.463C483.549 383.748 483.696 384.161 483.696 384.702V387H483.055V384.794C483.055 384.405 482.958 384.109 482.763 383.905C482.569 383.696 482.303 383.591 481.966 383.591C481.625 383.591 481.352 383.698 481.148 383.912C480.949 384.125 480.849 384.436 480.849 384.844V387H480.202V383.1H480.849V383.656C480.977 383.456 481.15 383.302 481.369 383.193C481.592 383.084 481.836 383.029 482.102 383.029ZM485.543 383.634V385.933C485.543 386.122 485.584 386.258 485.664 386.338C485.745 386.414 485.885 386.452 486.084 386.452H486.561V387H485.977C485.617 387 485.346 386.917 485.166 386.751C484.986 386.585 484.896 386.312 484.896 385.933V383.634H484.39V383.1H484.896V382.118H485.543V383.1H486.561V383.634H485.543ZM492.601 383.1L490.253 388.836H489.584L490.353 386.957L488.78 383.1H489.499L490.723 386.26L491.932 383.1H492.601ZM496.81 384.901C496.81 385.024 496.803 385.155 496.789 385.292H493.672C493.696 385.676 493.826 385.978 494.063 386.196C494.305 386.409 494.597 386.516 494.939 386.516C495.219 386.516 495.451 386.452 495.636 386.324C495.826 386.191 495.959 386.016 496.034 385.797H496.732C496.627 386.172 496.419 386.478 496.106 386.715C495.793 386.948 495.404 387.064 494.939 387.064C494.569 387.064 494.237 386.981 493.942 386.815C493.653 386.649 493.425 386.414 493.259 386.111C493.093 385.802 493.01 385.446 493.01 385.043C493.01 384.64 493.091 384.286 493.252 383.983C493.413 383.679 493.639 383.447 493.928 383.285C494.222 383.119 494.559 383.036 494.939 383.036C495.309 383.036 495.636 383.117 495.921 383.278C496.205 383.44 496.423 383.663 496.575 383.947C496.732 384.227 496.81 384.545 496.81 384.901ZM496.141 384.766C496.141 384.519 496.087 384.308 495.978 384.132C495.868 383.952 495.719 383.817 495.529 383.727C495.344 383.632 495.138 383.584 494.91 383.584C494.583 383.584 494.303 383.689 494.07 383.897C493.843 384.106 493.712 384.396 493.679 384.766H496.141ZM498.455 383.634V385.933C498.455 386.122 498.495 386.258 498.576 386.338C498.656 386.414 498.796 386.452 498.996 386.452H499.472V387H498.889C498.528 387 498.258 386.917 498.078 386.751C497.897 386.585 497.807 386.312 497.807 385.933V383.634H497.302V383.1H497.807V382.118H498.455V383.1H499.472V383.634H498.455ZM501.523 381.976C501.993 381.976 502.373 382.109 502.662 382.375C502.951 382.64 503.096 382.996 503.096 383.442C503.096 383.94 502.942 384.31 502.634 384.552C502.325 384.789 501.908 384.908 501.381 384.908L501.36 385.584H500.798L500.769 384.46H500.976C501.445 384.46 501.813 384.388 502.079 384.246C502.344 384.104 502.477 383.836 502.477 383.442C502.477 383.157 502.392 382.932 502.221 382.766C502.05 382.6 501.82 382.517 501.531 382.517C501.236 382.517 501.004 382.598 500.833 382.759C500.667 382.915 500.584 383.131 500.584 383.406H499.972C499.972 383.122 500.036 382.873 500.164 382.659C500.292 382.441 500.473 382.273 500.705 382.154C500.942 382.035 501.215 381.976 501.523 381.976ZM501.075 387.043C500.952 387.043 500.847 387 500.762 386.915C500.677 386.829 500.634 386.725 500.634 386.602C500.634 386.478 500.677 386.374 500.762 386.288C500.847 386.203 500.952 386.16 501.075 386.16C501.194 386.16 501.293 386.203 501.374 386.288C501.459 386.374 501.502 386.478 501.502 386.602C501.502 386.725 501.459 386.829 501.374 386.915C501.293 387 501.194 387.043 501.075 387.043Z" fill="#2405F2"/>
<path d="M361.517 321.484C361.517 313.937 367.635 307.818 375.182 307.818H532.337C539.884 307.818 546.003 313.937 546.003 321.484C546.003 329.031 539.884 335.15 532.337 335.15H375.182C367.635 335.15 361.517 329.031 361.517 321.484Z" fill="#FCD980"/>
<path d="M443.9 323.984V318.22H444.737V323.196H447.347V323.984H443.9ZM449.903 324.104C449.471 324.104 449.096 324.007 448.779 323.812C448.461 323.617 448.216 323.349 448.042 323.008C447.871 322.663 447.786 322.267 447.786 321.819C447.786 321.368 447.874 320.972 448.05 320.63C448.226 320.286 448.473 320.019 448.791 319.83C449.108 319.637 449.479 319.541 449.903 319.541C450.336 319.541 450.711 319.639 451.028 319.834C451.346 320.028 451.591 320.297 451.765 320.638C451.938 320.98 452.025 321.373 452.025 321.819C452.025 322.27 451.937 322.667 451.761 323.012C451.587 323.353 451.342 323.621 451.024 323.816C450.707 324.008 450.333 324.104 449.903 324.104ZM449.903 323.316C450.317 323.316 450.625 323.177 450.828 322.9C451.033 322.619 451.136 322.259 451.136 321.819C451.136 321.368 451.032 321.008 450.824 320.738C450.619 320.466 450.312 320.33 449.903 320.33C449.623 320.33 449.392 320.394 449.211 320.522C449.029 320.647 448.895 320.822 448.807 321.046C448.719 321.268 448.675 321.525 448.675 321.819C448.675 322.273 448.779 322.635 448.987 322.908C449.195 323.18 449.5 323.316 449.903 323.316ZM454.686 326.026C454.453 326.026 454.228 325.99 454.009 325.918C453.793 325.846 453.596 325.739 453.417 325.597C453.238 325.459 453.09 325.287 452.972 325.081L453.745 324.689C453.838 324.873 453.972 325.008 454.145 325.093C454.319 325.179 454.501 325.221 454.694 325.221C454.931 325.221 455.134 325.179 455.302 325.093C455.47 325.01 455.597 324.885 455.682 324.717C455.77 324.549 455.813 324.341 455.81 324.092V322.884H455.91V319.661H456.651V324.1C456.651 324.215 456.647 324.325 456.639 324.429C456.631 324.533 456.616 324.637 456.595 324.741C456.533 325.032 456.416 325.272 456.243 325.461C456.072 325.651 455.853 325.792 455.586 325.886C455.322 325.979 455.022 326.026 454.686 326.026ZM454.622 324.104C454.219 324.104 453.87 324.004 453.577 323.804C453.286 323.604 453.06 323.332 452.9 322.988C452.743 322.641 452.664 322.251 452.664 321.819C452.664 321.384 452.744 320.996 452.904 320.654C453.064 320.31 453.291 320.039 453.585 319.842C453.881 319.641 454.232 319.541 454.638 319.541C455.046 319.541 455.389 319.641 455.666 319.842C455.946 320.039 456.157 320.31 456.299 320.654C456.443 320.998 456.515 321.387 456.515 321.819C456.515 322.251 456.443 322.639 456.299 322.984C456.155 323.328 455.942 323.601 455.662 323.804C455.382 324.004 455.035 324.104 454.622 324.104ZM454.738 323.348C455.012 323.348 455.237 323.283 455.41 323.152C455.584 323.021 455.71 322.841 455.79 322.611C455.87 322.382 455.91 322.118 455.91 321.819C455.91 321.52 455.869 321.256 455.786 321.026C455.706 320.797 455.581 320.618 455.41 320.49C455.242 320.362 455.027 320.298 454.766 320.298C454.488 320.298 454.26 320.366 454.081 320.502C453.902 320.638 453.769 320.821 453.681 321.05C453.596 321.28 453.553 321.536 453.553 321.819C453.553 322.104 453.596 322.363 453.681 322.595C453.769 322.825 453.9 323.008 454.073 323.144C454.249 323.28 454.471 323.348 454.738 323.348ZM457.855 318.953V318.14H458.691V318.953H457.855ZM457.855 323.984V319.661H458.691V323.984H457.855ZM462.928 323.984V321.859C462.928 321.691 462.913 321.519 462.883 321.343C462.857 321.164 462.803 320.998 462.723 320.846C462.646 320.694 462.535 320.571 462.391 320.478C462.25 320.385 462.064 320.338 461.835 320.338C461.685 320.338 461.544 320.363 461.41 320.414C461.277 320.462 461.16 320.541 461.058 320.65C460.96 320.76 460.881 320.904 460.822 321.082C460.766 321.261 460.738 321.479 460.738 321.735L460.218 321.539C460.218 321.146 460.291 320.801 460.438 320.502C460.585 320.2 460.795 319.966 461.07 319.798C461.345 319.629 461.677 319.545 462.067 319.545C462.366 319.545 462.617 319.593 462.819 319.689C463.022 319.786 463.186 319.912 463.312 320.07C463.44 320.225 463.537 320.394 463.604 320.578C463.671 320.762 463.716 320.942 463.74 321.118C463.764 321.295 463.776 321.449 463.776 321.583V323.984H462.928ZM459.889 323.984V319.661H460.638V320.91H460.738V323.984H459.889Z" fill="#1B1C2B"/>
<path d="M365.843 184.7C365.179 184.7 364.581 184.586 364.05 184.359C363.519 184.121 363.101 183.789 362.797 183.362C362.494 182.935 362.342 182.437 362.342 181.868H364.078C364.116 182.295 364.282 182.646 364.576 182.921C364.88 183.196 365.302 183.334 365.843 183.334C366.403 183.334 366.839 183.201 367.152 182.935C367.465 182.66 367.622 182.309 367.622 181.882C367.622 181.55 367.522 181.28 367.323 181.071C367.133 180.862 366.891 180.701 366.597 180.587C366.313 180.473 365.914 180.35 365.402 180.217C364.757 180.046 364.23 179.876 363.822 179.705C363.424 179.525 363.082 179.249 362.797 178.879C362.513 178.509 362.371 178.016 362.371 177.399C362.371 176.83 362.513 176.332 362.797 175.905C363.082 175.478 363.481 175.151 363.993 174.923C364.505 174.695 365.098 174.581 365.772 174.581C366.73 174.581 367.513 174.823 368.12 175.307C368.737 175.782 369.078 176.436 369.145 177.271H367.352C367.323 176.911 367.152 176.602 366.839 176.346C366.526 176.09 366.113 175.962 365.601 175.962C365.136 175.962 364.757 176.08 364.463 176.318C364.168 176.555 364.021 176.896 364.021 177.342C364.021 177.646 364.112 177.897 364.292 178.097C364.482 178.286 364.719 178.438 365.003 178.552C365.288 178.666 365.677 178.789 366.17 178.922C366.825 179.102 367.356 179.283 367.764 179.463C368.182 179.643 368.533 179.923 368.818 180.303C369.112 180.673 369.259 181.171 369.259 181.797C369.259 182.3 369.121 182.774 368.846 183.22C368.58 183.666 368.187 184.027 367.665 184.302C367.152 184.567 366.545 184.7 365.843 184.7ZM371.999 175.72C371.704 175.72 371.458 175.62 371.258 175.421C371.059 175.222 370.96 174.975 370.96 174.681C370.96 174.387 371.059 174.14 371.258 173.941C371.458 173.742 371.704 173.642 371.999 173.642C372.283 173.642 372.525 173.742 372.724 173.941C372.924 174.14 373.023 174.387 373.023 174.681C373.023 174.975 372.924 175.222 372.724 175.421C372.525 175.62 372.283 175.72 371.999 175.72ZM372.796 176.759V184.601H371.173V176.759H372.796ZM378.085 176.631C378.692 176.631 379.228 176.754 379.693 177.001C380.168 177.238 380.538 177.537 380.803 177.897V176.759H382.44V184.729C382.44 185.45 382.288 186.09 381.985 186.65C381.681 187.219 381.24 187.665 380.661 187.988C380.092 188.31 379.409 188.472 378.612 188.472C377.549 188.472 376.667 188.22 375.965 187.717C375.262 187.224 374.864 186.55 374.769 185.696H376.377C376.501 186.104 376.762 186.432 377.16 186.678C377.568 186.935 378.052 187.063 378.612 187.063C379.266 187.063 379.793 186.863 380.191 186.465C380.599 186.066 380.803 185.488 380.803 184.729V183.419C380.528 183.789 380.153 184.102 379.679 184.359C379.214 184.605 378.683 184.729 378.085 184.729C377.402 184.729 376.776 184.558 376.206 184.216C375.647 183.865 375.201 183.381 374.869 182.765C374.546 182.138 374.385 181.432 374.385 180.644C374.385 179.857 374.546 179.159 374.869 178.552C375.201 177.945 375.647 177.475 376.206 177.143C376.776 176.802 377.402 176.631 378.085 176.631ZM380.803 180.673C380.803 180.132 380.69 179.662 380.462 179.264C380.244 178.865 379.954 178.562 379.594 178.353C379.233 178.144 378.844 178.04 378.427 178.04C378.009 178.04 377.62 178.144 377.26 178.353C376.899 178.552 376.605 178.851 376.377 179.249C376.159 179.638 376.05 180.103 376.05 180.644C376.05 181.185 376.159 181.659 376.377 182.067C376.605 182.475 376.899 182.788 377.26 183.007C377.63 183.215 378.019 183.32 378.427 183.32C378.844 183.32 379.233 183.215 379.594 183.007C379.954 182.798 380.244 182.494 380.462 182.096C380.69 181.688 380.803 181.213 380.803 180.673ZM388.527 176.631C389.144 176.631 389.694 176.759 390.178 177.015C390.672 177.271 391.056 177.651 391.331 178.154C391.606 178.656 391.744 179.264 391.744 179.975V184.601H390.136V180.217C390.136 179.515 389.96 178.979 389.609 178.609C389.258 178.229 388.779 178.04 388.172 178.04C387.564 178.04 387.081 178.229 386.72 178.609C386.369 178.979 386.193 179.515 386.193 180.217V184.601H384.571V176.759H386.193V177.655C386.459 177.333 386.796 177.081 387.204 176.901C387.621 176.721 388.063 176.631 388.527 176.631ZM398.336 175.72C398.042 175.72 397.795 175.62 397.596 175.421C397.396 175.222 397.297 174.975 397.297 174.681C397.297 174.387 397.396 174.14 397.596 173.941C397.795 173.742 398.042 173.642 398.336 173.642C398.62 173.642 398.862 173.742 399.062 173.941C399.261 174.14 399.36 174.387 399.36 174.681C399.36 174.975 399.261 175.222 399.062 175.421C398.862 175.62 398.62 175.72 398.336 175.72ZM399.133 176.759V184.601H397.51V176.759H399.133ZM405.219 176.631C405.836 176.631 406.386 176.759 406.87 177.015C407.364 177.271 407.748 177.651 408.023 178.154C408.298 178.656 408.436 179.264 408.436 179.975V184.601H406.827V180.217C406.827 179.515 406.652 178.979 406.301 178.609C405.95 178.229 405.471 178.04 404.863 178.04C404.256 178.04 403.772 178.229 403.412 178.609C403.061 178.979 402.885 179.515 402.885 180.217V184.601H401.263V176.759H402.885V177.655C403.151 177.333 403.488 177.081 403.896 176.901C404.313 176.721 404.754 176.631 405.219 176.631ZM416.095 178.082V182.423C416.095 182.717 416.161 182.931 416.294 183.064C416.436 183.187 416.674 183.249 417.006 183.249H418.002V184.601H416.721C415.991 184.601 415.431 184.43 415.042 184.088C414.653 183.747 414.458 183.192 414.458 182.423V178.082H413.533V176.759H414.458V174.809H416.095V176.759H418.002V178.082H416.095ZM422.899 184.729C422.159 184.729 421.49 184.563 420.892 184.231C420.294 183.889 419.825 183.415 419.483 182.807C419.142 182.191 418.971 181.479 418.971 180.673C418.971 179.876 419.146 179.169 419.497 178.552C419.848 177.935 420.327 177.461 420.935 177.129C421.542 176.797 422.22 176.631 422.97 176.631C423.719 176.631 424.398 176.797 425.005 177.129C425.612 177.461 426.091 177.935 426.442 178.552C426.793 179.169 426.969 179.876 426.969 180.673C426.969 181.47 426.789 182.176 426.428 182.793C426.068 183.41 425.574 183.889 424.948 184.231C424.331 184.563 423.648 184.729 422.899 184.729ZM422.899 183.32C423.316 183.32 423.705 183.22 424.066 183.021C424.436 182.822 424.735 182.523 424.962 182.124C425.19 181.726 425.304 181.242 425.304 180.673C425.304 180.103 425.195 179.624 424.977 179.235C424.758 178.837 424.469 178.538 424.108 178.339C423.748 178.139 423.359 178.04 422.941 178.04C422.524 178.04 422.135 178.139 421.774 178.339C421.423 178.538 421.143 178.837 420.935 179.235C420.726 179.624 420.622 180.103 420.622 180.673C420.622 181.517 420.835 182.172 421.262 182.637C421.698 183.092 422.244 183.32 422.899 183.32ZM439.329 176.759L434.518 188.287H432.839L434.433 184.472L431.345 176.759H433.152L435.358 182.736L437.649 176.759H439.329ZM443.955 184.729C443.215 184.729 442.546 184.563 441.948 184.231C441.35 183.889 440.88 183.415 440.539 182.807C440.197 182.191 440.027 181.479 440.027 180.673C440.027 179.876 440.202 179.169 440.553 178.552C440.904 177.935 441.383 177.461 441.991 177.129C442.598 176.797 443.276 176.631 444.026 176.631C444.775 176.631 445.454 176.797 446.061 177.129C446.668 177.461 447.147 177.935 447.498 178.552C447.849 179.169 448.025 179.876 448.025 180.673C448.025 181.47 447.845 182.176 447.484 182.793C447.124 183.41 446.63 183.889 446.004 184.231C445.387 184.563 444.704 184.729 443.955 184.729ZM443.955 183.32C444.372 183.32 444.761 183.22 445.122 183.021C445.492 182.822 445.79 182.523 446.018 182.124C446.246 181.726 446.36 181.242 446.36 180.673C446.36 180.103 446.251 179.624 446.032 179.235C445.814 178.837 445.525 178.538 445.164 178.339C444.804 178.139 444.415 178.04 443.997 178.04C443.58 178.04 443.191 178.139 442.83 178.339C442.479 178.538 442.199 178.837 441.991 179.235C441.782 179.624 441.677 180.103 441.677 180.673C441.677 181.517 441.891 182.172 442.318 182.637C442.754 183.092 443.3 183.32 443.955 183.32ZM456.73 176.759V184.601H455.108V183.676C454.852 183.998 454.515 184.254 454.097 184.444C453.69 184.624 453.253 184.714 452.788 184.714C452.171 184.714 451.616 184.586 451.123 184.33C450.639 184.074 450.255 183.694 449.97 183.192C449.695 182.689 449.558 182.082 449.558 181.37V176.759H451.166V181.128C451.166 181.83 451.341 182.371 451.692 182.75C452.043 183.12 452.523 183.305 453.13 183.305C453.737 183.305 454.216 183.12 454.567 182.75C454.928 182.371 455.108 181.83 455.108 181.128V176.759H456.73ZM460.493 177.897C460.731 177.499 461.044 177.191 461.433 176.972C461.831 176.745 462.301 176.631 462.842 176.631V178.31H462.429C461.793 178.31 461.309 178.471 460.977 178.794C460.655 179.117 460.493 179.676 460.493 180.473V184.601H458.871V176.759H460.493V177.897ZM471.289 184.7C470.625 184.7 470.027 184.586 469.496 184.359C468.965 184.121 468.547 183.789 468.243 183.362C467.94 182.935 467.788 182.437 467.788 181.868H469.524C469.562 182.295 469.728 182.646 470.022 182.921C470.326 183.196 470.748 183.334 471.289 183.334C471.849 183.334 472.285 183.201 472.598 182.935C472.912 182.66 473.068 182.309 473.068 181.882C473.068 181.55 472.968 181.28 472.769 181.071C472.579 180.862 472.337 180.701 472.043 180.587C471.759 180.473 471.36 180.35 470.848 180.217C470.203 180.046 469.676 179.876 469.268 179.705C468.87 179.525 468.528 179.249 468.243 178.879C467.959 178.509 467.817 178.016 467.817 177.399C467.817 176.83 467.959 176.332 468.243 175.905C468.528 175.478 468.927 175.151 469.439 174.923C469.951 174.695 470.544 174.581 471.218 174.581C472.176 174.581 472.959 174.823 473.566 175.307C474.183 175.782 474.524 176.436 474.591 177.271H472.798C472.769 176.911 472.598 176.602 472.285 176.346C471.972 176.09 471.559 175.962 471.047 175.962C470.582 175.962 470.203 176.08 469.909 176.318C469.614 176.555 469.467 176.896 469.467 177.342C469.467 177.646 469.558 177.897 469.738 178.097C469.928 178.286 470.165 178.438 470.449 178.552C470.734 178.666 471.123 178.789 471.616 178.922C472.271 179.102 472.802 179.283 473.21 179.463C473.628 179.643 473.979 179.923 474.264 180.303C474.558 180.673 474.705 181.171 474.705 181.797C474.705 182.3 474.567 182.774 474.292 183.22C474.026 183.666 473.633 184.027 473.111 184.302C472.598 184.567 471.991 184.7 471.289 184.7ZM478.242 177.912C478.517 177.551 478.891 177.247 479.366 177.001C479.84 176.754 480.376 176.631 480.974 176.631C481.657 176.631 482.279 176.802 482.838 177.143C483.408 177.475 483.854 177.945 484.176 178.552C484.499 179.159 484.66 179.857 484.66 180.644C484.66 181.432 484.499 182.138 484.176 182.765C483.854 183.381 483.408 183.865 482.838 184.216C482.279 184.558 481.657 184.729 480.974 184.729C480.376 184.729 479.845 184.61 479.38 184.373C478.915 184.126 478.536 183.823 478.242 183.462V188.329H476.619V176.759H478.242V177.912ZM483.009 180.644C483.009 180.103 482.895 179.638 482.668 179.249C482.449 178.851 482.155 178.552 481.785 178.353C481.425 178.144 481.036 178.04 480.618 178.04C480.21 178.04 479.821 178.144 479.451 178.353C479.091 178.562 478.797 178.865 478.569 179.264C478.351 179.662 478.242 180.132 478.242 180.673C478.242 181.213 478.351 181.688 478.569 182.096C478.797 182.494 479.091 182.798 479.451 183.007C479.821 183.215 480.21 183.32 480.618 183.32C481.036 183.32 481.425 183.215 481.785 183.007C482.155 182.788 482.449 182.475 482.668 182.067C482.895 181.659 483.009 181.185 483.009 180.644ZM493.323 176.759L488.513 188.287H486.834L488.428 184.472L485.339 176.759H487.147L489.353 182.736L491.644 176.759H493.323ZM497.907 180.63L500.44 184.601H498.604L496.91 181.939L495.316 184.601H493.623L496.156 180.744L493.623 176.759H495.459L497.152 179.42L498.746 176.759H500.44L497.907 180.63ZM504.806 180.644C504.806 179.857 504.967 179.159 505.29 178.552C505.622 177.945 506.068 177.475 506.628 177.143C507.197 176.802 507.823 176.631 508.506 176.631C509.123 176.631 509.659 176.754 510.114 177.001C510.579 177.238 510.949 177.537 511.225 177.897V176.759H512.861V184.601H511.225V183.434C510.949 183.804 510.575 184.112 510.1 184.359C509.626 184.605 509.085 184.729 508.478 184.729C507.804 184.729 507.187 184.558 506.628 184.216C506.068 183.865 505.622 183.381 505.29 182.765C504.967 182.138 504.806 181.432 504.806 180.644ZM511.225 180.673C511.225 180.132 511.111 179.662 510.883 179.264C510.665 178.865 510.375 178.562 510.015 178.353C509.654 178.144 509.265 178.04 508.848 178.04C508.43 178.04 508.041 178.144 507.681 178.353C507.32 178.552 507.026 178.851 506.798 179.249C506.58 179.638 506.471 180.103 506.471 180.644C506.471 181.185 506.58 181.659 506.798 182.067C507.026 182.475 507.32 182.788 507.681 183.007C508.051 183.215 508.44 183.32 508.848 183.32C509.265 183.32 509.654 183.215 510.015 183.007C510.375 182.798 510.665 182.494 510.883 182.096C511.111 181.688 511.225 181.213 511.225 180.673ZM514.451 180.673C514.451 179.866 514.613 179.159 514.935 178.552C515.267 177.935 515.723 177.461 516.302 177.129C516.88 176.797 517.544 176.631 518.294 176.631C519.243 176.631 520.025 176.858 520.642 177.314C521.268 177.76 521.691 178.4 521.909 179.235H520.158C520.016 178.846 519.788 178.543 519.475 178.324C519.162 178.106 518.768 177.997 518.294 177.997C517.63 177.997 517.098 178.234 516.7 178.709C516.311 179.174 516.116 179.828 516.116 180.673C516.116 181.517 516.311 182.176 516.7 182.651C517.098 183.125 517.63 183.362 518.294 183.362C519.233 183.362 519.855 182.95 520.158 182.124H521.909C521.681 182.921 521.254 183.557 520.628 184.031C520.002 184.496 519.224 184.729 518.294 184.729C517.544 184.729 516.88 184.563 516.302 184.231C515.723 183.889 515.267 183.415 514.935 182.807C514.613 182.191 514.451 181.479 514.451 180.673ZM522.985 180.673C522.985 179.866 523.146 179.159 523.469 178.552C523.801 177.935 524.256 177.461 524.835 177.129C525.414 176.797 526.078 176.631 526.827 176.631C527.776 176.631 528.559 176.858 529.176 177.314C529.802 177.76 530.224 178.4 530.442 179.235H528.692C528.55 178.846 528.322 178.543 528.009 178.324C527.696 178.106 527.302 177.997 526.827 177.997C526.163 177.997 525.632 178.234 525.234 178.709C524.845 179.174 524.65 179.828 524.65 180.673C524.65 181.517 524.845 182.176 525.234 182.651C525.632 183.125 526.163 183.362 526.827 183.362C527.767 183.362 528.388 182.95 528.692 182.124H530.442C530.215 182.921 529.788 183.557 529.161 184.031C528.535 184.496 527.757 184.729 526.827 184.729C526.078 184.729 525.414 184.563 524.835 184.231C524.256 183.889 523.801 183.415 523.469 182.807C523.146 182.191 522.985 181.479 522.985 180.673ZM535.461 184.729C534.721 184.729 534.052 184.563 533.454 184.231C532.856 183.889 532.387 183.415 532.045 182.807C531.703 182.191 531.533 181.479 531.533 180.673C531.533 179.876 531.708 179.169 532.059 178.552C532.41 177.935 532.889 177.461 533.497 177.129C534.104 176.797 534.782 176.631 535.532 176.631C536.281 176.631 536.96 176.797 537.567 177.129C538.174 177.461 538.653 177.935 539.004 178.552C539.355 179.169 539.531 179.876 539.531 180.673C539.531 181.47 539.351 182.176 538.99 182.793C538.63 183.41 538.136 183.889 537.51 184.231C536.893 184.563 536.21 184.729 535.461 184.729ZM535.461 183.32C535.878 183.32 536.267 183.22 536.628 183.021C536.998 182.822 537.297 182.523 537.524 182.124C537.752 181.726 537.866 181.242 537.866 180.673C537.866 180.103 537.757 179.624 537.538 179.235C537.32 178.837 537.031 178.538 536.67 178.339C536.31 178.139 535.921 178.04 535.503 178.04C535.086 178.04 534.697 178.139 534.336 178.339C533.985 178.538 533.705 178.837 533.497 179.235C533.288 179.624 533.184 180.103 533.184 180.673C533.184 181.517 533.397 182.172 533.824 182.637C534.26 183.092 534.806 183.32 535.461 183.32ZM548.236 176.759V184.601H546.614V183.676C546.358 183.998 546.021 184.254 545.604 184.444C545.196 184.624 544.759 184.714 544.294 184.714C543.678 184.714 543.122 184.586 542.629 184.33C542.145 184.074 541.761 183.694 541.476 183.192C541.201 182.689 541.064 182.082 541.064 181.37V176.759H542.672V181.128C542.672 181.83 542.847 182.371 543.198 182.75C543.549 183.12 544.029 183.305 544.636 183.305C545.243 183.305 545.722 183.12 546.073 182.75C546.434 182.371 546.614 181.83 546.614 181.128V176.759H548.236ZM554.334 176.631C554.95 176.631 555.501 176.759 555.984 177.015C556.478 177.271 556.862 177.651 557.137 178.154C557.412 178.656 557.55 179.264 557.55 179.975V184.601H555.942V180.217C555.942 179.515 555.766 178.979 555.415 178.609C555.064 178.229 554.585 178.04 553.978 178.04C553.371 178.04 552.887 178.229 552.526 178.609C552.175 178.979 552 179.515 552 180.217V184.601H550.377V176.759H552V177.655C552.265 177.333 552.602 177.081 553.01 176.901C553.427 176.721 553.869 176.631 554.334 176.631ZM561.512 178.082V182.423C561.512 182.717 561.579 182.931 561.712 183.064C561.854 183.187 562.091 183.249 562.423 183.249H563.419V184.601H562.138C561.408 184.601 560.848 184.43 560.459 184.088C560.07 183.747 559.876 183.192 559.876 182.423V178.082H558.951V176.759H559.876V174.809H561.512V176.759H563.419V178.082H561.512Z" fill="#282938"/>
<rect opacity="0.3" x="361.85" y="212.493" width="183.819" height="26.6641" rx="3.22439" stroke="#282938" stroke-width="0.667116"/>
<rect opacity="0.3" x="361.85" y="253.917" width="183.819" height="26.6641" rx="3.22439" stroke="#282938" stroke-width="0.667116"/>
<path opacity="0.94" d="M376.38 267.324C376.115 267.22 375.911 267.068 375.769 266.869C375.626 266.67 375.555 266.428 375.555 266.143C375.555 265.887 375.619 265.657 375.747 265.453C375.875 265.244 376.065 265.081 376.316 264.962C376.573 264.839 376.881 264.777 377.242 264.777C377.602 264.777 377.908 264.839 378.159 264.962C378.416 265.081 378.608 265.244 378.736 265.453C378.869 265.657 378.935 265.887 378.935 266.143C378.935 266.418 378.862 266.66 378.715 266.869C378.567 267.073 378.366 267.225 378.11 267.324C378.404 267.415 378.636 267.573 378.807 267.801C378.983 268.024 379.07 268.295 379.07 268.612C379.07 268.921 378.994 269.191 378.843 269.424C378.691 269.651 378.475 269.829 378.195 269.957C377.92 270.081 377.602 270.142 377.242 270.142C376.881 270.142 376.563 270.081 376.288 269.957C376.018 269.829 375.806 269.651 375.655 269.424C375.503 269.191 375.427 268.921 375.427 268.612C375.427 268.295 375.512 268.022 375.683 267.794C375.854 267.566 376.086 267.41 376.38 267.324ZM378.309 266.221C378.309 265.932 378.214 265.709 378.024 265.553C377.835 265.396 377.574 265.318 377.242 265.318C376.914 265.318 376.656 265.396 376.466 265.553C376.276 265.709 376.181 265.934 376.181 266.229C376.181 266.494 376.278 266.708 376.473 266.869C376.672 267.03 376.928 267.111 377.242 267.111C377.559 267.111 377.816 267.03 378.01 266.869C378.209 266.703 378.309 266.487 378.309 266.221ZM377.242 267.609C376.89 267.609 376.603 267.692 376.38 267.858C376.158 268.019 376.046 268.264 376.046 268.591C376.046 268.895 376.153 269.139 376.366 269.324C376.584 269.509 376.876 269.602 377.242 269.602C377.607 269.602 377.896 269.509 378.11 269.324C378.323 269.139 378.43 268.895 378.43 268.591C378.43 268.273 378.321 268.031 378.103 267.865C377.884 267.694 377.597 267.609 377.242 267.609ZM379.916 266.15C379.949 265.714 380.118 265.372 380.421 265.126C380.725 264.879 381.119 264.756 381.603 264.756C381.925 264.756 382.203 264.815 382.435 264.933C382.672 265.047 382.85 265.204 382.969 265.403C383.092 265.602 383.154 265.828 383.154 266.079C383.154 266.373 383.068 266.627 382.898 266.841C382.732 267.054 382.513 267.192 382.243 267.253V267.289C382.551 267.365 382.796 267.514 382.976 267.737C383.156 267.96 383.246 268.252 383.246 268.612C383.246 268.883 383.185 269.127 383.061 269.345C382.938 269.559 382.753 269.727 382.506 269.851C382.26 269.974 381.963 270.036 381.617 270.036C381.114 270.036 380.701 269.905 380.379 269.644C380.056 269.379 379.876 269.004 379.838 268.52H380.464C380.497 268.805 380.613 269.037 380.813 269.217C381.012 269.398 381.278 269.488 381.61 269.488C381.942 269.488 382.193 269.402 382.364 269.231C382.539 269.056 382.627 268.831 382.627 268.555C382.627 268.2 382.509 267.944 382.271 267.787C382.034 267.63 381.676 267.552 381.197 267.552H381.033V267.011H381.204C381.641 267.007 381.97 266.935 382.193 266.798C382.416 266.656 382.528 266.437 382.528 266.143C382.528 265.892 382.445 265.69 382.279 265.538C382.117 265.387 381.885 265.311 381.581 265.311C381.287 265.311 381.05 265.387 380.87 265.538C380.689 265.69 380.583 265.894 380.549 266.15H379.916ZM385.836 266.036C386.172 266.036 386.467 266.11 386.718 266.257C386.974 266.404 387.164 266.589 387.287 266.812V266.1H387.942V270.085C387.942 270.441 387.866 270.757 387.714 271.032C387.562 271.312 387.344 271.53 387.06 271.686C386.78 271.843 386.452 271.921 386.078 271.921C385.565 271.921 385.138 271.8 384.797 271.558C384.455 271.316 384.253 270.987 384.192 270.569H384.832C384.903 270.806 385.05 270.996 385.273 271.139C385.496 271.286 385.764 271.359 386.078 271.359C386.433 271.359 386.723 271.248 386.946 271.025C387.173 270.802 387.287 270.489 387.287 270.085V269.267C387.159 269.495 386.969 269.685 386.718 269.836C386.467 269.988 386.172 270.064 385.836 270.064C385.489 270.064 385.174 269.979 384.889 269.808C384.609 269.637 384.389 269.398 384.227 269.089C384.066 268.781 383.985 268.43 383.985 268.036C383.985 267.638 384.066 267.289 384.227 266.99C384.389 266.686 384.609 266.452 384.889 266.285C385.174 266.119 385.489 266.036 385.836 266.036ZM387.287 268.043C387.287 267.749 387.228 267.493 387.109 267.275C386.991 267.056 386.829 266.89 386.625 266.776C386.426 266.658 386.206 266.599 385.964 266.599C385.722 266.599 385.501 266.656 385.302 266.769C385.103 266.883 384.944 267.049 384.825 267.267C384.707 267.486 384.647 267.742 384.647 268.036C384.647 268.335 384.707 268.596 384.825 268.819C384.944 269.037 385.103 269.205 385.302 269.324C385.501 269.438 385.722 269.495 385.964 269.495C386.206 269.495 386.426 269.438 386.625 269.324C386.829 269.205 386.991 269.037 387.109 268.819C387.228 268.596 387.287 268.337 387.287 268.043ZM390.972 266.029C391.266 266.029 391.531 266.093 391.769 266.221C392.006 266.345 392.191 266.532 392.324 266.784C392.461 267.035 392.53 267.341 392.53 267.702V270H391.89V267.794C391.89 267.405 391.792 267.109 391.598 266.905C391.403 266.696 391.138 266.591 390.801 266.591C390.459 266.591 390.187 266.698 389.983 266.912C389.783 267.125 389.684 267.436 389.684 267.844V270H389.036V264.734H389.684V266.656C389.812 266.456 389.987 266.302 390.21 266.193C390.438 266.084 390.692 266.029 390.972 266.029ZM393.922 265.467C393.799 265.467 393.695 265.424 393.609 265.339C393.524 265.254 393.481 265.149 393.481 265.026C393.481 264.903 393.524 264.798 393.609 264.713C393.695 264.627 393.799 264.585 393.922 264.585C394.041 264.585 394.141 264.627 394.221 264.713C394.307 264.798 394.349 264.903 394.349 265.026C394.349 265.149 394.307 265.254 394.221 265.339C394.141 265.424 394.041 265.467 393.922 265.467ZM394.235 266.1V270H393.588V266.1H394.235ZM395.097 268.036C395.097 267.638 395.178 267.289 395.339 266.99C395.5 266.686 395.721 266.452 396.001 266.285C396.285 266.119 396.601 266.036 396.947 266.036C397.289 266.036 397.585 266.11 397.837 266.257C398.088 266.404 398.276 266.589 398.399 266.812V266.1H399.054V270H398.399V269.274C398.271 269.502 398.079 269.692 397.822 269.843C397.571 269.991 397.277 270.064 396.94 270.064C396.594 270.064 396.281 269.979 396.001 269.808C395.721 269.637 395.5 269.398 395.339 269.089C395.178 268.781 395.097 268.43 395.097 268.036ZM398.399 268.043C398.399 267.749 398.34 267.493 398.221 267.275C398.102 267.056 397.941 266.89 397.737 266.776C397.538 266.658 397.317 266.599 397.075 266.599C396.833 266.599 396.613 266.656 396.414 266.769C396.214 266.883 396.055 267.049 395.937 267.267C395.818 267.486 395.759 267.742 395.759 268.036C395.759 268.335 395.818 268.596 395.937 268.819C396.055 269.037 396.214 269.205 396.414 269.324C396.613 269.438 396.833 269.495 397.075 269.495C397.317 269.495 397.538 269.438 397.737 269.324C397.941 269.205 398.102 269.037 398.221 268.819C398.34 268.596 398.399 268.337 398.399 268.043ZM399.906 268.036C399.906 267.638 399.987 267.289 400.148 266.99C400.309 266.686 400.53 266.452 400.81 266.285C401.094 266.119 401.412 266.036 401.763 266.036C402.067 266.036 402.349 266.108 402.61 266.25C402.871 266.387 403.07 266.57 403.208 266.798V264.734H403.862V270H403.208V269.267C403.08 269.5 402.89 269.692 402.638 269.843C402.387 269.991 402.093 270.064 401.756 270.064C401.41 270.064 401.094 269.979 400.81 269.808C400.53 269.637 400.309 269.398 400.148 269.089C399.987 268.781 399.906 268.43 399.906 268.036ZM403.208 268.043C403.208 267.749 403.148 267.493 403.03 267.275C402.911 267.056 402.75 266.89 402.546 266.776C402.347 266.658 402.126 266.599 401.884 266.599C401.642 266.599 401.422 266.656 401.222 266.769C401.023 266.883 400.864 267.049 400.746 267.267C400.627 267.486 400.568 267.742 400.568 268.036C400.568 268.335 400.627 268.596 400.746 268.819C400.864 269.037 401.023 269.205 401.222 269.324C401.422 269.438 401.642 269.495 401.884 269.495C402.126 269.495 402.347 269.438 402.546 269.324C402.75 269.205 402.911 269.037 403.03 268.819C403.148 268.596 403.208 268.337 403.208 268.043ZM406.408 269.402L407.618 266.1H408.308L406.778 270H406.024L404.494 266.1H405.191L406.408 269.402ZM409.593 266.734C409.707 266.511 409.868 266.338 410.077 266.214C410.29 266.091 410.549 266.029 410.852 266.029V266.698H410.682C409.956 266.698 409.593 267.092 409.593 267.879V270H408.945V266.1H409.593V266.734Z" fill="#282938"/>
<path opacity="0.3" d="M376.928 229.064C376.63 229.064 376.362 229.014 376.124 228.915C375.887 228.81 375.7 228.668 375.562 228.488C375.425 228.303 375.349 228.092 375.334 227.854H376.003C376.022 228.049 376.112 228.208 376.274 228.331C376.44 228.454 376.656 228.516 376.921 228.516C377.168 228.516 377.362 228.462 377.505 228.352C377.647 228.243 377.718 228.106 377.718 227.94C377.718 227.769 377.642 227.643 377.491 227.563C377.339 227.477 377.104 227.394 376.786 227.314C376.497 227.238 376.26 227.162 376.075 227.086C375.894 227.005 375.738 226.889 375.605 226.737C375.477 226.581 375.413 226.377 375.413 226.125C375.413 225.926 375.472 225.743 375.591 225.577C375.709 225.411 375.878 225.281 376.096 225.186C376.314 225.086 376.563 225.036 376.843 225.036C377.275 225.036 377.623 225.146 377.889 225.364C378.155 225.582 378.297 225.881 378.316 226.26H377.668C377.654 226.056 377.571 225.893 377.419 225.769C377.272 225.646 377.073 225.584 376.822 225.584C376.589 225.584 376.404 225.634 376.267 225.734C376.129 225.833 376.06 225.964 376.06 226.125C376.06 226.253 376.101 226.36 376.181 226.445C376.267 226.526 376.371 226.592 376.494 226.645C376.622 226.692 376.798 226.747 377.021 226.808C377.301 226.884 377.529 226.96 377.704 227.036C377.88 227.107 378.029 227.216 378.152 227.363C378.28 227.51 378.347 227.703 378.352 227.94C378.352 228.153 378.292 228.345 378.174 228.516C378.055 228.687 377.887 228.822 377.668 228.922C377.455 229.017 377.208 229.064 376.928 229.064ZM382.824 226.901C382.824 227.024 382.817 227.155 382.802 227.292H379.686C379.709 227.676 379.84 227.978 380.077 228.196C380.319 228.409 380.611 228.516 380.952 228.516C381.232 228.516 381.465 228.452 381.65 228.324C381.839 228.191 381.972 228.016 382.048 227.797H382.745C382.641 228.172 382.432 228.478 382.119 228.715C381.806 228.948 381.417 229.064 380.952 229.064C380.582 229.064 380.25 228.981 379.956 228.815C379.667 228.649 379.439 228.414 379.273 228.111C379.107 227.802 379.024 227.446 379.024 227.043C379.024 226.64 379.104 226.286 379.266 225.983C379.427 225.679 379.652 225.447 379.942 225.285C380.236 225.119 380.573 225.036 380.952 225.036C381.322 225.036 381.65 225.117 381.934 225.278C382.219 225.44 382.437 225.663 382.589 225.947C382.745 226.227 382.824 226.545 382.824 226.901ZM382.155 226.766C382.155 226.519 382.1 226.308 381.991 226.132C381.882 225.952 381.733 225.817 381.543 225.727C381.358 225.632 381.151 225.584 380.924 225.584C380.596 225.584 380.316 225.689 380.084 225.897C379.856 226.106 379.726 226.396 379.693 226.766H382.155ZM384.326 225.734C384.44 225.511 384.601 225.338 384.81 225.214C385.023 225.091 385.282 225.029 385.585 225.029V225.698H385.415C384.689 225.698 384.326 226.092 384.326 226.879V229H383.678V225.1H384.326V225.734ZM387.785 228.402L388.994 225.1H389.685L388.155 229H387.4L385.87 225.1H386.568L387.785 228.402ZM390.656 224.467C390.533 224.467 390.429 224.424 390.343 224.339C390.258 224.254 390.215 224.149 390.215 224.026C390.215 223.903 390.258 223.798 390.343 223.713C390.429 223.627 390.533 223.585 390.656 223.585C390.775 223.585 390.874 223.627 390.955 223.713C391.04 223.798 391.083 223.903 391.083 224.026C391.083 224.149 391.04 224.254 390.955 224.339C390.874 224.424 390.775 224.467 390.656 224.467ZM390.969 225.1V229H390.322V225.1H390.969ZM391.831 227.043C391.831 226.64 391.912 226.289 392.073 225.99C392.234 225.686 392.457 225.452 392.742 225.285C393.031 225.119 393.361 225.036 393.731 225.036C394.21 225.036 394.604 225.153 394.912 225.385C395.225 225.618 395.432 225.94 395.531 226.353H394.834C394.767 226.116 394.637 225.928 394.443 225.791C394.253 225.653 394.016 225.584 393.731 225.584C393.361 225.584 393.062 225.712 392.834 225.969C392.607 226.22 392.493 226.578 392.493 227.043C392.493 227.513 392.607 227.876 392.834 228.132C393.062 228.388 393.361 228.516 393.731 228.516C394.016 228.516 394.253 228.45 394.443 228.317C394.632 228.184 394.763 227.994 394.834 227.748H395.531C395.427 228.146 395.218 228.466 394.905 228.708C394.592 228.945 394.201 229.064 393.731 229.064C393.361 229.064 393.031 228.981 392.742 228.815C392.457 228.649 392.234 228.414 392.073 228.111C391.912 227.807 391.831 227.451 391.831 227.043ZM399.953 226.901C399.953 227.024 399.946 227.155 399.932 227.292H396.815C396.839 227.676 396.969 227.978 397.207 228.196C397.448 228.409 397.74 228.516 398.082 228.516C398.362 228.516 398.594 228.452 398.779 228.324C398.969 228.191 399.102 228.016 399.178 227.797H399.875C399.771 228.172 399.562 228.478 399.249 228.715C398.936 228.948 398.547 229.064 398.082 229.064C397.712 229.064 397.38 228.981 397.086 228.815C396.796 228.649 396.568 228.414 396.402 228.111C396.236 227.802 396.153 227.446 396.153 227.043C396.153 226.64 396.234 226.286 396.395 225.983C396.557 225.679 396.782 225.447 397.071 225.285C397.365 225.119 397.702 225.036 398.082 225.036C398.452 225.036 398.779 225.117 399.064 225.278C399.348 225.44 399.567 225.663 399.718 225.947C399.875 226.227 399.953 226.545 399.953 226.901ZM399.284 226.766C399.284 226.519 399.23 226.308 399.121 226.132C399.012 225.952 398.862 225.817 398.672 225.727C398.487 225.632 398.281 225.584 398.053 225.584C397.726 225.584 397.446 225.689 397.214 225.897C396.986 226.106 396.855 226.396 396.822 226.766H399.284ZM404.366 224.439C404.893 224.439 405.35 224.538 405.739 224.738C406.128 224.937 406.427 225.217 406.636 225.577C406.845 225.933 406.949 226.346 406.949 226.815C406.949 227.19 406.887 227.551 406.764 227.897C406.641 228.239 406.46 228.516 406.223 228.73C405.991 228.943 405.718 229.05 405.405 229.05C405.168 229.05 404.985 228.991 404.857 228.872C404.729 228.753 404.655 228.592 404.636 228.388C404.489 228.592 404.302 228.753 404.074 228.872C403.851 228.991 403.614 229.05 403.363 229.05C403.002 229.05 402.717 228.941 402.509 228.722C402.305 228.5 402.203 228.201 402.203 227.826C402.203 227.47 402.276 227.138 402.423 226.83C402.575 226.521 402.784 226.275 403.049 226.09C403.315 225.9 403.616 225.805 403.953 225.805C404.404 225.805 404.708 225.976 404.864 226.317L404.942 225.876H405.504L405.149 227.933C405.134 228.023 405.127 228.106 405.127 228.182C405.127 228.466 405.253 228.609 405.504 228.609C405.694 228.609 405.858 228.518 405.995 228.338C406.138 228.158 406.245 227.933 406.316 227.662C406.387 227.387 406.422 227.117 406.422 226.851C406.422 226.23 406.235 225.748 405.86 225.406C405.49 225.065 404.966 224.894 404.288 224.894C403.723 224.894 403.213 225.032 402.758 225.307C402.307 225.577 401.954 225.95 401.697 226.424C401.441 226.898 401.313 227.423 401.313 227.997C401.308 228.623 401.496 229.104 401.875 229.441C402.255 229.783 402.781 229.954 403.455 229.954C403.901 229.954 404.295 229.873 404.636 229.712L404.722 230.153C404.3 230.328 403.835 230.416 403.327 230.416C402.819 230.416 402.371 230.319 401.982 230.124C401.598 229.935 401.299 229.659 401.086 229.299C400.877 228.943 400.772 228.528 400.772 228.054C400.772 227.385 400.927 226.775 401.235 226.225C401.543 225.67 401.97 225.233 402.516 224.915C403.066 224.598 403.683 224.439 404.366 224.439ZM403.555 228.545C403.768 228.545 403.965 228.483 404.145 228.36C404.326 228.231 404.468 228.061 404.572 227.847C404.677 227.629 404.729 227.392 404.729 227.136C404.729 226.889 404.66 226.69 404.522 226.538C404.39 226.381 404.2 226.303 403.953 226.303C403.726 226.303 403.524 226.372 403.348 226.509C403.178 226.642 403.045 226.82 402.95 227.043C402.855 227.261 402.808 227.489 402.808 227.726C402.808 227.978 402.872 228.177 403 228.324C403.128 228.471 403.313 228.545 403.555 228.545ZM409.395 229.064C409.096 229.064 408.828 229.014 408.591 228.915C408.353 228.81 408.166 228.668 408.028 228.488C407.891 228.303 407.815 228.092 407.801 227.854H408.47C408.489 228.049 408.579 228.208 408.74 228.331C408.906 228.454 409.122 228.516 409.388 228.516C409.634 228.516 409.829 228.462 409.971 228.352C410.113 228.243 410.185 228.106 410.185 227.94C410.185 227.769 410.109 227.643 409.957 227.563C409.805 227.477 409.57 227.394 409.252 227.314C408.963 227.238 408.726 227.162 408.541 227.086C408.361 227.005 408.204 226.889 408.071 226.737C407.943 226.581 407.879 226.377 407.879 226.125C407.879 225.926 407.938 225.743 408.057 225.577C408.176 225.411 408.344 225.281 408.562 225.186C408.78 225.086 409.029 225.036 409.309 225.036C409.741 225.036 410.09 225.146 410.355 225.364C410.621 225.582 410.763 225.881 410.782 226.26H410.135C410.121 226.056 410.038 225.893 409.886 225.769C409.739 225.646 409.539 225.584 409.288 225.584C409.056 225.584 408.871 225.634 408.733 225.734C408.595 225.833 408.527 225.964 408.527 226.125C408.527 226.253 408.567 226.36 408.648 226.445C408.733 226.526 408.837 226.592 408.961 226.645C409.089 226.692 409.264 226.747 409.487 226.808C409.767 226.884 409.995 226.96 410.17 227.036C410.346 227.107 410.495 227.216 410.619 227.363C410.747 227.51 410.813 227.703 410.818 227.94C410.818 228.153 410.759 228.345 410.64 228.516C410.521 228.687 410.353 228.822 410.135 228.922C409.921 229.017 409.675 229.064 409.395 229.064ZM412.38 225.819C412.508 225.596 412.697 225.411 412.949 225.264C413.205 225.112 413.502 225.036 413.838 225.036C414.185 225.036 414.498 225.119 414.778 225.285C415.062 225.452 415.285 225.686 415.447 225.99C415.608 226.289 415.688 226.638 415.688 227.036C415.688 227.43 415.608 227.781 415.447 228.089C415.285 228.398 415.062 228.637 414.778 228.808C414.498 228.979 414.185 229.064 413.838 229.064C413.506 229.064 413.212 228.991 412.956 228.843C412.705 228.692 412.512 228.504 412.38 228.281V230.85H411.732V225.1H412.38V225.819ZM415.027 227.036C415.027 226.742 414.967 226.486 414.849 226.267C414.73 226.049 414.569 225.883 414.365 225.769C414.166 225.656 413.945 225.599 413.703 225.599C413.466 225.599 413.245 225.658 413.041 225.776C412.842 225.89 412.681 226.059 412.557 226.282C412.439 226.5 412.38 226.754 412.38 227.043C412.38 227.337 412.439 227.596 412.557 227.819C412.681 228.037 412.842 228.205 413.041 228.324C413.245 228.438 413.466 228.495 413.703 228.495C413.945 228.495 414.166 228.438 414.365 228.324C414.569 228.205 414.73 228.037 414.849 227.819C414.967 227.596 415.027 227.335 415.027 227.036ZM419.9 225.1L417.551 230.836H416.882L417.651 228.957L416.078 225.1H416.797L418.021 228.26L419.231 225.1H419.9ZM422.586 229L421.661 227.548L420.771 229H420.095L421.355 227.064L420.095 225.1H420.828L421.753 226.545L422.635 225.1H423.311L422.059 227.029L423.319 229H422.586ZM424.162 229.043C424.039 229.043 423.934 229 423.849 228.915C423.763 228.829 423.721 228.725 423.721 228.602C423.721 228.478 423.763 228.374 423.849 228.288C423.934 228.203 424.039 228.16 424.162 228.16C424.28 228.16 424.38 228.203 424.461 228.288C424.546 228.374 424.589 228.478 424.589 228.602C424.589 228.725 424.546 228.829 424.461 228.915C424.38 229 424.28 229.043 424.162 229.043ZM425.208 227.043C425.208 226.64 425.288 226.289 425.45 225.99C425.611 225.686 425.834 225.452 426.118 225.285C426.408 225.119 426.738 225.036 427.108 225.036C427.587 225.036 427.98 225.153 428.289 225.385C428.602 225.618 428.808 225.94 428.908 226.353H428.211C428.144 226.116 428.014 225.928 427.819 225.791C427.629 225.653 427.392 225.584 427.108 225.584C426.738 225.584 426.439 225.712 426.211 225.969C425.983 226.22 425.869 226.578 425.869 227.043C425.869 227.513 425.983 227.876 426.211 228.132C426.439 228.388 426.738 228.516 427.108 228.516C427.392 228.516 427.629 228.45 427.819 228.317C428.009 228.184 428.139 227.994 428.211 227.748H428.908C428.804 228.146 428.595 228.466 428.282 228.708C427.969 228.945 427.577 229.064 427.108 229.064C426.738 229.064 426.408 228.981 426.118 228.815C425.834 228.649 425.611 228.414 425.45 228.111C425.288 227.807 425.208 227.451 425.208 227.043ZM431.473 229.064C431.107 229.064 430.775 228.981 430.476 228.815C430.182 228.649 429.95 228.414 429.779 228.111C429.613 227.802 429.53 227.446 429.53 227.043C429.53 226.645 429.615 226.294 429.786 225.99C429.962 225.682 430.199 225.447 430.498 225.285C430.797 225.119 431.131 225.036 431.501 225.036C431.871 225.036 432.206 225.119 432.504 225.285C432.803 225.447 433.038 225.679 433.209 225.983C433.384 226.286 433.472 226.64 433.472 227.043C433.472 227.446 433.382 227.802 433.202 228.111C433.026 228.414 432.787 228.649 432.483 228.815C432.179 228.981 431.843 229.064 431.473 229.064ZM431.473 228.495C431.705 228.495 431.923 228.44 432.127 228.331C432.331 228.222 432.495 228.058 432.618 227.84C432.746 227.622 432.81 227.356 432.81 227.043C432.81 226.73 432.749 226.464 432.625 226.246C432.502 226.028 432.341 225.867 432.142 225.762C431.942 225.653 431.726 225.599 431.494 225.599C431.257 225.599 431.039 225.653 430.839 225.762C430.645 225.867 430.488 226.028 430.37 226.246C430.251 226.464 430.192 226.73 430.192 227.043C430.192 227.361 430.249 227.629 430.363 227.847C430.481 228.065 430.638 228.229 430.832 228.338C431.027 228.443 431.24 228.495 431.473 228.495ZM439.013 225.029C439.317 225.029 439.587 225.093 439.824 225.221C440.061 225.345 440.249 225.532 440.386 225.784C440.524 226.035 440.593 226.341 440.593 226.702V229H439.952V226.794C439.952 226.405 439.855 226.109 439.661 225.905C439.471 225.696 439.212 225.591 438.885 225.591C438.548 225.591 438.28 225.701 438.081 225.919C437.882 226.132 437.782 226.443 437.782 226.851V229H437.142V226.794C437.142 226.405 437.044 226.109 436.85 225.905C436.66 225.696 436.401 225.591 436.074 225.591C435.737 225.591 435.469 225.701 435.27 225.919C435.071 226.132 434.971 226.443 434.971 226.851V229H434.324V225.1H434.971V225.663C435.099 225.459 435.27 225.302 435.484 225.193C435.702 225.084 435.941 225.029 436.202 225.029C436.53 225.029 436.819 225.103 437.07 225.25C437.322 225.397 437.509 225.613 437.633 225.897C437.742 225.622 437.922 225.409 438.173 225.257C438.425 225.105 438.705 225.029 439.013 225.029Z" fill="#282938"/>
<path fill-rule="evenodd" clip-rule="evenodd" d="M480.812 144.233C483.56 144.233 485.787 142.04 485.787 139.334C485.787 136.629 483.56 134.436 480.812 134.436C478.065 134.436 475.837 136.629 475.837 139.334C475.837 142.04 478.065 144.233 480.812 144.233ZM432.509 152.183C431.448 152.593 430.258 152.799 428.939 152.799C427.226 152.799 425.74 152.455 424.481 151.768C423.223 151.082 422.351 150.164 421.866 149.014C421.775 148.79 421.729 148.581 421.729 148.387C421.729 147.999 421.892 147.689 422.218 147.458C422.544 147.226 422.965 147.11 423.481 147.11H424.413C424.822 147.11 425.137 147.185 425.357 147.334C425.577 147.484 425.785 147.678 425.982 147.917C426.179 148.156 426.323 148.327 426.414 148.432C426.687 148.745 427.044 148.988 427.483 149.16C427.923 149.331 428.408 149.417 428.939 149.417C429.697 149.417 430.307 149.264 430.77 148.958C431.232 148.652 431.463 148.245 431.463 147.738C431.463 147.29 431.304 146.928 430.986 146.651C430.667 146.375 430.262 146.151 429.769 145.98C429.276 145.808 428.598 145.618 427.733 145.409C426.536 145.125 425.558 144.837 424.8 144.546C424.042 144.255 423.393 143.804 422.855 143.191C422.317 142.579 422.048 141.758 422.048 140.728C422.048 139.758 422.336 138.896 422.912 138.142C423.488 137.388 424.284 136.805 425.3 136.395C426.316 135.984 427.468 135.779 428.757 135.779C430.379 135.779 431.774 136.122 432.941 136.809C434.109 137.496 434.905 138.414 435.329 139.564C435.405 139.817 435.443 140.019 435.443 140.168C435.443 140.571 435.28 140.889 434.954 141.12C434.628 141.351 434.207 141.467 433.692 141.467H432.782C432.449 141.467 432.176 141.411 431.964 141.299C431.751 141.187 431.581 141.057 431.452 140.907C431.323 140.758 431.099 140.474 430.781 140.056C430.569 139.773 430.288 139.552 429.939 139.396C429.591 139.239 429.197 139.161 428.757 139.161C428.059 139.161 427.502 139.314 427.085 139.62C426.668 139.926 426.46 140.34 426.46 140.862C426.46 141.221 426.604 141.516 426.892 141.747C427.18 141.978 427.544 142.161 427.984 142.296C428.423 142.43 429.037 142.587 429.826 142.766C431.069 143.035 432.096 143.322 432.907 143.628C433.719 143.934 434.42 144.427 435.011 145.106C435.602 145.785 435.898 146.707 435.898 147.872C435.898 148.842 435.599 149.701 435 150.447C434.401 151.194 433.571 151.772 432.509 152.183ZM441.553 151.892C441.242 152.198 440.791 152.351 440.199 152.351H439.426C438.835 152.351 438.384 152.198 438.073 151.892C437.762 151.586 437.607 151.142 437.607 150.56V138.019C437.607 137.437 437.762 136.992 438.073 136.686C438.384 136.38 438.835 136.227 439.426 136.227H445.999C447.939 136.227 449.478 136.724 450.615 137.716C451.753 138.709 452.321 140.101 452.321 141.893C452.321 143.61 451.753 144.946 450.615 145.902C449.478 146.857 447.939 147.335 445.999 147.335H442.019V150.56C442.019 151.142 441.863 151.586 441.553 151.892ZM442.02 143.819V139.989H445.113C446.962 139.989 447.887 140.624 447.887 141.893C447.887 143.177 446.962 143.819 445.113 143.819H442.02ZM460.96 151.892C460.65 152.198 460.199 152.351 459.607 152.351H458.834C458.243 152.351 457.792 152.198 457.481 151.892C457.17 151.586 457.015 151.142 457.015 150.56V145.342L452.534 138.399C452.292 138.026 452.17 137.675 452.17 137.347C452.17 137.004 452.307 136.731 452.58 136.53C452.853 136.328 453.239 136.227 453.74 136.227H454.445C454.945 136.227 455.37 136.324 455.718 136.518C456.067 136.712 456.37 137.019 456.628 137.437L459.221 141.624L461.768 137.437C462.025 137.019 462.325 136.712 462.666 136.518C463.007 136.324 463.428 136.227 463.928 136.227H464.906C465.361 136.227 465.706 136.321 465.941 136.507C466.176 136.694 466.293 136.951 466.293 137.28C466.293 137.623 466.165 137.996 465.907 138.399L461.427 145.342V150.56C461.427 151.142 461.271 151.586 460.96 151.892ZM469.966 152.351C470.451 152.351 470.868 152.269 471.217 152.105C471.565 151.94 471.884 151.672 472.172 151.299L475.31 147.357L478.426 151.276C478.714 151.649 479.032 151.922 479.381 152.094C479.73 152.265 480.147 152.351 480.632 152.351H481.337C481.617 152.351 482.229 152.233 482.485 152.06C482.742 151.887 482.99 151.685 482.99 151.276C482.99 150.867 482.839 150.156 482.485 149.544C482.131 148.931 479.961 145.487 478.426 145.126C476.35 144.46 475.252 143.22 474.616 140.821C473.804 138.881 472.172 137.28 472.172 137.28C472.153 137.263 472.135 137.245 472.116 137.228C472.096 137.21 472.077 137.191 472.057 137.173C471.774 136.909 471.477 136.631 471.217 136.474C470.921 136.294 470.451 136.227 469.966 136.227H469.261C468.776 136.227 468.393 136.324 468.112 136.518C467.832 136.712 467.691 136.966 467.691 137.28C467.691 137.623 467.858 138.004 468.192 138.422L472.854 144.289L468.192 150.156C467.858 150.574 467.691 150.955 467.691 151.299C467.691 151.612 467.832 151.866 468.112 152.06C468.393 152.254 468.776 152.351 469.261 152.351H469.966Z" fill="#1C1E53"/>
</g>
<defs>
<filter id="filter0_d_1708_3116" x="0.412109" y="0" width="910.308" height="567" filterUnits="userSpaceOnUse" color-interpolation-filters="sRGB">
<feFlood flood-opacity="0" result="BackgroundImageFix"/>
<feColorMatrix in="SourceAlpha" type="matrix" values="0 0 0 0 0 0 0 0 0 0 0 0 0 0 0 0 0 0 127 0" result="hardAlpha"/>
<feOffset dy="20"/>
<feGaussianBlur stdDeviation="30"/>
<feComposite in2="hardAlpha" operator="out"/>
<feColorMatrix type="matrix" values="0 0 0 0 0 0 0 0 0 0 0 0 0 0 0 0 0 0 0.3 0"/>
<feBlend mode="normal" in2="BackgroundImageFix" result="effect1_dropShadow_1708_3116"/>
<feBlend mode="normal" in="SourceGraphic" in2="effect1_dropShadow_1708_3116" result="shape"/>
</filter>
<linearGradient id="paint0_linear_1708_3116" x1="454.75" y1="469" x2="454.75" y2="487" gradientUnits="userSpaceOnUse">
<stop stop-color="#424242"/>
<stop offset="1" stop-color="#1B1B1B"/>
</linearGradient>
</defs>
</svg>
