<svg width="98" height="25" viewBox="0 0 98 25" fill="none" xmlns="http://www.w3.org/2000/svg"><g clip-path="url(#clip0)"><path d="M25.815 9.048h9.89v1.841H31.81v10.379h-2.135V10.889h-3.878l.017-1.841zm9.466 3.373h1.825v1.71h.032c.066-.244.18-.472.343-.7.163-.228.358-.44.602-.62.229-.195.49-.342.782-.456.277-.114.57-.179.864-.179.228 0 .391.017.473.017.081.016.179.032.26.032v1.874a3.298 3.298 0 00-.423-.065c-.147-.017-.277-.033-.424-.033-.326 0-.635.065-.929.196-.293.13-.537.325-.766.57-.211.26-.39.57-.52.945a3.967 3.967 0 00-.196 1.303v4.204h-1.956l.033-8.798zm14.143 8.847H47.5v-1.239h-.033c-.244.457-.603.799-1.075 1.076a2.838 2.838 0 01-1.45.407c-1.157 0-2.004-.277-2.526-.863-.52-.57-.782-1.45-.782-2.607V12.42h1.956v5.425c0 .782.146 1.336.456 1.646.293.326.717.489 1.254.489.408 0 .75-.066 1.027-.196.277-.13.505-.293.668-.505.18-.212.293-.473.375-.766.081-.293.114-.619.114-.961V12.42h1.955v8.847h-.016zm3.323-2.835c.066.57.277.961.652 1.206.375.228.831.342 1.352.342.18 0 .392-.017.62-.05.228-.032.456-.08.651-.162.212-.082.375-.196.505-.359a.834.834 0 00.18-.602c-.017-.245-.098-.457-.277-.62-.18-.163-.391-.277-.652-.39a5.66 5.66 0 00-.913-.245c-.342-.065-.684-.147-1.042-.228-.359-.082-.717-.18-1.06-.293a3.034 3.034 0 01-.912-.473 2.033 2.033 0 01-.635-.75c-.163-.309-.245-.667-.245-1.124 0-.489.115-.88.359-1.205a2.6 2.6 0 01.896-.783 4.07 4.07 0 011.206-.423 6.91 6.91 0 011.254-.114c.456 0 .896.049 1.304.146.407.098.798.245 1.124.473.342.212.62.505.831.847.228.342.358.766.424 1.255h-2.037c-.098-.473-.31-.782-.636-.945a2.625 2.625 0 00-1.156-.245c-.13 0-.31.017-.49.033a2.877 2.877 0 00-.537.13c-.163.066-.31.163-.423.277a.652.652 0 00-.18.473c0 .244.082.424.245.57.163.147.374.26.651.375.261.098.57.18.913.244.342.065.7.147 1.059.228.358.082.7.18 1.043.294.342.114.651.26.912.472.26.196.489.44.652.733.163.294.244.668.244 1.092 0 .521-.114.961-.358 1.336a3.046 3.046 0 01-.929.896 4.607 4.607 0 01-1.27.505 6.83 6.83 0 01-1.386.163 5.838 5.838 0 01-1.548-.195 3.942 3.942 0 01-1.238-.57 2.726 2.726 0 01-.814-.962c-.196-.375-.31-.83-.326-1.369h1.971v.017h.016zm6.436-6.012h1.483V9.748h1.955v2.656h1.76v1.45h-1.76v4.725c0 .212.016.375.033.538.016.147.065.277.114.375.065.098.163.18.277.228.13.049.293.081.521.081.13 0 .277 0 .407-.016.13-.016.277-.032.408-.065v1.515c-.212.033-.424.05-.636.065-.212.033-.407.033-.635.033-.521 0-.929-.049-1.238-.147a1.78 1.78 0 01-.734-.423 1.515 1.515 0 01-.358-.7 5.558 5.558 0 01-.114-.979v-5.213h-1.483v-1.483.033zm6.566 0h1.842v1.205h.032c.277-.521.652-.88 1.14-1.108a3.694 3.694 0 011.597-.342c.701 0 1.304.114 1.825.375.522.244.945.57 1.287 1.01.343.424.603.929.766 1.5.163.57.26 1.189.26 1.824 0 .603-.08 1.173-.227 1.727-.163.554-.391 1.06-.7 1.483a3.48 3.48 0 01-1.19 1.026c-.489.26-1.043.391-1.695.391a4.97 4.97 0 01-.847-.081 3.6 3.6 0 01-.815-.245 2.921 2.921 0 01-.716-.44 2.482 2.482 0 01-.555-.619h-.032v4.416h-1.955V12.42h-.017zm6.827 4.431c0-.39-.049-.782-.163-1.157-.097-.374-.26-.7-.472-.993a2.605 2.605 0 00-.766-.701c-.31-.18-.668-.26-1.059-.26-.815 0-1.434.276-1.857.847-.408.57-.62 1.336-.62 2.28 0 .457.05.864.163 1.239.114.375.261.7.49.977.211.277.472.49.781.652.31.163.652.245 1.06.245.456 0 .814-.098 1.124-.277.31-.18.553-.424.765-.701.196-.293.343-.62.424-.994a5.6 5.6 0 00.13-1.157zm3.438-7.804h1.955v1.841h-1.955V9.048zm0 3.373h1.955v8.847h-1.955V12.42zm3.699-3.373h1.955v12.22h-1.955V9.048zm7.918 12.464c-.7 0-1.336-.114-1.89-.358a4.288 4.288 0 01-1.4-.962 4.184 4.184 0 01-.864-1.482 5.793 5.793 0 01-.31-1.874c0-.668.098-1.287.31-1.857.195-.57.488-1.06.863-1.483a3.907 3.907 0 011.401-.961 4.945 4.945 0 011.89-.359c.7 0 1.336.114 1.89.359.554.228 1.01.554 1.401.96.375.408.669.913.864 1.484.196.57.31 1.189.31 1.857 0 .684-.098 1.304-.31 1.874a4.612 4.612 0 01-.864 1.482 3.909 3.909 0 01-1.4.962 4.885 4.885 0 01-1.89.358zm0-1.548c.424 0 .815-.097 1.124-.277a2.37 2.37 0 00.783-.716c.211-.294.358-.636.456-.994a4.468 4.468 0 000-2.265 2.923 2.923 0 00-.456-.994 2.474 2.474 0 00-.782-.7 2.293 2.293 0 00-1.125-.278c-.423 0-.814.098-1.124.277-.326.18-.57.424-.782.7a2.92 2.92 0 00-.456.995 4.436 4.436 0 000 2.265c.097.374.244.7.456.994.212.293.473.537.782.716.326.196.7.277 1.124.277zm5.051-7.543h1.483V9.748h1.955v2.656h1.76v1.45h-1.76v4.725c0 .212.016.375.033.538.016.147.065.277.114.375.065.098.163.18.277.228.13.049.293.081.521.081.13 0 .277 0 .407-.016.13-.016.277-.032.408-.065v1.515c-.212.033-.424.05-.636.065-.212.033-.407.033-.635.033-.521 0-.929-.049-1.238-.147a1.778 1.778 0 01-.734-.423 1.515 1.515 0 01-.358-.7 5.568 5.568 0 01-.114-.979v-5.213h-1.483v-1.483.033z" fill="#000"/><path d="M23.534 9.048h-8.945L11.835.543l-2.77 8.505L.12 9.032l7.234 5.262-2.77 8.506 7.235-5.263 7.234 5.263-2.754-8.506 7.235-5.246z" fill="#00B67A"/><path d="M16.918 16.218l-.619-1.923-4.464 3.242 5.083-1.32z" fill="#005128"/></g><defs><clipPath id="clip0"><path fill="#fff" transform="rotate(-180 48.967 12.271)" d="M0 0h97.867v24H0z"/></clipPath></defs></svg>