<svg width="51" height="51" viewBox="0 0 51 51" fill="none" xmlns="http://www.w3.org/2000/svg">
<g id="photos&#229;&#164;&#135;&#228;&#187;&#189; 4">
<rect id="&#232;&#146;&#153;&#231;&#137;&#136;" x="0.90625" y="0.390625" width="49.875" height="49.875" rx="16" fill="url(#paint0_linear_1407_479)"/>
<g id="&#229;&#189;&#162;&#231;&#138;&#182;&#231;&#187;&#147;&#229;&#144;&#136;">
<mask id="mask0_1407_479" style="mask-type:alpha" maskUnits="userSpaceOnUse" x="5" y="4" width="42" height="42">
<path id="&#232;&#146;&#153;&#231;&#137;&#136;_2" fill-rule="evenodd" clip-rule="evenodd" d="M17.4308 4.26953L34.2573 4.26953C40.9349 4.26953 46.3482 9.68282 46.3482 16.3604L46.3482 33.187C46.3482 39.8646 40.9349 45.2779 34.2573 45.2779L17.4308 45.2779C10.7531 45.2779 5.33984 39.8646 5.33984 33.187L5.33984 16.3604C5.33984 9.68282 10.7531 4.26953 17.4308 4.26953Z" fill="white"/>
</mask>
<g mask="url(#mask0_1407_479)">
<path id="&#229;&#189;&#162;&#231;&#138;&#182;&#231;&#187;&#147;&#229;&#144;&#136;_2" opacity="0.900036" fill-rule="evenodd" clip-rule="evenodd" d="M17.3525 23.8994C21.201 23.8994 25.5922 26.4634 30.1972 35.3838C30.532 36.0324 31.1672 35.7748 32.0188 35.143L32.3106 34.9193L32.7768 34.5414L33.6242 33.8349L34.1711 33.3892C34.2334 33.3395 34.2961 33.2898 34.3593 33.2403L34.744 32.9452C36.0442 31.9713 37.5196 31.1195 39.0551 31.1195C41.3339 31.1195 43.0659 32.9792 44.6006 35.178L44.9653 35.7114L45.3235 36.2532L46.5414 38.1478L46.8836 38.6694C46.9406 38.755 46.9975 38.8399 47.0544 38.9239L47.3961 39.4177C48.1372 40.4629 48.8853 41.3366 49.6897 41.825C49.8657 41.9319 49.8194 42.0961 49.5509 42.3178L49.4222 42.4163C49.3985 42.4333 49.3736 42.4506 49.3476 42.4682L49.1781 42.5773L48.9814 42.6934L48.6353 42.8807L48.228 43.0838L47.9225 43.228L47.4131 43.4575L46.6387 43.7882L45.7555 44.1469L44.7634 44.5338L43.6624 44.9487L42.1332 45.507L39.7065 46.3624L36.9465 47.3039L35.6616 47.7338L33.3841 48.4854L32.4254 48.7983C32.1064 48.9022 31.768 48.9322 31.4357 48.8863L5.76163 45.3365C5.46659 45.2957 5.18279 45.1958 4.92718 45.0429C2.51003 43.5968 1.77129 41.8479 2.71098 39.7962L2.93387 39.3131L3.37745 38.3732L3.8181 37.4677L4.25588 36.5964L4.69081 35.7587C5.05209 35.0745 5.41044 34.4248 5.76599 33.8084C6.12154 33.192 6.19131 33.0846 6.19131 33.0846C8.94719 28.4831 11.5347 25.8784 14.004 24.6922L14.383 24.5208C15.3911 24.0932 16.3798 23.8994 17.3525 23.8994Z" fill="url(#paint1_linear_1407_479)"/>
<circle id="&#230;&#164;&#173;&#229;&#156;&#134;&#229;&#189;&#162;" opacity="0.862335" cx="32.4939" cy="10.9197" r="4.43333" fill="white"/>
</g>
</g>
</g>
<defs>
<linearGradient id="paint0_linear_1407_479" x1="-16.9424" y1="25.87" x2="27.1041" y2="68.0261" gradientUnits="userSpaceOnUse">
<stop stop-color="#22D3FF"/>
<stop offset="1" stop-color="#0D97FF"/>
</linearGradient>
<linearGradient id="paint1_linear_1407_479" x1="0.36275" y1="17.2118" x2="-0.452725" y2="44.3413" gradientUnits="userSpaceOnUse">
<stop stop-color="#FBFEFF"/>
<stop offset="1" stop-color="#D0EEFF"/>
</linearGradient>
</defs>
</svg>
