<svg width="82" height="20" viewBox="0 0 82 20" fill="none" xmlns="http://www.w3.org/2000/svg"><path d="M16.889 3.125c-3.296 0-5.82-.975-7.956-3.125C6.797 2.15 4.272 3.125.976 3.125.976 8.723-.143 16.743 8.933 20c9.075-3.257 7.956-11.277 7.956-16.875zM2.765 4.907c1.985-.214 3.713-.804 5.262-1.798v6.269H2.853c-.14-1.5-.115-3.038-.088-4.47zm9.631 10.89c-.69.69-1.548 1.29-2.558 1.794v-6.338h4.897c-.104.488-.234.966-.4 1.427-.438 1.23-1.072 2.25-1.939 3.116z" fill="#758FC2"/><path d="M25.96 2.256c.726 0 1.29.191 1.691.574.401.383.624.818.668 1.305h-.758a1.582 1.582 0 00-.515-.88c-.256-.215-.615-.323-1.078-.323-.566 0-1.023.199-1.372.597-.346.396-.52 1.004-.52 1.825 0 .671.157 1.217.47 1.636.315.417.784.625 1.406.625.573 0 1.009-.22 1.308-.66.16-.232.278-.536.356-.914h.758c-.068.604-.292 1.11-.672 1.52-.456.492-1.07.738-1.844.738-.666 0-1.226-.202-1.68-.606-.596-.533-.894-1.358-.894-2.472 0-.847.224-1.54.672-2.082.484-.589 1.152-.883 2.004-.883zm3.089 1.71h.668v.723c.054-.14.189-.31.402-.511a1.04 1.04 0 01.805-.301l.16.016v.742a1.035 1.035 0 00-.23-.02c-.355 0-.627.115-.817.344-.19.227-.285.488-.285.785V8.15h-.703V3.967zm4.187-.093c.296 0 .584.07.863.211.278.138.49.318.637.54.14.21.234.456.28.737.042.193.063.5.063.922h-3.066c.013.425.113.766.3 1.024.188.255.478.382.872.382.367 0 .66-.12.879-.363.125-.14.213-.303.265-.488h.692a1.48 1.48 0 01-.184.516 1.804 1.804 0 01-.344.46 1.638 1.638 0 01-.793.422c-.169.042-.36.063-.574.063-.52 0-.962-.189-1.324-.567-.362-.38-.543-.911-.543-1.593 0-.672.182-1.218.547-1.637.364-.42.841-.629 1.43-.629zm1.12 1.852c-.028-.305-.095-.549-.199-.73-.192-.34-.514-.509-.964-.509a1.07 1.07 0 00-.813.352c-.219.232-.335.527-.348.887h2.325zm1.836.382c0 .448.095.823.285 1.125.19.303.495.454.914.454.326 0 .592-.14.8-.418.212-.282.317-.684.317-1.207 0-.53-.108-.92-.324-1.172a1.01 1.01 0 00-.8-.383c-.355 0-.643.135-.864.406-.219.27-.328.67-.328 1.195zm1.058-2.214c.32 0 .589.067.805.203.125.078.267.215.426.41V2.393h.676V8.15h-.633v-.582a1.521 1.521 0 01-.582.559 1.66 1.66 0 01-.77.172c-.466 0-.87-.195-1.21-.586-.342-.393-.512-.915-.512-1.567 0-.609.154-1.136.464-1.582.313-.447.758-.671 1.336-.671zm2.75.093h.714V8.15H40V3.986zm0-1.574h.714v.797H40v-.797zm1.721.387h.711v1.168h.668v.574h-.668v2.73c0 .146.05.244.149.293a.63.63 0 00.273.043h.11c.039-.002.084-.006.136-.011v.554c-.08.024-.165.04-.254.051-.085.01-.18.016-.28.016-.329 0-.552-.084-.669-.25-.117-.17-.176-.388-.176-.656V4.54h-.566v-.574h.566V2.799zm6.425-.543c.726 0 1.29.191 1.691.574.401.383.624.818.668 1.305h-.758a1.582 1.582 0 00-.515-.88c-.256-.215-.615-.323-1.078-.323-.566 0-1.023.199-1.372.597-.346.396-.52 1.004-.52 1.825 0 .671.157 1.217.47 1.636.315.417.783.625 1.406.625.573 0 1.009-.22 1.308-.66.16-.232.278-.536.356-.914h.758c-.068.604-.292 1.11-.672 1.52-.456.492-1.07.738-1.844.738-.667 0-1.226-.202-1.68-.606-.596-.533-.894-1.358-.894-2.472 0-.847.224-1.54.672-2.082.484-.589 1.152-.883 2.004-.883zm3.608 4.781a.58.58 0 00.223.48.825.825 0 00.527.176c.248 0 .487-.057.719-.172.39-.19.586-.5.586-.933V6.02c-.086.055-.197.1-.332.137a2.83 2.83 0 01-.398.078l-.426.055c-.255.034-.447.087-.575.16-.216.123-.324.318-.324.586zm1.703-1.422c.162-.02.27-.088.325-.203a.619.619 0 00.047-.27c0-.239-.087-.412-.258-.519-.17-.11-.413-.164-.73-.164-.368 0-.628.099-.782.297-.086.11-.142.272-.168.488h-.656c.013-.515.18-.874.5-1.074a2.06 2.06 0 011.12-.305c.493 0 .893.094 1.2.281.305.188.457.48.457.875v2.41a.32.32 0 00.043.176c.031.045.095.067.191.067.032 0 .067-.001.106-.004.039-.005.08-.012.125-.02v.52a1.96 1.96 0 01-.25.059 1.828 1.828 0 01-.234.011c-.243 0-.418-.086-.528-.258a.994.994 0 01-.12-.386c-.144.187-.35.35-.618.488a1.909 1.909 0 01-.887.207c-.388 0-.706-.117-.953-.352a1.184 1.184 0 01-.367-.886c0-.388.121-.69.363-.903.242-.213.56-.345.953-.394l1.121-.14zm2.03-1.648h.669v.722c.055-.14.189-.31.402-.511a1.04 1.04 0 01.805-.301l.16.016v.742a1.038 1.038 0 00-.23-.02c-.355 0-.627.115-.817.344-.19.227-.285.488-.285.785V8.15h-.703V3.967zm2.89 2.14c0 .448.096.823.286 1.125.19.303.495.454.914.454.325 0 .592-.14.8-.418.212-.282.317-.684.317-1.207 0-.53-.108-.92-.324-1.172a1.01 1.01 0 00-.8-.383c-.355 0-.643.135-.864.406-.219.27-.328.67-.328 1.195zm1.06-2.214c.32 0 .588.067.804.203.125.078.267.215.426.41V2.393h.675V8.15h-.632v-.582a1.521 1.521 0 01-.582.559 1.66 1.66 0 01-.77.172c-.466 0-.87-.195-1.21-.586-.342-.393-.513-.915-.513-1.567 0-.609.155-1.136.465-1.582.313-.447.758-.671 1.336-.671zm7.804.742l.941.238c.412.104.71.244.895.418.286.27.375.663.266 1.176-.112.526-.407.963-.883 1.312-.477.347-1.082.52-1.817.52-.75 0-1.303-.17-1.66-.512-.357-.344-.471-.815-.344-1.414h1.149c-.018.263.012.46.09.59.145.237.455.355.93.355.283 0 .52-.03.71-.093.362-.12.577-.343.645-.668.041-.19-.01-.338-.156-.442-.144-.101-.386-.191-.727-.27l-.582-.136c-.57-.135-.953-.283-1.148-.441-.331-.266-.437-.681-.317-1.247.11-.515.388-.944.836-1.285.448-.34 1.035-.511 1.762-.511.607 0 1.09.161 1.449.484.36.32.484.786.375 1.398h-1.156c.055-.346-.043-.592-.293-.738-.167-.096-.39-.144-.668-.144-.31 0-.572.062-.785.187a.775.775 0 00-.387.524c-.044.205.014.359.176.46.101.068.334.148.699.239zm4.566.926c.213-.026.368-.06.464-.098.172-.068.274-.173.305-.317.037-.174.001-.294-.105-.359-.107-.068-.278-.101-.512-.101-.263 0-.464.065-.602.195a1.094 1.094 0 00-.238.39h-1.074c.104-.372.273-.678.508-.917.375-.375.92-.563 1.636-.563.467 0 .861.092 1.184.277.323.185.43.534.32 1.047l-.418 1.953c-.028.136-.06.3-.093.493-.024.145-.024.244 0 .296a.3.3 0 00.136.13l-.03.163h-1.212a1.139 1.139 0 01-.02-.242c.003-.075.011-.161.024-.258-.19.167-.397.309-.621.426-.27.138-.557.207-.86.207-.385 0-.68-.11-.886-.328-.203-.221-.262-.534-.176-.937.112-.524.395-.903.848-1.137.247-.128.592-.219 1.035-.274l.387-.046zm.02.703l-.259.047c-.245.041-.424.092-.539.152a.662.662 0 00-.355.473c-.042.19-.02.328.066.414a.503.503 0 00.36.125c.24 0 .475-.07.707-.211.231-.141.391-.397.48-.77l.086-.414a1.76 1.76 0 01-.234.11 2.33 2.33 0 01-.313.074zm4.932-2.332l-.168.785h-.73l-.727 3.433h-1.11l.727-3.433h-.621l.168-.785h.61l.058-.274c.096-.456.24-.77.43-.941.216-.255.632-.383 1.25-.383a7.445 7.445 0 01.422.023l-.196.907a3.19 3.19 0 00-.308-.016c-.146-.005-.256.027-.328.098a.42.42 0 00-.13.226l-.078.36h.73zm2.05 3.261c.091-.07.18-.168.27-.293h1.136c-.083.253-.27.51-.558.77-.453.414-1.008.621-1.664.621-.542 0-.983-.174-1.325-.523-.338-.35-.424-.917-.258-1.704.157-.737.463-1.302.919-1.695.458-.393.985-.59 1.582-.59.354 0 .658.067.914.2.257.132.447.342.57.628a1.8 1.8 0 01.137.88c-.01.195-.058.476-.141.843h-2.914c-.076.427-.005.727.21.899.131.106.304.16.52.16.23 0 .43-.065.602-.196zm-.094-2.496a.933.933 0 00-.652.242c-.175.162-.309.38-.403.657h1.731c.044-.295.001-.517-.129-.668-.127-.154-.31-.23-.547-.23z" fill="#000"/><g clip-path="url(#clip0_2529_25994)" fill-rule="evenodd" clip-rule="evenodd"><path d="M25.03 14.18c-.082-.614-.469-.92-.896-.92-.367 0-.611.204-.611.511 0 .941 1.914.696 1.914 2.046 0 .614-.53 1.126-1.16 1.126-.408 0-.754-.266-.937-.266-.143 0-.224.102-.224.245h-.184v-1.248h.163c.163.778.713 1.064 1.181 1.064a.611.611 0 00.631-.634c0-1.023-1.934-.757-1.934-1.985 0-.573.51-1.064 1.12-1.064.387 0 .51.164.753.164.102 0 .163-.041.224-.164h.163v1.125h-.203zm3.645.224c.041-.818-.509-1.146-.977-1.146-.611 0-.957.45-1.018 1.146h1.995zm-1.975.184c-.02 1.638.957 2.067 1.446 2.067.509 0 .774-.164 1.303-.777v.266c-.448.573-.876.777-1.507.777-1.14 0-1.975-.798-1.975-1.903s.815-1.985 1.833-1.985c.834 0 1.629.696 1.568 1.535.02.02-2.668.02-2.668.02zm6.557-.247h-.163c-.163-.654-.631-1.084-1.242-1.084-.713 0-1.242.634-1.242 1.514 0 1.003.63 1.842 1.364 1.842.448 0 .977-.225 1.364-.778v.266a1.939 1.939 0 01-1.608.819c-1.08 0-1.833-.757-1.833-1.862 0-1.126.835-2.047 1.894-2.047.55 0 .835.205 1.018.205.102 0 .183-.082.244-.205h.183l.02 1.33zm4.276 1.804c0 .41.142.512.631.512v.163l-1.324.082v-.675h-.02c-.366.47-.774.716-1.283.716-.712 0-1.201-.553-1.201-1.248v-1.883c0-.348-.122-.491-.652-.491v-.164l1.181-.102h.163v2.62c0 .51.326.838.835.838.346 0 .672-.204.957-.593v-1.985c0-.512-.081-.573-.712-.573v-.164l1.242-.123h.163l.02 3.07zm2.341-.002c0 .41.122.511.611.511v.164h-1.934v-.164c.57 0 .63-.143.63-.695v-2.006c0-.532-.142-.593-.752-.593v-.164l1.282-.102h.163v.798c.693-.594.998-.798 1.242-.798.204 0 .49.123.672.286l-.285.635c-.285-.164-.631-.328-.875-.328-.224 0-.448.123-.774.45l.02 2.006zM43.6 11.6c0 .246-.203.45-.447.45a.453.453 0 01-.448-.45c0-.245.203-.45.448-.45.244 0 .448.205.448.45zm-.101 4.543c0 .369.102.512.61.512v.164h-1.995v-.164c.57 0 .693-.082.693-.512v-2.25c0-.512-.163-.553-.693-.553v-.164l1.222-.102h.163v3.07zm2.301-3.007h1.263v.266H45.8v2.373c0 .512.265.778.652.778.264 0 .468-.102.692-.348l.102.143c-.326.41-.693.614-1.1.614-.631 0-1.059-.43-1.059-1.064v-2.455h-.692v-.164c.51-.246.896-.696 1.222-1.33h.163l.02 1.187zm3.99 2.846l.632-1.944c.142-.43.102-.676-.285-.696v-.164h1.303v.164c-.387 0-.631.245-.835.86l-1.466 4.317c-.285.84-.774 1.33-1.202 1.33-.162 0-.264-.04-.448-.163l.224-.635a.772.772 0 00.347.082c.447 0 .692-.266.936-.9l.469-1.33-1.304-3.05c-.183-.43-.325-.532-.753-.552v-.164h1.751v.164c-.285.04-.387.245-.265.573l.896 2.108z" fill="#202630"/><path d="M55.635 13.769l-1.263 3.049h-.163l-1.221-3.049-.224 2.17c-.041.408.06.634.488.715v.164h-1.344v-.164c.387-.061.55-.184.611-.716l.224-2.394c-.183-.143-.264-.143-.53-.205v-.164h1.202l1.1 2.743 1.14-2.742h1.181v.163c-.203.02-.53.082-.53.41 0 .04.021.327.021.368l.163 1.8c.061.676.265.717.631.758v.163H55.33v-.163c.346-.062.53-.102.53-.532l-.02-.287-.204-2.087zm3.441 2.271c0 .614.081.614.448.614h.57c.265 0 .631-.02.835-.532h.163l-.163.716h-3.095v-.163c.448-.041.59-.082.59-.635v-2.066c0-.533-.163-.573-.59-.635v-.164h3.034l.06.696h-.162c-.102-.532-.489-.532-.814-.532h-.876v1.576h.651c.55 0 .57-.287.591-.491h.163v1.207h-.163c-.02-.204-.02-.491-.59-.491h-.652v.9zm4.622 0c0 .552.204.593.59.634v.163h-1.873v-.163c.387-.041.59-.082.59-.635V13.42h-.57c-.63 0-.692.491-.712.716h-.143l.02-1.125h.164c.142.102.224.184.57.184h2.036c.326 0 .407-.062.57-.184h.163l.02 1.125h-.142c-.02-.204-.082-.716-.713-.716h-.57v2.62zm3.259-1.045h.468c.407 0 .876-.143.876-.839 0-.491-.225-.818-.774-.818h-.57v1.657zm-.652-1.043c0-.533-.204-.573-.59-.635v-.164h1.812c.285 0 1.486 0 1.486.962 0 .368-.244.737-.835.9.387.185.55.41 1.06 1.126.345.47.529.47.854.512v.163h-1.079c-.203-.225-.285-.307-.794-1.023-.448-.634-.651-.634-.937-.634h-.325v.839c0 .552.203.593.59.634v.164h-1.853v-.164c.387-.04.59-.082.59-.634v-2.046h.021zm5.458 2.087c0 .552.203.593.59.634v.164H70.5v-.164c.387-.04.59-.082.59-.634V13.95c0-.532-.203-.572-.59-.634v-.164h1.853v.164c-.387.041-.59.082-.59.634v2.088zm4.783-1.717h-.142c-.081-.266-.122-.41-.244-.573a1.143 1.143 0 00-.998-.512c-.937 0-1.364.88-1.364 1.698 0 1.146.753 1.678 1.445 1.678.102 0 .774 0 1.283-.695l.122.102c-.142.225-.509.88-1.629.88a1.918 1.918 0 01-1.975-1.883c0-1.105.998-1.944 1.996-1.944.325 0 .712.082.875.103.061.02.143.02.224.02.082 0 .123-.04.204-.102h.142l.061 1.228zm2.933-.144h-.143c-.06-.573-.366-.94-.895-.94-.408 0-.632.286-.632.531 0 .328.163.41.957.88.652.389.896.798.896 1.208 0 .49-.427 1.064-1.18 1.064-.164 0-.306 0-.673-.185a.378.378 0 00-.142-.04c-.123 0-.143.081-.163.143h-.183v-1.187h.163c.101.573.386 1.084.977 1.084.346 0 .692-.225.692-.634 0-.41-.285-.593-.977-1.003-.387-.225-.815-.511-.815-1.064 0-.49.367-.962 1.06-.962.142 0 .243.02.366.041.285.082.305.082.366.082.102 0 .163-.061.204-.082h.142v1.064h-.02zm1.141-.899c0-.02 0-.02-.02-.041 0-.02-.02-.02-.02-.02-.021-.021-.021-.021-.042-.021h-.162v.205h.08c.021 0 .042 0 .082-.02.02 0 .041-.021.041-.021.02-.02.02-.02.02-.041.02 0 .02-.041.02-.041zm.224.43H80.7l-.224-.226h-.102v.226h-.101v-.594h.305c.02 0 .04.02.082.02.02.021.04.042.06.042.021.02.021.04.021.081s-.02.082-.04.103c-.021.02-.062.04-.103.082l.245.266zm.142-.307c0-.144-.04-.266-.142-.348a.445.445 0 00-.346-.143c-.143 0-.265.04-.347.143a.45.45 0 00-.142.348c0 .143.04.266.142.348a.445.445 0 00.347.143c.142 0 .264-.041.346-.144.102-.081.142-.204.142-.347zm.082 0a.61.61 0 01-.163.409.567.567 0 01-.407.164.604.604 0 01-.408-.164.573.573 0 01-.163-.41.61.61 0 01.163-.409.567.567 0 01.408-.163c.162 0 .285.061.407.163a.652.652 0 01.163.41z" fill="#1B4198"/></g><defs><clipPath id="clip0_2529_25994"><path fill="#fff" transform="translate(22.932 11.15)" d="M0 0h58.135v8.699H0z"/></clipPath></defs></svg>