<svg xmlns="http://www.w3.org/2000/svg" width="84" height="14" viewBox="0 0 84 14"><path fill="#3B4349" d="M67 9.5c0-.4.3-.7.7-.7.2 0 .4.1.5.2.1.1.2.3.2.5s-.1.4-.2.5c-.1.1-.3.2-.5.2s-.4-.1-.5-.2c-.1-.2-.2-.4-.2-.5z"/><path fill="#B4100F" d="M4.3 4.2l-1.2.7c-.2-.4-.5-.6-.8-.6-.1 0-.3 0-.4.1 0 .1-.1.2-.1.4 0 .3.3.5.9.8.8.4 1.4.7 1.7 1 .3.3.4.8.4 1.2 0 .6-.2 1.2-.7 1.6-.5.3-1.1.6-1.7.6C1.3 10 .5 9.4 0 8.3l1.3-.6c.1.2.2.4.4.6.2.2.4.3.7.3.5 0 .8-.2.8-.7 0-.3-.2-.5-.6-.8-.2-.1-.3-.2-.5-.3s-.3-.1-.4-.2c-.4-.1-.7-.4-1-.6-.2-.3-.4-.7-.4-1.1 0-.5.2-1.1.6-1.4.4-.4.9-.6 1.5-.6.9 0 1.5.4 1.9 1.3z"/><path fill="#B4100F" d="M7 4.5v5.3H5.4V4.5H4.3V3.1h1.2V.6H7v2.5h1.2v1.4H7zm1.2 1.9c0-.9.4-1.8 1.1-2.5.7-.7 1.6-1 2.5-1 1 0 1.9.3 2.5 1 1.4 1.4 1.4 3.7 0 5.1-.7.7-1.6 1-2.6 1s-1.9-.3-2.5-1c-.7-.8-1-1.7-1-2.6zm1.6 0c0 .7.2 1.2.5 1.6.4.4.9.6 1.5.6.5 0 1.1-.2 1.5-.6.4-.4.5-.9.5-1.6s-.2-1.2-.5-1.6c-.4-.4-.9-.6-1.5-.6-.5 0-1.1.2-1.4.6-.4.5-.6 1-.6 1.6zm7.6 6h-1.5V3h1.5v.7c.5-.6 1.3-.9 2.1-.9.9 0 1.7.4 2.3 1 .6.7.9 1.5.9 2.6 0 1-.3 1.9-.9 2.5-.6.7-1.4 1-2.3 1-.8 0-1.5-.3-2.1-1v3.5zm3.7-5.9c0-.6-.2-1.1-.5-1.6-.3-.4-.8-.6-1.3-.6s-1 .2-1.4.6c-.4.4-.6 1-.5 1.6 0 .6.2 1.1.5 1.6.3.4.9.6 1.4.6.5 0 1-.2 1.3-.6.4-.6.5-1.1.5-1.6z"/><path fill="#3B4349" d="M25.2.6v3.2c.6-.6 1.3-1 2.1-1 .9 0 1.7.4 2.3 1 .6.7.9 1.6.9 2.5 0 1-.3 1.9-.9 2.6-.6.7-1.4 1-2.3 1-.8 0-1.5-.3-2.1-.9v.7h-1.5V.6h1.5zm3.7 5.9c0-.6-.2-1.1-.5-1.6-.3-.4-.8-.6-1.3-.6s-1 .2-1.4.6c-.4.4-.6 1-.5 1.5 0 .7.2 1.2.5 1.6.3.4.9.6 1.4.6.5 0 1-.2 1.3-.6.4-.5.6-1 .5-1.5zm4-3.5v3.9c0 1.1.4 1.7 1.3 1.7s1.3-.6 1.3-1.7V3H37v3.9c0 .5 0 .9-.2 1.4-.1.4-.4.7-.7 1-1.2.9-2.8.9-4 0-.3-.2-.5-.6-.7-1-.1-.4-.2-.9-.2-1.4V3h1.7zM39.6.6v9.2H38V.6h1.6zm2.4 0v9.2h-1.5V.6H42zm7.5 1c0-.6.5-1 1-1 .3 0 .5.1.7.3.2.2.3.4.3.7 0 .3-.1.5-.3.7-.2.2-.4.3-.7.3-.5 0-1-.4-1-1zm1.8 1.5v6.7h-1.6V3l1.6.1zm1.2-.1H54v.6c.5-.5 1.1-.8 1.8-.8.8 0 1.4.2 1.8.7.4.4.6 1.1.6 2.1v4.1h-1.6V6c0-.7-.1-1.1-.3-1.4-.2-.3-.5-.4-1-.4s-.9.2-1.1.5c-.1.4-.2 1-.2 1.8v3.2h-1.6c.1 0 .1-6.7.1-6.7zm13.3 0v5.8c0 2.4-1.2 3.6-3.6 3.6-.6 0-1.2-.1-1.8-.2-.5-.1-1-.4-1.4-.7l.7-1.2c.3.3.7.5 1.1.6.4.1.9.2 1.3.2.7 0 1.3-.2 1.6-.5.3-.3.5-.9.5-1.6v-.4c-.3.3-.6.5-1 .7-.4.2-.8.2-1.2.2-.6 0-1.2-.1-1.7-.4-.5-.3-.9-.7-1.2-1.2-.6-1.1-.6-2.4 0-3.4.3-.5.7-.9 1.2-1.1.5-.3 1.1-.4 1.7-.4.4 0 .9.1 1.3.2.4.2.7.4 1 .7V3h1.5zm-2.1 4.6c.4-.4.6-.9.6-1.4 0-.5-.2-1-.6-1.4-.8-.7-2.1-.7-2.9 0-.4.4-.6.9-.6 1.4 0 .5.2 1.1.6 1.4.9.7 2.1.7 2.9 0zm10.7-2v3.9c0 .7-.2 1.3-.5 1.6-.3.4-.9.5-1.6.5-.4 0-.8-.1-1.1-.2-.3-.1-.6-.3-.9-.5l.2-.3c.2.2.5.4.8.5.3.1.7.2 1 .2.6 0 1-.1 1.3-.4.3-.3.4-.7.4-1.3v-.7c-.2.3-.4.6-.8.7-.3.2-.7.3-1.1.3-.4 0-.8-.1-1.1-.3-.3-.2-.6-.4-.8-.8-.4-.7-.4-1.5 0-2.2.2-.3.5-.6.8-.8.3-.2.7-.3 1.1-.3.4 0 .8.1 1.1.3.4.2.6.5.8.8v-1h.4zm-1.3 3.7c.3-.1.5-.4.6-.6.2-.3.3-.7.3-1 0-.3-.1-.6-.2-.9-.1-.3-.4-.5-.6-.6-.6-.3-1.3-.3-1.9 0-.3.1-.5.4-.6.6-.2.3-.2.6-.2.9 0 .3.1.6.2.9.1.3.4.5.6.6.6.4 1.3.4 1.8.1zm3.3.5c-.3-.2-.6-.5-.8-.8-.4-.7-.4-1.6 0-2.3.2-.3.5-.6.8-.8.7-.4 1.5-.4 2.2 0 .4.1.6.4.8.8.4.7.4 1.6 0 2.3-.2.3-.5.6-.8.8-.7.3-1.5.3-2.2 0zm2-.4c.3-.2.5-.4.6-.7.3-.6.3-1.3 0-1.9-.1-.3-.4-.5-.6-.7-.6-.3-1.2-.3-1.8 0-.3.2-.5.4-.6.7-.3.6-.3 1.3 0 1.9.1.3.4.5.6.7.6.3 1.3.3 1.8 0zM84 5.6L82 10h-.4l-2-4.4h.4l1.8 3.9 1.8-3.9h.4zM45 8.5l-3-5.4h1.8L45.9 7l1.9-3.9h1.8l-5.3 10.4h-1.8l2.5-5z"/></svg>