<svg xmlns="http://www.w3.org/2000/svg" xmlns:xlink="http://www.w3.org/1999/xlink" width="48" height="18" viewBox="0 0 48 18"><defs><path id="a" d="M1 0h46v18H1z"/></defs><clipPath id="b"><use xlink:href="#a" overflow="visible"/></clipPath><g clip-path="url(#b)"><path fill="#225E63" d="M32.5 11.1l.4.1c0 .1-.1.2-.1.3l-.2.2c-.1 0-.2.1-.4.1s-.3 0-.4-.1c-.1-.1-.2-.1-.3-.3-.1-.1-.1-.3-.1-.5 0-.3.1-.5.2-.6.1-.1.4-.2.6-.2.2 0 .4 0 .5.1.1.1.2.2.3.4l-.5.1v-.1l-.1-.1h-.3l-.1.1c0 .1-.1.2-.1.3 0 .2 0 .3.1.4l.1.1h.1c.1 0 .2 0 .2-.1 0 0 0-.1.1-.2zm.6-.1c0-.3.1-.5.2-.6.2-.1.4-.2.6-.2.3 0 .5.1.6.2.1.1.2.3.2.6 0 .2 0 .3-.1.5l-.3.3c-.1.1-.3.1-.5.1s-.3 0-.5-.1l-.3-.3c.1-.2.1-.3.1-.5zm.5 0c0 .2 0 .3.1.4l.1.1h.1c.1 0 .2 0 .3-.1.1-.1.1-.2.1-.4s0-.3-.1-.3l-.1-.1h-.2s-.1 0-.1.1c-.2 0-.2.1-.2.3zm1.5-.8h.7l.3 1 .3-1h.7v1.6h-.4v-1.2l-.3 1.2H36l-.3-1.2v1.2h-.4l-.2-1.6zm2.2 0h.9c.2 0 .3 0 .4.1.1.1.1.2.1.4s-.1.3-.2.4c-.1.1-.3.1-.5.1h-.3v.6h-.5v-1.6zm.5.7h.3v-.4s-.1-.1-.2-.1h-.1v.5zm1.1-.7h.5v1.2h.8v.4h-1.3v-1.6zm1.6 0h.5v1.6h-.5v-1.6zm1.9 1.3h-.6l-.1.3h-.5l.6-1.6h.6l.6 1.6h-.5l-.1-.3zm-.1-.3l-.2-.6-.2.6h.4zm.9-1h.5l.6.9v-.9h.5v1.6h-.5l-.6-.9v.9h-.5v-1.6zm1.8 0h1.6v.4H46v1.2h-.5v-1.2H45v-.4z"/><path fill-rule="evenodd" clip-rule="evenodd" fill="#225E63" d="M26.2 11.8l1.5-.5-.5-1.1c-.4.5-.7 1.1-1 1.6zm-.5-5.1l-3-6.7L1 1.3 7 18l11.6-3.7c-.7-1.1-1-2.4-.2-3 1-.7 2.4.1 3.3 1.3.9-1.6 3.4-5.1 4-5.9z"/><path fill-rule="evenodd" clip-rule="evenodd" fill="#FEFEFE" d="M22 4.9c.9 0 1.6-.7 1.6-1.6 0-.9-.7-1.6-1.6-1.6-.9 0-1.6.7-1.6 1.6 0 .9.7 1.6 1.6 1.6zm-1.3.7h2.7v7.2h-2.7V5.6zm-1.3 2.1V5.9s-.4-.2-1.4-.3h-1.3c-3.9.3-4.1 3.2-4.1 3.3v.7c0 .1 0 3 4.1 3.3H18c.9 0 1.6-.3 1.6-.3v-1.7s-.3.2-1.6.4h-.7c-1.8-.3-1.9-1.7-1.9-1.7v-.9s.1-1.5 1.9-1.6h.7c.7.2 1.4.6 1.4.6zm-14.3 5s.1 0 0 0h2.7v-2.1S12 10.9 12 8c0-2.3-2.6-2.5-3.5-2.5H5.2l-.1 7.2zM7.8 9V7.1h.6s.9 0 1 .7v.4c-.1.8-.9.8-.9.8h-.7z"/><path fill-rule="evenodd" clip-rule="evenodd" fill="#2BBC5D" d="M22.1 16.2c.2 0 .4 0 .7-.1 1-.5 4.2-8.5 7.6-11l.1-.1v-.1s0-.2-.5-.2c-3-.1-6.2 6.4-7.8 8.9h-.1S21 12.3 20 11.8h-.2c-.1 0-.5.1-.7.3-.2.3-.2.4-.2.7v.2c.2.4 1.3 1.9 2.2 2.8 0 .1.2.4 1 .4z"/><path fill="#225E63" d="M31.2 4.4h2.5c.5 0 .9.1 1.2.2.3.1.5.3.7.6.2.2.3.5.4.8.1.3.1.7.1 1 0 .6-.1 1-.2 1.3-.1.3-.3.6-.5.8-.2.2-.5.3-.7.4-.4.1-.7.1-1 .1h-2.5V4.4zm1.7 1.2v2.9h.4c.3 0 .6 0 .7-.1.1-.1.3-.2.3-.4.1-.2.1-.5.1-.9 0-.6-.1-.9-.3-1.1-.2-.2-.5-.3-.9-.3h-.3v-.1zm3.9 2.3l1.6-.1c0 .3.1.4.2.6.2.2.4.3.7.3.2 0 .4-.1.5-.2.2 0 .2-.2.2-.3 0-.2 0-.3-.2-.4-.1-.1-.4-.2-.9-.3-.7-.2-1.2-.4-1.6-.6-.3-.3-.5-.6-.5-1 0-.3.1-.5.2-.8.2-.2.4-.4.7-.6.3-.1.8-.2 1.3-.2.7 0 1.2.1 1.6.4.4.2.6.6.6 1.2l-1.3.1c0-.2-.1-.4-.3-.5-.1-.1-.3-.2-.6-.2-.2 0-.3 0-.4.1l-.1.1v.2c0 .1 0 .2.1.2.1.1.3.1.6.2.7.2 1.2.3 1.6.5.3.2.5.3.7.6.1.2.2.5.2.8 0 .3-.1.7-.3.9-.2.3-.5.5-.8.6-.3.1-.8.2-1.3.2-.9 0-1.5-.2-1.9-.5-.4-.3-.6-.7-.6-1.3zm5.3 0l1.6-.1c0 .3.1.4.2.6.2.2.4.3.7.3.2 0 .4-.1.5-.2.1-.1.2-.2.2-.4 0-.1-.1-.3-.2-.4-.1-.1-.4-.2-.9-.3-.7-.2-1.2-.4-1.6-.6-.3-.3-.5-.6-.5-1 0-.3.1-.5.2-.8.2-.2.4-.4.7-.6.3-.1.8-.2 1.3-.2.7 0 1.2.1 1.6.4.4.2.6.6.6 1.2l-1.2.2c0-.2-.1-.4-.3-.5-.1-.1-.3-.2-.5-.2s-.3 0-.4.1l-.1.1v.2c0 .1 0 .2.1.2.1.1.3.1.6.2.7.2 1.2.3 1.6.5.3.2.5.3.7.6-.1.2 0 .5 0 .8 0 .3-.1.7-.3.9-.2.3-.5.5-.8.6-.3.1-.8.2-1.3.2-.9 0-1.5-.2-1.9-.5-.3-.3-.5-.7-.6-1.3z"/></g></svg>