<svg width="60" height="60" viewBox="0 0 60 60" fill="none" xmlns="http://www.w3.org/2000/svg">
<g id="sms">
<g id="photos&#229;&#164;&#135;&#228;&#187;&#189; 4">
<rect id="&#232;&#146;&#153;&#231;&#137;&#136;" width="60" height="60" rx="16" fill="url(#paint0_linear_1445_1039)"/>
</g>
<path id="&#229;&#189;&#162;&#231;&#138;&#182;" fill-rule="evenodd" clip-rule="evenodd" d="M30.8894 12C20.3058 12 11.7861 19.2066 11.7861 28.0912C11.7861 33.5622 15.0482 38.39 19.9732 41.3501L19.5011 47.336C19.5011 47.9792 19.9659 48.4286 20.5671 48.4286C20.7675 48.4286 20.9679 48.3626 21.1001 48.3008L26.7617 43.9227C28.0921 44.1784 29.4225 44.2443 30.8211 44.2443C41.4089 44.2443 49.9286 37.0377 49.9286 28.1531C49.9926 19.2066 41.4089 12 30.8894 12Z" fill="#FFD683"/>
<g id="&#231;&#188;&#150;&#231;&#187;&#132; 9&#229;&#164;&#135;&#228;&#187;&#189;">
<ellipse id="&#229;&#189;&#162;&#231;&#138;&#182;&#231;&#187;&#147;&#229;&#144;&#136;" cx="30.8566" cy="28.2857" rx="19.0714" ry="16.2857" fill="url(#paint1_linear_1445_1039)"/>
<path id="&#229;&#189;&#162;&#231;&#138;&#182;&#231;&#187;&#147;&#229;&#144;&#136;_2" fill-rule="evenodd" clip-rule="evenodd" d="M23.5574 29.9939C23.1448 30.4065 22.4573 30.6814 21.7698 30.6814C20.3948 30.6814 19.2949 29.5815 19.2949 28.2066C19.2949 26.8315 20.3948 25.7314 21.7698 25.7314C23.145 25.7314 24.2449 26.8315 24.2449 28.2066C24.2449 28.8941 23.9698 29.444 23.5574 29.9939ZM32.7508 29.9939C32.3381 30.4065 31.6506 30.6814 30.9632 30.6814C29.5882 30.6814 28.4883 29.5815 28.4883 28.2066C28.4883 26.8315 29.5882 25.7314 30.9632 25.7314C32.3384 25.7314 33.4383 26.8315 33.4383 28.2066C33.4383 28.8941 33.1632 29.444 32.7508 29.9939ZM39.4484 30.6814C40.1358 30.6814 40.8233 30.4065 41.236 29.9939C41.6484 29.444 41.9235 28.8941 41.9235 28.2066C41.9235 26.8315 40.8236 25.7314 39.4484 25.7314C38.0734 25.7314 36.9735 26.8315 36.9735 28.2066C36.9735 29.5815 38.0734 30.6814 39.4484 30.6814Z" fill="#FFA14D"/>
</g>
</g>
<defs>
<linearGradient id="paint0_linear_1445_1039" x1="-21.4721" y1="30.6519" x2="31.5162" y2="81.366" gradientUnits="userSpaceOnUse">
<stop stop-color="#FFD57D"/>
<stop offset="1" stop-color="#FFA04C"/>
</linearGradient>
<linearGradient id="paint1_linear_1445_1039" x1="3.02194" y1="27.7983" x2="26.6421" y2="55.3681" gradientUnits="userSpaceOnUse">
<stop stop-color="white"/>
<stop offset="1" stop-color="#FFD47C"/>
</linearGradient>
</defs>
</svg>
