<svg width="60" height="60" viewBox="0 0 60 60" fill="none" xmlns="http://www.w3.org/2000/svg">
<g id="clander">
<rect id="&#232;&#146;&#153;&#231;&#137;&#136;" width="60" height="60" rx="16" fill="url(#paint0_linear_1445_1083)"/>
<g id="calendar&#229;&#164;&#135;&#228;&#187;&#189; 2">
<path id="&#232;&#146;&#153;&#231;&#137;&#136;_2" fill-rule="evenodd" clip-rule="evenodd" d="M21.8976 19.3144C23.0952 19.3144 24.0754 18.3192 24.0754 17.1034L24.0754 12.9279C24.0754 11.712 23.0952 10.7168 21.8976 10.7168C20.7 10.7168 19.7197 11.712 19.7197 12.9279L19.7197 17.1034C19.7197 18.3192 20.7 19.3144 21.8976 19.3144ZM37.9397 19.3144C39.1373 19.3144 40.1176 18.3192 40.1176 17.1034V12.9279C40.1176 11.712 39.1373 10.7168 37.9397 10.7168C36.7421 10.7168 35.7619 11.712 35.7619 12.9279V17.1034C35.7661 18.3192 36.7421 19.3144 37.9397 19.3144ZM42.1328 14.6625C45.1246 14.6625 47.571 17.1462 47.571 20.1837V22.2823V22.2996L47.571 41.6237C47.571 44.6613 45.1246 47.1449 42.1328 47.1449L17.6521 47.1449C14.6602 47.1449 12.2139 44.6613 12.2139 41.6237L12.2139 20.1794C12.2139 17.1419 14.6602 14.6582 17.6521 14.6582H19.1779L19.1779 17.6265C19.1779 19.1452 20.4011 20.3871 21.897 20.3871C23.393 20.3871 24.6161 19.1452 24.6161 17.6265L24.6161 14.6582L35.2199 14.6582V17.6265C35.2199 19.1452 36.4473 20.3914 37.9433 20.3914C39.4392 20.3914 40.6624 19.1496 40.6624 17.6308V14.6625H42.1328ZM39.4139 41.6282C40.9098 41.6282 42.133 40.3863 42.133 38.8676L42.133 23.918L17.6523 23.918L17.6523 38.8676C17.6523 40.3863 18.8755 41.6282 20.3715 41.6282L39.4139 41.6282ZM20.7412 27.9516C20.7412 27.5852 21.0383 27.2881 21.4047 27.2881L24.3459 27.2881C24.7124 27.2881 25.0094 27.5852 25.0094 27.9516L25.0094 30.9579C25.0094 31.3243 24.7124 31.6214 24.3459 31.6214L21.4047 31.6214C21.0383 31.6214 20.7412 31.3243 20.7412 30.9579L20.7412 27.9516ZM21.4047 33.7881C21.0383 33.7881 20.7412 34.0852 20.7412 34.4516V37.4579C20.7412 37.8243 21.0383 38.1214 21.4047 38.1214L24.3459 38.1214C24.7124 38.1214 25.0094 37.8243 25.0094 37.4579V34.4516C25.0094 34.0852 24.7124 33.7881 24.3459 33.7881L21.4047 33.7881ZM27.8555 27.9517C27.8555 27.5852 28.1526 27.2882 28.5191 27.2882L31.4602 27.2882C31.8267 27.2882 32.1238 27.5852 32.1238 27.9517L32.1238 30.9579C32.1238 31.3244 31.8267 31.6215 31.4602 31.6215L28.5191 31.6215C28.1526 31.6215 27.8555 31.3244 27.8555 30.9579L27.8555 27.9517ZM28.5191 33.7879C28.1526 33.7879 27.8555 34.0849 27.8555 34.4514V37.4577C27.8555 37.8241 28.1526 38.1212 28.5191 38.1212L31.4602 38.1212C31.8267 38.1212 32.1238 37.8241 32.1238 37.4577V34.4514C32.1238 34.0849 31.8267 33.7879 31.4602 33.7879L28.5191 33.7879ZM34.9697 27.9516C34.9697 27.5852 35.2668 27.2881 35.6333 27.2881L38.5744 27.2881C38.9409 27.2881 39.238 27.5852 39.238 27.9516L39.238 30.9579C39.238 31.3243 38.9409 31.6214 38.5744 31.6214L35.6333 31.6214C35.2668 31.6214 34.9697 31.3243 34.9697 30.9579L34.9697 27.9516ZM35.6333 33.7881C35.2668 33.7881 34.9697 34.0852 34.9697 34.4516V37.4579C34.9697 37.8243 35.2668 38.1214 35.6333 38.1214H38.5744C38.9409 38.1214 39.238 37.8243 39.238 37.4579V34.4516C39.238 34.0852 38.9409 33.7881 38.5744 33.7881H35.6333Z" fill="url(#paint1_linear_1445_1083)"/>
<mask id="mask0_1445_1083" style="mask-type:alpha" maskUnits="userSpaceOnUse" x="12" y="10" width="36" height="38">
<path id="&#232;&#146;&#153;&#231;&#137;&#136;_3" fill-rule="evenodd" clip-rule="evenodd" d="M21.8976 19.3144C23.0952 19.3144 24.0754 18.3192 24.0754 17.1034L24.0754 12.9279C24.0754 11.712 23.0952 10.7168 21.8976 10.7168C20.7 10.7168 19.7197 11.712 19.7197 12.9279L19.7197 17.1034C19.7197 18.3192 20.7 19.3144 21.8976 19.3144ZM37.9397 19.3144C39.1373 19.3144 40.1176 18.3192 40.1176 17.1034V12.9279C40.1176 11.712 39.1373 10.7168 37.9397 10.7168C36.7421 10.7168 35.7619 11.712 35.7619 12.9279V17.1034C35.7661 18.3192 36.7421 19.3144 37.9397 19.3144ZM42.1328 14.6625C45.1246 14.6625 47.571 17.1462 47.571 20.1837V22.2823V22.2996L47.571 41.6237C47.571 44.6613 45.1246 47.1449 42.1328 47.1449L17.6521 47.1449C14.6602 47.1449 12.2139 44.6613 12.2139 41.6237L12.2139 20.1794C12.2139 17.1419 14.6602 14.6582 17.6521 14.6582H19.1779L19.1779 17.6265C19.1779 19.1452 20.4011 20.3871 21.897 20.3871C23.393 20.3871 24.6161 19.1452 24.6161 17.6265L24.6161 14.6582L35.2199 14.6582V17.6265C35.2199 19.1452 36.4473 20.3914 37.9433 20.3914C39.4392 20.3914 40.6624 19.1496 40.6624 17.6308V14.6625H42.1328ZM39.4139 41.6282C40.9098 41.6282 42.133 40.3863 42.133 38.8676L42.133 23.918L17.6523 23.918L17.6523 38.8676C17.6523 40.3863 18.8755 41.6282 20.3715 41.6282L39.4139 41.6282ZM20.7412 27.9516C20.7412 27.5852 21.0383 27.2881 21.4047 27.2881L24.3459 27.2881C24.7124 27.2881 25.0094 27.5852 25.0094 27.9516L25.0094 30.9579C25.0094 31.3243 24.7124 31.6214 24.3459 31.6214L21.4047 31.6214C21.0383 31.6214 20.7412 31.3243 20.7412 30.9579L20.7412 27.9516ZM21.4047 33.7881C21.0383 33.7881 20.7412 34.0852 20.7412 34.4516V37.4579C20.7412 37.8243 21.0383 38.1214 21.4047 38.1214L24.3459 38.1214C24.7124 38.1214 25.0094 37.8243 25.0094 37.4579V34.4516C25.0094 34.0852 24.7124 33.7881 24.3459 33.7881L21.4047 33.7881ZM27.8555 27.9517C27.8555 27.5852 28.1526 27.2882 28.5191 27.2882L31.4602 27.2882C31.8267 27.2882 32.1238 27.5852 32.1238 27.9517L32.1238 30.9579C32.1238 31.3244 31.8267 31.6215 31.4602 31.6215L28.5191 31.6215C28.1526 31.6215 27.8555 31.3244 27.8555 30.9579L27.8555 27.9517ZM28.5191 33.7879C28.1526 33.7879 27.8555 34.0849 27.8555 34.4514V37.4577C27.8555 37.8241 28.1526 38.1212 28.5191 38.1212L31.4602 38.1212C31.8267 38.1212 32.1238 37.8241 32.1238 37.4577V34.4514C32.1238 34.0849 31.8267 33.7879 31.4602 33.7879L28.5191 33.7879ZM34.9697 27.9516C34.9697 27.5852 35.2668 27.2881 35.6333 27.2881L38.5744 27.2881C38.9409 27.2881 39.238 27.5852 39.238 27.9516L39.238 30.9579C39.238 31.3243 38.9409 31.6214 38.5744 31.6214L35.6333 31.6214C35.2668 31.6214 34.9697 31.3243 34.9697 30.9579L34.9697 27.9516ZM35.6333 33.7881C35.2668 33.7881 34.9697 34.0852 34.9697 34.4516V37.4579C34.9697 37.8243 35.2668 38.1214 35.6333 38.1214H38.5744C38.9409 38.1214 39.238 37.8243 39.238 37.4579V34.4516C39.238 34.0852 38.9409 33.7881 38.5744 33.7881H35.6333Z" fill="white"/>
</mask>
<g mask="url(#mask0_1445_1083)">
</g>
</g>
</g>
<defs>
<linearGradient id="paint0_linear_1445_1083" x1="-21.4721" y1="30.6519" x2="31.5162" y2="81.366" gradientUnits="userSpaceOnUse">
<stop stop-color="#FF6A89"/>
<stop offset="1" stop-color="#FF3C66"/>
</linearGradient>
<linearGradient id="paint1_linear_1445_1083" x1="-0.439306" y1="29.3267" x2="31.6754" y2="59.1595" gradientUnits="userSpaceOnUse">
<stop stop-color="white"/>
<stop offset="1" stop-color="#FFACBE"/>
</linearGradient>
</defs>
</svg>
