<svg width="60" height="60" viewBox="0 0 60 60" fill="none" xmlns="http://www.w3.org/2000/svg">
<g id="photos">
<rect id="&#232;&#146;&#153;&#231;&#137;&#136;" width="60" height="60" rx="16" fill="url(#paint0_linear_1445_1075)"/>
<g id="&#229;&#189;&#162;&#231;&#138;&#182;&#231;&#187;&#147;&#229;&#144;&#136;">
<mask id="mask0_1445_1075" style="mask-type:alpha" maskUnits="userSpaceOnUse" x="5" y="5" width="50" height="51">
<path id="&#232;&#146;&#153;&#231;&#137;&#136;_2" fill-rule="evenodd" clip-rule="evenodd" d="M19.8785 5.7373L40.1209 5.7373C48.1541 5.7373 54.6663 12.2495 54.6663 20.2828V40.5252C54.6663 48.5584 48.1541 55.0706 40.1209 55.0706H19.8785C11.8452 55.0706 5.33301 48.5584 5.33301 40.5252L5.33301 20.2828C5.33301 12.2495 11.8452 5.7373 19.8785 5.7373Z" fill="white"/>
</mask>
<g mask="url(#mask0_1445_1075)">
<path id="&#229;&#189;&#162;&#231;&#138;&#182;&#231;&#187;&#147;&#229;&#144;&#136;_2" opacity="0.900036" fill-rule="evenodd" clip-rule="evenodd" d="M19.7839 29.3516C24.4136 29.3516 29.6963 32.436 35.2361 43.1673C35.6389 43.9476 36.403 43.6377 37.4275 42.8777L37.7785 42.6086L38.3394 42.1539L39.3589 41.304L40.0168 40.7679C40.0917 40.7081 40.1671 40.6483 40.2432 40.5887L40.7059 40.2337C42.2701 39.0622 44.045 38.0373 45.8922 38.0373C48.6336 38.0373 50.7173 40.2746 52.5635 42.9198L53.0022 43.5615L53.4331 44.2133L54.8983 46.4925L55.31 47.1199C55.3785 47.2229 55.447 47.325 55.5155 47.4262L55.9266 48.0202C56.8181 49.2776 57.7181 50.3286 58.6857 50.9162C58.8974 51.0447 58.8417 51.2423 58.5187 51.509L58.3639 51.6275C58.3354 51.648 58.3055 51.6688 58.2742 51.69L58.0703 51.8212L57.8337 51.9608L57.4173 52.1862L56.9273 52.4306L56.5597 52.604L55.947 52.8801L55.0154 53.2779L53.9528 53.7094L52.7593 54.1748L51.4349 54.674L49.5952 55.3456L46.6759 56.3747L43.3556 57.5073L41.8099 58.0245L39.0699 58.9287L37.9167 59.3051C37.5329 59.4301 37.1258 59.4662 36.7261 59.411L5.83995 55.1405C5.485 55.0914 5.14359 54.9713 4.8361 54.7874C1.92824 53.0477 1.03954 50.9437 2.16998 48.4755L2.43813 47.8944L2.97175 46.7636L3.50186 45.6744L4.02851 44.6261L4.55174 43.6184C4.98636 42.7952 5.41746 42.0137 5.84519 41.2721C6.27292 40.5306 6.35685 40.4014 6.35685 40.4014C9.6722 34.8658 12.785 31.7323 15.7556 30.3053L16.2115 30.0991C17.4243 29.5847 18.6137 29.3516 19.7839 29.3516Z" fill="url(#paint1_linear_1445_1075)"/>
<circle id="&#230;&#164;&#173;&#229;&#156;&#134;&#229;&#189;&#162;" opacity="0.862335" cx="37.9993" cy="13.7376" r="5.33333" fill="white"/>
</g>
</g>
</g>
<defs>
<linearGradient id="paint0_linear_1445_1075" x1="-21.4721" y1="30.6519" x2="31.5162" y2="81.366" gradientUnits="userSpaceOnUse">
<stop stop-color="#22D3FF"/>
<stop offset="1" stop-color="#0D97FF"/>
</linearGradient>
<linearGradient id="paint1_linear_1445_1075" x1="-0.654951" y1="21.3063" x2="-1.63597" y2="53.9433" gradientUnits="userSpaceOnUse">
<stop stop-color="#FBFEFF"/>
<stop offset="1" stop-color="#D0EEFF"/>
</linearGradient>
</defs>
</svg>
