<svg width="51" height="51" viewBox="0 0 51 51" fill="none" xmlns="http://www.w3.org/2000/svg">
<g id="sms">
<rect id="&#232;&#146;&#153;&#231;&#137;&#136;" x="0.65625" y="0.484375" width="49.875" height="49.875" rx="16" fill="url(#paint0_linear_1407_496)"/>
<path id="&#229;&#189;&#162;&#231;&#138;&#182;" fill-rule="evenodd" clip-rule="evenodd" d="M26.3327 12.2402C17.5351 12.2402 10.4531 18.2307 10.4531 25.6161C10.4531 30.1638 13.1647 34.1769 17.2587 36.6375L16.8662 41.6133C16.8662 42.1479 17.2525 42.5215 17.7523 42.5215C17.9189 42.5215 18.0855 42.4667 18.1954 42.4152L22.9016 38.776C24.0075 38.9885 25.1134 39.0433 26.276 39.0433C35.0771 39.0433 42.1591 33.0528 42.1591 25.6675C42.2122 18.2307 35.0771 12.2402 26.3327 12.2402Z" fill="#FFD683"/>
<g id="&#231;&#188;&#150;&#231;&#187;&#132; 9&#229;&#164;&#135;&#228;&#187;&#189;">
<ellipse id="&#229;&#189;&#162;&#231;&#138;&#182;&#231;&#187;&#147;&#229;&#144;&#136;" cx="26.3062" cy="25.7777" rx="15.8531" ry="13.5375" fill="url(#paint1_linear_1407_496)"/>
<path id="&#229;&#189;&#162;&#231;&#138;&#182;&#231;&#187;&#147;&#229;&#144;&#136;_2" fill-rule="evenodd" clip-rule="evenodd" d="M20.2385 27.1985C19.8955 27.5415 19.324 27.77 18.7526 27.77C17.6096 27.77 16.6953 26.8556 16.6953 25.7127C16.6953 24.5697 17.6096 23.6553 18.7526 23.6553C19.8957 23.6553 20.81 24.5697 20.81 25.7127C20.81 26.2842 20.5813 26.7413 20.2385 27.1985ZM27.8802 27.1986C27.5371 27.5416 26.9657 27.7701 26.3942 27.7701C25.2513 27.7701 24.337 26.8558 24.337 25.7128C24.337 24.5698 25.2513 23.6554 26.3942 23.6554C27.5373 23.6554 28.4516 24.5698 28.4516 25.7128C28.4516 26.2843 28.223 26.7415 27.8802 27.1986ZM33.4479 27.7701C34.0193 27.7701 34.5908 27.5416 34.9338 27.1986C35.2766 26.7415 35.5053 26.2843 35.5053 25.7128C35.5053 24.5698 34.591 23.6554 33.4479 23.6554C32.305 23.6554 31.3906 24.5698 31.3906 25.7128C31.3906 26.8558 32.305 27.7701 33.4479 27.7701Z" fill="#FFA14D"/>
</g>
</g>
<defs>
<linearGradient id="paint0_linear_1407_496" x1="-17.1924" y1="25.9638" x2="26.8541" y2="68.1199" gradientUnits="userSpaceOnUse">
<stop stop-color="#FFD57D"/>
<stop offset="1" stop-color="#FF9D47"/>
</linearGradient>
<linearGradient id="paint1_linear_1407_496" x1="3.1687" y1="25.3725" x2="22.8029" y2="48.2899" gradientUnits="userSpaceOnUse">
<stop stop-color="white"/>
<stop offset="1" stop-color="#FFD47C"/>
</linearGradient>
</defs>
</svg>
