<svg width="60" height="60" viewBox="0 0 60 60" fill="none" xmlns="http://www.w3.org/2000/svg">
<g id="icloud">
<rect id="&#232;&#146;&#153;&#231;&#137;&#136;" width="60" height="60" rx="16" fill="url(#paint0_linear_1445_1065)"/>
<g id="&#231;&#188;&#150;&#231;&#187;&#132; 2&#229;&#164;&#135;&#228;&#187;&#189;">
<ellipse id="&#230;&#164;&#173;&#229;&#156;&#134;&#229;&#189;&#162;" opacity="0.597739" cx="21.0714" cy="26.2209" rx="6.07143" ry="6.15347" fill="white"/>
<path id="&#229;&#189;&#162;&#231;&#138;&#182;&#231;&#187;&#147;&#229;&#144;&#136;" fill-rule="evenodd" clip-rule="evenodd" d="M44.2859 25.8918L44.2859 25.8591C44.2859 19.8618 39.489 15 33.5716 15C27.6543 15 22.8574 19.8618 22.8574 25.8591C22.8574 26.3132 22.8849 26.7607 22.9383 27.2002C21.6895 26.3527 20.1877 25.8584 18.572 25.8584C14.2326 25.8584 10.7148 29.4237 10.7148 33.8217C10.7148 38.2197 14.2326 41.785 18.572 41.785C18.6267 41.785 18.6813 41.7845 18.7358 41.7833C18.7922 41.7851 18.8488 41.786 18.9057 41.786L43.239 41.786C43.2894 41.786 43.3396 41.7853 43.3896 41.7839C43.4502 41.7853 43.511 41.786 43.572 41.786C47.9114 41.786 51.4291 38.2207 51.4291 33.8227C51.4291 29.6686 48.2907 26.2574 44.2859 25.8918Z" fill="url(#paint1_linear_1445_1065)"/>
</g>
</g>
<defs>
<linearGradient id="paint0_linear_1445_1065" x1="-21.4721" y1="30.6519" x2="31.5162" y2="81.366" gradientUnits="userSpaceOnUse">
<stop stop-color="#A477FC"/>
<stop offset="1" stop-color="#7E36FD"/>
</linearGradient>
<linearGradient id="paint1_linear_1445_1065" x1="8.67615" y1="30.6032" x2="21.7867" y2="56.5727" gradientUnits="userSpaceOnUse">
<stop stop-color="#F4F1FF"/>
<stop offset="1" stop-color="#D4BEFD"/>
</linearGradient>
</defs>
</svg>
