<svg width="60" height="60" viewBox="0 0 60 60" fill="none" xmlns="http://www.w3.org/2000/svg">
<rect width="60" height="60" rx="16" fill="url(#paint0_linear_1445_1137)"/>
<path d="M43.9284 39.3662V18.5392C43.9284 17.6006 43.5616 16.7003 42.9085 16.0366C42.2555 15.3729 41.3698 15 40.4463 15H19.5534C17.6303 15 16.0713 16.5846 16.0713 18.5392V44.6751C16.0713 46.6297 17.6303 48.2143 19.5534 48.2143H35.2231L43.9284 39.3662Z" fill="url(#paint1_linear_1445_1137)"/>
<mask id="mask0_1445_1137" style="mask-type:alpha" maskUnits="userSpaceOnUse" x="16" y="15" width="28" height="34">
<path d="M43.9284 39.3662V18.5392C43.9284 17.6006 43.5616 16.7003 42.9085 16.0366C42.2555 15.3729 41.3698 15 40.4463 15H19.5534C17.6303 15 16.0713 16.5846 16.0713 18.5392V44.6751C16.0713 46.6297 17.6303 48.2143 19.5534 48.2143H35.2231L43.9284 39.3662Z" fill="white"/>
</mask>
<g mask="url(#mask0_1445_1137)">
</g>
<rect x="22" y="31.4004" width="16" height="3.66667" rx="1.71111" fill="#55E31F"/>
<rect x="22" y="23.333" width="16" height="3.66667" rx="1.71111" fill="#52E21E"/>
<path fill-rule="evenodd" clip-rule="evenodd" d="M34.667 42.0708C34.667 40.5588 35.8927 39.333 37.4048 39.333H43.0931L34.7935 47.6402C34.7103 47.4697 34.667 47.2825 34.667 47.0928L34.667 42.0708Z" fill="#61E41F"/>
<defs>
<linearGradient id="paint0_linear_1445_1137" x1="0" y1="0" x2="0" y2="60" gradientUnits="userSpaceOnUse">
<stop stop-color="#A4EE24"/>
<stop offset="1" stop-color="#22DB1B"/>
</linearGradient>
<linearGradient id="paint1_linear_1445_1137" x1="7.74945" y1="27.6495" x2="28.144" y2="50.788" gradientUnits="userSpaceOnUse">
<stop stop-color="white"/>
<stop offset="1" stop-color="#BDFF78"/>
</linearGradient>
</defs>
</svg>
