<svg width="60" height="60" viewBox="0 0 60 60" fill="none" xmlns="http://www.w3.org/2000/svg">
<rect width="60" height="60" rx="16" fill="url(#paint0_linear_1445_1176)"/>
<path d="M41.2443 33.4085H41.1083V25.4935C41.1083 22.9197 40.2188 20.4069 38.6036 18.4181C37.1264 16.599 35.1054 15.2876 32.8681 14.6854L32.8681 14.6742C32.8681 13.0817 31.5815 11.7861 30 11.7861C28.4185 11.7861 27.1319 13.0817 27.1319 14.6742L27.1319 14.6854C24.8946 15.2876 22.8736 16.599 21.3964 18.4181C19.7812 20.4069 18.8917 22.9197 18.8917 25.4935V33.4085H18.7557C16.6848 33.4085 15 35.105 15 37.1904C15 39.2757 16.6848 40.9723 18.7557 40.9723H41.2443C43.3152 40.9723 45 39.2757 45 37.1904C45 35.1051 43.3152 33.4085 41.2443 33.4085Z" fill="url(#paint1_linear_1445_1176)"/>
<path d="M34.2008 41.6982H25.7988C25.4655 41.6982 25.1953 41.9703 25.1953 42.3059C25.1953 44.9735 27.3506 47.1438 29.9998 47.1438C32.6489 47.1438 34.8042 44.9735 34.8042 42.3059C34.8042 41.9703 34.5341 41.6982 34.2008 41.6982Z" fill="#FFD7B6"/>
<defs>
<linearGradient id="paint0_linear_1445_1176" x1="-20.7298" y1="32.3575" x2="32.7971" y2="86.7634" gradientUnits="userSpaceOnUse">
<stop stop-color="#FBBE66"/>
<stop offset="1" stop-color="#FF4266"/>
</linearGradient>
<linearGradient id="paint1_linear_1445_1176" x1="15" y1="11.7861" x2="15" y2="40.9723" gradientUnits="userSpaceOnUse">
<stop stop-color="#FFD0AA"/>
<stop offset="1" stop-color="white"/>
</linearGradient>
</defs>
</svg>
