<svg width="60" height="62" viewBox="0 0 60 62" fill="none" xmlns="http://www.w3.org/2000/svg">
<g id="GPS">
<rect id="&#232;&#146;&#153;&#231;&#137;&#136;" width="60" height="61.0909" rx="16" fill="url(#paint0_linear_1445_1058)"/>
<g id="GPS&#229;&#164;&#135;&#228;&#187;&#189; 2">
<path id="Fill 4" fill-rule="evenodd" clip-rule="evenodd" d="M30.3078 10.9092C21.3396 10.9092 14.0439 18.2252 14.0439 27.2175C14.0439 39.2663 27.3761 47.4361 28.8967 49.1493C29.2549 49.5539 29.7685 49.7852 30.3081 49.7852C30.8476 49.7852 31.3612 49.5539 31.7195 49.1493C33.24 47.4366 46.5729 39.2663 46.5729 27.2175C46.5729 18.2252 39.2765 10.9092 30.3078 10.9092Z" fill="url(#paint1_linear_1445_1058)"/>
<path id="&#232;&#183;&#175;&#229;&#190;&#132;" fill-rule="evenodd" clip-rule="evenodd" d="M30.1404 33.1123C27.0787 33.1123 24.5869 30.621 24.5869 27.5584C24.5869 24.4962 27.0787 22.0049 30.1404 22.0049C33.2031 22.0049 35.6944 24.4962 35.6944 27.5584C35.6945 30.621 33.2031 33.1123 30.1404 33.1123Z" fill="#6D6EFF"/>
</g>
</g>
<defs>
<linearGradient id="paint0_linear_1445_1058" x1="-21.4721" y1="31.2092" x2="32.4283" y2="81.8751" gradientUnits="userSpaceOnUse">
<stop stop-color="#6FB8FF"/>
<stop offset="1" stop-color="#6D32FF"/>
</linearGradient>
<linearGradient id="paint1_linear_1445_1058" x1="7.2192" y1="29.3827" x2="34.4312" y2="51.8702" gradientUnits="userSpaceOnUse">
<stop stop-color="#FAFBFF"/>
<stop offset="1" stop-color="#8F91FF"/>
</linearGradient>
</defs>
</svg>
