<svg width="60" height="60" viewBox="0 0 60 60" fill="none" xmlns="http://www.w3.org/2000/svg">
<rect width="60" height="60" rx="15.4483" fill="url(#paint0_linear_1445_1128)"/>
<path fill-rule="evenodd" clip-rule="evenodd" d="M37.9007 11.7852H21.295C18.9702 11.7852 17.1436 13.3729 17.1436 15.3937V46.4276C17.1436 48.4485 18.9702 50.0362 21.295 50.0362H28.7374C25.0667 47.8319 22.6201 43.8808 22.6201 39.3733C22.6201 32.4593 28.3765 26.8545 35.4773 26.8545C37.8797 26.8545 40.1283 27.4961 42.0521 28.6129V15.3937C42.0521 13.3729 40.2255 11.7852 37.9007 11.7852ZM27.0358 13.5244C26.6676 13.5244 26.3691 13.8229 26.3691 14.1911V14.2487C26.3691 14.6169 26.6676 14.9154 27.0358 14.9154H32.8453C33.2135 14.9154 33.512 14.6169 33.512 14.2487V14.1911C33.512 13.8229 33.2135 13.5244 32.8453 13.5244H27.0358ZM35.7146 47.2549C31.3495 47.2549 27.8574 43.8547 27.8574 39.6045C27.8574 35.3947 31.3495 31.9541 35.7146 31.9541C40.0796 31.9541 43.5717 35.3947 43.5717 39.6045C43.5717 43.8547 40.0796 47.2549 35.7146 47.2549ZM46.717 49.2453L43.7788 46.3478C45.3118 44.5421 46.2486 42.1901 46.2486 39.671C46.206 33.834 41.4794 29.1729 35.603 29.1729C29.7266 29.1729 25 33.834 25 39.629C25 45.4236 29.7692 50.0851 35.603 50.0851C37.9451 50.0851 40.1593 49.3289 41.9052 48.0275L44.9286 51.0086C45.1415 51.2609 45.4821 51.4285 45.8654 51.4285C46.5893 51.4285 47.1429 50.8826 47.1429 50.1687C47.1429 49.7912 46.9725 49.4553 46.717 49.2453Z" fill="url(#paint1_linear_1445_1128)"/>
<defs>
<linearGradient id="paint0_linear_1445_1128" x1="0" y1="0" x2="0" y2="60" gradientUnits="userSpaceOnUse">
<stop stop-color="#49FAC7"/>
<stop offset="1" stop-color="#0BE1F3"/>
</linearGradient>
<linearGradient id="paint1_linear_1445_1128" x1="18.9349" y1="16.5196" x2="18.9349" y2="51.4285" gradientUnits="userSpaceOnUse">
<stop stop-color="white"/>
<stop offset="1" stop-color="#A4FFEE"/>
</linearGradient>
</defs>
</svg>
