<svg width="60" height="60" viewBox="0 0 60 60" fill="none" xmlns="http://www.w3.org/2000/svg">
<g id="email">
<rect id="&#232;&#146;&#153;&#231;&#137;&#136;" width="60" height="60" rx="16" fill="url(#paint0_linear_1445_1050)"/>
<g id="&#231;&#159;&#169;&#229;&#189;&#162;&#229;&#164;&#135;&#228;&#187;&#189; 7">
<rect id="&#232;&#146;&#153;&#231;&#137;&#136;_2" x="10.7148" y="17.1436" width="38.5714" height="25.7143" rx="5.81236" fill="#E2F6FF"/>
<mask id="mask0_1445_1050" style="mask-type:alpha" maskUnits="userSpaceOnUse" x="10" y="17" width="40" height="26">
<rect id="&#232;&#146;&#153;&#231;&#137;&#136;_3" x="10.7148" y="17.1436" width="38.5714" height="25.7143" rx="5.81236" fill="white"/>
</mask>
<g mask="url(#mask0_1445_1050)">
<path id="&#231;&#159;&#169;&#229;&#189;&#162;&#229;&#164;&#135;&#228;&#187;&#189; 2" fill-rule="evenodd" clip-rule="evenodd" d="M28.9527 22.4962C29.5246 21.9005 30.4773 21.9005 31.0492 22.4962L49.2178 41.4218C49.7576 41.9841 49.7576 42.8721 49.2178 43.4344L32.6216 60.7221C31.1919 62.2114 28.8101 62.2114 27.3804 60.7221L10.7842 43.4344C10.2444 42.8721 10.2444 41.9841 10.7842 41.4218L28.9527 22.4962Z" fill="url(#paint1_linear_1445_1050)"/>
<path id="&#231;&#159;&#169;&#229;&#189;&#162;" fill-rule="evenodd" clip-rule="evenodd" d="M28.9527 -2.41492C29.5246 -3.01062 30.4773 -3.01062 31.0492 -2.41492L48.1268 15.3742C48.6666 15.9365 48.6666 16.8246 48.1268 17.3869L32.6216 33.5381C31.1919 35.0274 28.8101 35.0274 27.3804 33.5381L11.8752 17.3869C11.3354 16.8246 11.3354 15.9365 11.8752 15.3742L28.9527 -2.41492Z" fill="white"/>
</g>
</g>
</g>
<defs>
<linearGradient id="paint0_linear_1445_1050" x1="-21.4721" y1="30.6519" x2="31.5162" y2="81.366" gradientUnits="userSpaceOnUse">
<stop stop-color="#22D4FF"/>
<stop offset="1" stop-color="#0182FF"/>
</linearGradient>
<linearGradient id="paint1_linear_1445_1050" x1="36.7492" y1="42.443" x2="36.779" y2="28.9466" gradientUnits="userSpaceOnUse">
<stop stop-color="#EDF9FF"/>
<stop offset="1" stop-color="#BFE6FF"/>
</linearGradient>
</defs>
</svg>
