<svg width="60" height="60" viewBox="0 0 60 60" fill="none" xmlns="http://www.w3.org/2000/svg">
<g clip-path="url(#clip0_1446_1569)">
<path d="M52.224 8.01205C42.872 6.95405 35.836 4.42405 31.312 0.490055L30.122 -0.543945L28.838 0.372055C21.748 5.43405 14.736 8.00006 8 8.00006H6V36.0001C6 44.5841 13.568 52.3701 29.138 59.8041L29.956 60.1941L30.79 59.8361C46.192 53.2201 54 45.2021 54 36.0001V8.21405L52.224 8.01205V8.01205ZM50 36.0001C50 43.3001 43.288 49.9601 30.042 55.8001C16.742 49.3141 10 42.6541 10 36.0001V11.9361C16.542 11.5121 23.224 9.01805 29.906 4.50205C34.702 8.15805 41.448 10.5961 50 11.7661V36.0001Z" fill="#333303"/>
<path d="M20.486 27.2922C20.1346 26.8946 19.6396 26.6529 19.11 26.6203C18.5804 26.5877 18.0595 26.7668 17.662 27.1182C17.2644 27.4696 17.0227 27.9645 16.9901 28.4941C16.9575 29.0237 17.1366 29.5446 17.488 29.9422L25.1 38.5562C25.888 39.4462 26.986 39.9042 28.094 39.9042C28.6881 39.9036 29.2748 39.7715 29.8118 39.5174C30.3488 39.2632 30.8229 38.8933 31.2 38.4342L43.55 23.2642C43.7158 23.0605 43.84 22.8261 43.9152 22.5745C43.9905 22.3228 44.0155 22.0588 43.9888 21.7975C43.962 21.5362 43.8841 21.2827 43.7594 21.0516C43.6347 20.8204 43.4657 20.616 43.262 20.4502C43.0583 20.2843 42.8239 20.1602 42.5723 20.0849C42.3207 20.0096 42.0566 19.9846 41.7953 20.0114C41.534 20.0381 41.2806 20.1161 41.0494 20.2408C40.8182 20.3655 40.6138 20.5345 40.448 20.7382L28.098 35.9062L20.486 27.2922Z" fill="#333303"/>
</g>
<defs>
<clipPath id="clip0_1446_1569">
<rect width="60" height="60" fill="white"/>
</clipPath>
</defs>
</svg>
