<svg width="56" height="56" viewBox="0 0 56 56" fill="none" xmlns="http://www.w3.org/2000/svg">
<path d="M51.8146 25.1308C52.8932 25.7246 53.7932 26.5963 54.421 27.6555C55.0488 28.7147 55.3815 29.9226 55.3846 31.1538V41.5385C55.3846 42.4476 55.2055 43.3479 54.8576 44.1878C54.5097 45.0278 53.9998 45.7909 53.3569 46.4338C52.714 47.0767 51.9508 47.5866 51.1109 47.9345C50.2709 48.2825 49.3707 48.4615 48.4615 48.4615V53.6538C48.4616 53.8812 48.4168 54.1063 48.3299 54.3163C48.2429 54.5263 48.1154 54.7171 47.9547 54.8779C47.794 55.0386 47.6032 55.1662 47.3932 55.2532C47.1832 55.3402 46.9581 55.3849 46.7308 55.3849C46.5035 55.3849 46.2784 55.3402 46.0684 55.2532C45.8583 55.1662 45.6675 55.0386 45.5068 54.8779C45.3461 54.7171 45.2186 54.5263 45.1317 54.3163C45.0447 54.1063 45 53.8812 45 53.6538V48.4615C45 48.4615 41.5315 48.4731 41.5385 48.4615C37.86 48.2977 34.6154 45.2562 34.6154 41.5385V31.1538C34.6154 30.2447 34.7945 29.3444 35.1424 28.5045C35.4903 27.6646 36.0002 26.9014 36.6431 26.2585C37.286 25.6156 38.0492 25.1057 38.8891 24.7578C39.7291 24.4098 40.6293 24.2308 41.5385 24.2308H48.4615C48.4615 11.8846 39.1638 3.46154 27.6923 3.46154C16.2231 3.46154 6.92308 12.6992 6.92308 24.2308H13.8462C15.6823 24.2308 17.4432 24.9602 18.7415 26.2585C20.0398 27.5568 20.7692 29.3177 20.7692 31.1538V41.5385C20.7692 45.2562 17.5246 48.2977 13.8462 48.4615C13.8531 48.4731 6.92308 48.4615 6.92308 48.4615C6.01393 48.4615 5.11368 48.2825 4.27373 47.9345C3.43378 47.5866 2.67059 47.0767 2.02772 46.4338C1.38486 45.7909 0.874905 45.0278 0.526988 44.1878C0.179071 43.3479 0 42.4476 0 41.5385V31.1538C0 28.5531 1.45154 26.3169 3.57 25.1308C3.51923 24.5469 3.46154 23.9631 3.46154 23.3654C3.46154 10.4608 14.31 0 27.6923 0C41.0746 0 51.9231 10.4608 51.9231 23.3654C51.9231 23.9654 51.8631 24.5469 51.8146 25.1331V25.1308ZM43.05 45C44.341 41.9927 45.0046 38.7535 45 35.4808C45 32.7069 44.52 30.0923 43.7169 27.6923H41.5385C40.6204 27.6923 39.7399 28.057 39.0908 28.7062C38.4416 29.3553 38.0769 30.2358 38.0769 31.1538V41.5385C38.0769 42.4565 38.4416 43.337 39.0908 43.9861C39.7399 44.6353 40.6204 45 41.5385 45H43.05ZM11.6677 27.6923C10.8207 30.2018 10.3874 32.8322 10.3846 35.4808C10.3846 38.9423 11.1138 42.1662 12.3346 45H13.8462C14.7642 45 15.6447 44.6353 16.2938 43.9861C16.943 43.337 17.3077 42.4565 17.3077 41.5385V31.1538C17.3077 30.2358 16.943 29.3553 16.2938 28.7062C15.6447 28.057 14.7642 27.6923 13.8462 27.6923H11.6677ZM51.9231 41.5385V31.1538C51.9231 30.6993 51.8335 30.2491 51.6596 29.8292C51.4856 29.4092 51.2306 29.0276 50.9092 28.7062C50.5878 28.3847 50.2062 28.1298 49.7862 27.9558C49.3662 27.7818 48.9161 27.6923 48.4615 27.6923H47.3746C48.0577 30.1131 48.4615 32.7231 48.4615 35.4808C48.4615 38.91 47.8546 42.1223 46.8277 45H48.4615C48.9161 45 49.3662 44.9105 49.7862 44.7365C50.2062 44.5625 50.5878 44.3076 50.9092 43.9861C51.2306 43.6647 51.4856 43.2831 51.6596 42.8631C51.8335 42.4432 51.9231 41.993 51.9231 41.5385ZM8.01231 27.6923H6.92308C6.4685 27.6923 6.01838 27.7818 5.5984 27.9558C5.17843 28.1298 4.79683 28.3847 4.4754 28.7062C4.15397 29.0276 3.89899 29.4092 3.72503 29.8292C3.55107 30.2491 3.46154 30.6993 3.46154 31.1538V41.5385C3.46154 41.993 3.55107 42.4432 3.72503 42.8631C3.89899 43.2831 4.15397 43.6647 4.4754 43.9861C4.79683 44.3076 5.17843 44.5625 5.5984 44.7365C6.01838 44.9105 6.4685 45 6.92308 45H8.55692C7.47218 41.9436 6.91956 38.7239 6.92308 35.4808C6.92308 32.7231 7.32923 30.1131 8.01231 27.6923Z" fill="#333303"/>
</svg>
