<svg width="60" height="56" viewBox="0 0 60 56" fill="none" xmlns="http://www.w3.org/2000/svg">
<path d="M40.7324 17.6806C40.3382 17.2863 39.814 17.0691 39.2562 17.0691C38.6985 17.0691 38.1738 17.2863 37.7797 17.6806L32.2834 23.177L26.7886 17.6822C26.3938 17.2877 25.8697 17.0707 25.312 17.0707C24.7542 17.0707 24.2298 17.2877 23.8355 17.6822C23.0213 18.4963 23.0213 19.8208 23.8355 20.635L27.2413 24.0412H23.9179C23.6945 24.0412 23.5137 24.2224 23.5137 24.4451V27.8132C23.5137 28.0363 23.6945 28.2175 23.9179 28.2175H30.196V31.0131H23.9179C23.6945 31.0131 23.5137 31.1943 23.5137 31.4174V34.7854C23.5137 35.0085 23.6945 35.1897 23.9179 35.1897H30.196V41.468C30.196 42.6194 31.1327 43.5561 32.2841 43.5561C33.4355 43.5561 34.3722 42.6194 34.3722 41.468V35.1897H40.6505C40.8736 35.1897 41.0548 35.0085 41.0548 34.7854V31.4174C41.0548 31.1943 40.8736 31.0131 40.6505 31.0131H34.3722V28.2173H40.6505C40.8736 28.2173 41.0548 28.0361 41.0548 27.8131V24.445C41.0548 24.2219 40.8736 24.0411 40.6505 24.0411H37.3253L40.7326 20.6338C41.5468 19.8196 41.5468 18.4947 40.7324 17.6806ZM57.8216 17.2294C56.426 13.9298 54.4285 10.9667 51.8845 8.42274C49.3404 5.87862 46.3775 3.88134 43.0779 2.48586C39.661 1.04058 36.0322 0.307617 32.2922 0.307617C28.5527 0.307617 24.924 1.04058 21.5072 2.48586C18.2076 3.88122 15.245 5.87898 12.7012 8.42274C10.1571 10.9669 8.15965 13.9298 6.76405 17.2294C6.19153 18.5828 5.72713 19.9835 5.37829 21.4071L3.99745 18.2996C3.66253 17.5462 2.91325 17.0589 2.08813 17.0589C1.79545 17.0589 1.51045 17.1196 1.24129 17.2393C0.73165 17.4656 0.34057 17.8769 0.14041 18.3977C-0.0597499 18.9183 -0.0455899 19.4855 0.18085 19.9954L4.46185 29.6305C4.48357 29.6807 4.50817 29.7325 4.53589 29.7839C4.53889 29.7896 4.54189 29.7952 4.54489 29.8009C4.56985 29.8463 4.59397 29.8874 4.61857 29.9264C4.62037 29.929 4.62301 29.933 4.62541 29.9368C4.64593 29.968 4.66861 30.0007 4.69261 30.0334C4.70185 30.0465 4.71337 30.0616 4.72501 30.0769C4.74109 30.0974 4.75681 30.1174 4.77349 30.137C4.79605 30.1647 4.82137 30.1933 4.84693 30.2206L4.85377 30.2284C4.86625 30.2417 4.87909 30.2554 4.89181 30.2685C4.90525 30.2819 4.91941 30.2956 4.93345 30.3089L4.93873 30.3143C4.95637 30.3307 4.97413 30.3473 4.99201 30.3634C5.00749 30.3771 5.02165 30.3896 5.03605 30.4015C5.06041 30.422 5.08717 30.4435 5.11453 30.4642C5.12281 30.4708 5.12965 30.4762 5.13625 30.4809C5.17285 30.508 5.21101 30.5342 5.25253 30.5609C5.25493 30.5627 5.25793 30.5645 5.26033 30.566C5.29717 30.5895 5.33617 30.6122 5.37613 30.6338L5.38909 30.641C5.47417 30.6867 5.56225 30.7267 5.65117 30.7597C5.65321 30.7606 5.65537 30.7612 5.65741 30.7621C5.69545 30.776 5.73529 30.7891 5.77873 30.8021L5.79157 30.806L5.80285 30.8092C5.84269 30.8205 5.87965 30.83 5.91529 30.8381L5.91673 30.8384L5.93401 30.8426C5.93641 30.8432 5.93905 30.8438 5.94169 30.8444C5.98129 30.8527 6.02329 30.8603 6.06601 30.8667C6.08029 30.8687 6.09517 30.8708 6.11005 30.8726L6.11785 30.8734C6.14317 30.8767 6.16813 30.8793 6.19309 30.8818L6.20173 30.8827C6.21961 30.8842 6.23713 30.8857 6.25501 30.8865C6.28033 30.8881 6.30577 30.8889 6.33169 30.8895L6.33745 30.8899C6.35137 30.8905 6.36541 30.8911 6.37933 30.8911C6.43441 30.8911 6.49153 30.8884 6.55393 30.8833L6.55777 30.8829C6.56041 30.8825 6.56293 30.8824 6.56557 30.8824C6.62233 30.877 6.67921 30.8693 6.73477 30.8597C6.74425 30.8579 6.75241 30.8565 6.76009 30.8553C6.81685 30.8445 6.86869 30.833 6.91777 30.8199C6.92581 30.8179 6.93385 30.8155 6.94213 30.8127C6.94369 30.8125 6.94453 30.8122 6.94597 30.8119C6.98665 30.8 7.02901 30.7865 7.07113 30.7717L7.07893 30.769C7.09141 30.7649 7.10389 30.7604 7.11637 30.7556C7.15381 30.7417 7.19041 30.7265 7.22557 30.7111C7.22701 30.7105 7.22881 30.7099 7.23025 30.7089C7.23649 30.7063 7.24213 30.7033 7.24813 30.7003C7.26589 30.6922 7.28077 30.6851 7.29589 30.6777C7.34533 30.6533 7.38877 30.6301 7.43005 30.6061C7.43629 30.6025 7.44289 30.5986 7.44937 30.5944L7.45441 30.5914C7.56805 30.523 7.67329 30.4454 7.76977 30.3597L15.7013 23.4106C16.5672 22.6519 16.6547 21.3299 15.8958 20.4638C15.4993 20.0114 14.9267 19.7517 14.3246 19.7517C13.8184 19.7517 13.33 19.9355 12.9492 20.2693L9.18337 23.5683C11.2902 12.6125 21.0312 4.48374 32.2921 4.48374C45.2674 4.48374 55.8233 15.0398 55.8233 28.0149C55.8233 40.9895 45.2673 51.5452 32.2921 51.5452C26.6777 51.5452 21.2412 49.5353 16.9837 45.8859C16.6054 45.5617 16.1229 45.3832 15.6252 45.3832C15.0143 45.3832 14.4364 45.6491 14.0392 46.1126C13.2899 46.9868 13.3913 48.3075 14.2656 49.0568C19.2797 53.3547 25.6816 55.7212 32.2921 55.7212C36.0317 55.7212 39.6606 54.9886 43.0777 53.5432C46.3774 52.1476 49.3403 50.1502 51.884 47.6065C54.4282 45.0626 56.4256 42.0997 57.8212 38.8C59.2669 35.3833 59.9999 31.7546 59.9999 28.015C59.9999 24.2755 59.2667 20.6465 57.8216 17.2294Z" fill="#333303"/>
</svg>
