<svg width="55" height="55" viewBox="0 0 55 55" fill="none" xmlns="http://www.w3.org/2000/svg">
<path d="M52.7083 4.33078C52.1005 4.33078 51.5177 4.57223 51.0879 5.002C50.6581 5.43177 50.4167 6.01466 50.4167 6.62245V12.3516C47.1536 7.43237 42.3943 3.69366 36.8423 1.68826C31.2903 -0.317137 25.2403 -0.482785 19.5869 1.21581C13.9335 2.91441 8.97668 6.38708 5.44936 11.1204C1.92203 15.8537 0.0114204 21.5965 0 27.4995C9.30388e-05 28.1073 0.241577 28.6901 0.671338 29.1198C1.1011 29.5495 1.68394 29.7909 2.29167 29.7909C2.89939 29.7909 3.48223 29.5495 3.912 29.1198C4.34176 28.6901 4.58324 28.1073 4.58333 27.4995C4.58401 22.4804 6.23247 17.6002 9.27548 13.6087C12.3185 9.61725 16.5878 6.73516 21.4275 5.40517C26.2672 4.07518 31.4098 4.37086 36.0652 6.2468C40.7206 8.12273 44.6314 11.4751 47.1969 15.7891H41.25C40.6422 15.7891 40.0593 16.0306 39.6295 16.4603C39.1998 16.8901 38.9583 17.473 38.9583 18.0808C38.9583 18.6886 39.1998 19.2715 39.6295 19.7012C40.0593 20.131 40.6422 20.3725 41.25 20.3725H52.7083C53.0093 20.3725 53.3073 20.3132 53.5853 20.198C53.8634 20.0828 54.116 19.914 54.3288 19.7012C54.5416 19.4884 54.7104 19.2358 54.8256 18.9578C54.9407 18.6797 55 18.3817 55 18.0808V6.62245C55 6.01466 54.7586 5.43177 54.3288 5.002C53.899 4.57223 53.3161 4.33078 52.7083 4.33078ZM52.7083 25.2079C52.1005 25.2079 51.5177 25.4493 51.0879 25.8791C50.6581 26.3089 50.4167 26.8917 50.4167 27.4995C50.416 32.5187 48.7675 37.3988 45.7245 41.3903C42.6815 45.3818 38.4122 48.2639 33.5725 49.5939C28.7328 50.9239 23.5902 50.6282 18.9348 48.7523C14.2794 46.8763 10.3686 43.5239 7.80312 39.21H13.75C14.3578 39.21 14.9407 38.9685 15.3705 38.5387C15.8002 38.109 16.0417 37.5261 16.0417 36.9183C16.0417 36.3105 15.8002 35.7276 15.3705 35.2978C14.9407 34.8681 14.3578 34.6266 13.75 34.6266H2.29167C1.68388 34.6266 1.10098 34.8681 0.671214 35.2978C0.241443 35.7276 0 36.3105 0 36.9183L0 48.3766C9.30388e-05 48.9843 0.241577 49.5672 0.671338 49.9968C1.1011 50.4265 1.68394 50.6679 2.29167 50.6679C2.89939 50.6679 3.48223 50.4265 3.912 49.9968C4.34176 49.5672 4.58324 48.9843 4.58333 48.3766V42.6475C7.84637 47.5667 12.6057 51.3054 18.1577 53.3108C23.7097 55.3162 29.7597 55.4819 35.4131 53.7833C41.0665 52.0847 46.0233 48.612 49.5506 43.8787C53.078 39.1453 54.9886 33.4026 55 27.4995C55 26.8917 54.7586 26.3089 54.3288 25.8791C53.899 25.4493 53.3161 25.2079 52.7083 25.2079Z" fill="#333303"/>
</svg>
