<svg width="20" height="20" viewBox="0 0 20 20" fill="none" xmlns="http://www.w3.org/2000/svg">
<g id="calls">
<g id="&#231;&#188;&#150;&#231;&#187;&#132; 8">
<path id="&#229;&#189;&#162;&#231;&#138;&#182;&#231;&#187;&#147;&#229;&#144;&#136;&#229;&#164;&#135;&#228;&#187;&#189;" d="M1 4.4873C2.37969 11.4816 7.75783 17.101 14.8542 18.9629M5.95838 7.63834C7.54317 10.1963 9.70652 12.3781 12.2875 14.0161" stroke="#6650F6"/>
<path id="&#229;&#189;&#162;&#231;&#138;&#182;&#231;&#187;&#147;&#229;&#144;&#136;&#229;&#164;&#135;&#228;&#187;&#189;_2" d="M0.5 4.48673C0.5 6.70349 2.35083 8.47345 4.60001 8.47345V7.47345C2.87273 7.47345 1.5 6.1213 1.5 4.48673H0.5ZM4.60001 0.5C2.35083 0.5 0.5 2.26997 0.5 4.48673H1.5C1.5 2.85215 2.87273 1.5 4.60001 1.5V0.5ZM8.70003 4.48673C8.70003 2.26997 6.8492 0.5 4.60001 0.5V1.5C6.3273 1.5 7.70003 2.85215 7.70003 4.48673H8.70003ZM4.60001 8.47345C6.8492 8.47345 8.70003 6.70349 8.70003 4.48673H7.70003C7.70003 6.1213 6.3273 7.47345 4.60001 7.47345V8.47345ZM11.3 15.5133C11.3 17.7301 13.1508 19.5 15.4 19.5L15.4 18.5C13.6727 18.5 12.3 17.1479 12.3 15.5133L11.3 15.5133ZM15.4 11.5266C13.1508 11.5266 11.3 13.2966 11.3 15.5133L12.3 15.5133C12.3 13.8787 13.6727 12.5266 15.4 12.5266L15.4 11.5266ZM19.5 15.5133C19.5 13.2966 17.6492 11.5266 15.4 11.5266L15.4 12.5266C17.1273 12.5266 18.5 13.8787 18.5 15.5133L19.5 15.5133ZM15.4 19.5C17.6492 19.5 19.5 17.7301 19.5 15.5133L18.5 15.5133C18.5 17.1479 17.1273 18.5 15.4 18.5L15.4 19.5Z" fill="#6650F6"/>
</g>
</g>
</svg>
