<svg width="20" height="19" viewBox="0 0 20 19" fill="none" xmlns="http://www.w3.org/2000/svg">
<g id="sms">
<path id="&#229;&#189;&#162;&#231;&#138;&#182;" fill-rule="evenodd" clip-rule="evenodd" d="M10.015 1C5.02053 1 1 4.40088 1 8.59362C1 11.1754 2.53939 13.4537 4.86357 14.8506L4.64077 17.6754C4.64077 17.9789 4.86011 18.191 5.14384 18.191C5.23841 18.191 5.33299 18.1599 5.39537 18.1307L8.06712 16.0647C8.69495 16.1853 9.32278 16.2164 9.98281 16.2164C14.9793 16.2164 18.9998 12.8155 18.9998 8.6228C19.03 4.40088 14.9793 1 10.015 1Z" stroke="#6650F6"/>
<g id="&#231;&#188;&#150;&#231;&#187;&#132; 9&#229;&#164;&#135;&#228;&#187;&#189;">
<path id="&#229;&#189;&#162;&#231;&#138;&#182;&#231;&#187;&#147;&#229;&#144;&#136;" fill-rule="evenodd" clip-rule="evenodd" d="M6.55449 9.49198C6.35975 9.6867 6.03531 9.81642 5.71091 9.81642C5.06203 9.81642 4.54297 9.29735 4.54297 8.6485C4.54297 7.99959 5.06203 7.48047 5.71091 7.48047C6.35986 7.48047 6.87892 7.99959 6.87892 8.6485C6.87892 8.97294 6.74909 9.23245 6.55449 9.49198ZM10.8929 9.49198C10.6982 9.6867 10.3738 9.81642 10.0493 9.81642C9.40047 9.81642 8.88141 9.29735 8.88141 8.6485C8.88141 7.99959 9.40047 7.48047 10.0493 7.48047C10.6983 7.48047 11.2174 7.99959 11.2174 8.6485C11.2174 8.97294 11.0875 9.23245 10.8929 9.49198ZM14.0537 9.81642C14.3781 9.81642 14.7025 9.6867 14.8973 9.49198C15.0919 9.23245 15.2217 8.97294 15.2217 8.6485C15.2217 7.99959 14.7026 7.48047 14.0537 7.48047C13.4048 7.48047 12.8857 7.99959 12.8857 8.6485C12.8857 9.29735 13.4048 9.81642 14.0537 9.81642Z" fill="#6650F6"/>
</g>
</g>
</svg>
