<svg width="20" height="24" viewBox="0 0 20 24" fill="none" xmlns="http://www.w3.org/2000/svg">
<g id="GPS">
<g id="GPS&#229;&#164;&#135;&#228;&#187;&#189; 2">
<path id="Fill 4" fill-rule="evenodd" clip-rule="evenodd" d="M9.99967 1C5.0371 1 1 5.04834 1 10.0242C1 16.6915 8.37741 21.2123 9.21882 22.1603C9.41705 22.3842 9.70123 22.5122 9.9998 22.5122C10.2984 22.5122 10.5826 22.3842 10.7808 22.1603C11.6222 21.2126 19 16.6915 19 10.0242C19 5.04834 14.9625 1 9.99967 1Z" stroke="#6650F6"/>
<path id="&#232;&#183;&#175;&#229;&#190;&#132;" fill-rule="evenodd" clip-rule="evenodd" d="M9.90703 13.286C8.21282 13.286 6.83398 11.9074 6.83398 10.2127C6.83398 8.51825 8.21282 7.13965 9.90703 7.13965C11.6018 7.13965 12.9803 8.51825 12.9803 10.2127C12.9804 11.9074 11.6018 13.286 9.90703 13.286Z" stroke="#6650F6"/>
</g>
</g>
</svg>
