<svg width="20" height="20" viewBox="0 0 20 20" fill="none" xmlns="http://www.w3.org/2000/svg">
<g id="photos">
<g id="&#229;&#189;&#162;&#231;&#138;&#182;&#231;&#187;&#147;&#229;&#144;&#136;">
<path id="&#232;&#146;&#153;&#231;&#137;&#136;" fill-rule="evenodd" clip-rule="evenodd" d="M6.30713 1L13.6929 1C16.6239 1 19 3.37608 19 6.30713L19 13.6929C19 16.6239 16.6239 19 13.6929 19L6.30713 19C3.37608 19 1 16.6239 1 13.6929L1 6.30713C1 3.37608 3.37608 1 6.30713 1Z" stroke="#6650F6"/>
<path id="&#229;&#189;&#162;&#231;&#138;&#182;&#231;&#187;&#147;&#229;&#144;&#136;_2" opacity="0.900036" d="M18.5497 15.0387L18.3925 14.8009L18.2324 14.5668C17.5588 13.6016 16.7985 12.7853 15.7983 12.7853C15.1243 12.7853 14.4767 13.1593 13.906 13.5867L13.7371 13.7163C13.7094 13.738 13.6819 13.7598 13.6545 13.7816L13.4145 13.9773L13.0425 14.2873L12.8379 14.4532L12.7098 14.5514C12.336 14.8287 12.0572 14.9418 11.9102 14.6571C9.88895 10.7416 7.96147 9.61621 6.27225 9.61621C5.8453 9.61621 5.41134 9.70129 4.96883 9.88897L4.80249 9.96419C3.71862 10.4849 2.58286 11.6282 1.37321 13.6479C1.37321 13.6479 1.34259 13.6951 1.18652 13.9656" stroke="#6650F6"/>
<circle id="&#230;&#164;&#173;&#229;&#156;&#134;&#229;&#189;&#162;" opacity="0.862335" cx="13.2838" cy="5.7438" r="1.94595" stroke="#6650F6"/>
</g>
</g>
</svg>
