<svg width="20" height="21" viewBox="0 0 20 21" fill="none" xmlns="http://www.w3.org/2000/svg">
<g id="clander">
<g id="calendar&#229;&#164;&#135;&#228;&#187;&#189; 2">
<path id="&#232;&#146;&#153;&#231;&#137;&#136;" d="M12.9879 4.25135H12.4879L12.4879 4.2531L12.9879 4.25135ZM4.54532 3.00653H5.04532V2.50653H4.54532V3.00653ZM7.31389 3.00653V2.50653L6.81389 2.50653V3.00653L7.31389 3.00653ZM12.7122 3.00653H13.2122L13.2122 2.50653L12.7122 2.50653L12.7122 3.00653ZM15.4829 3.00874L15.4829 2.50874H14.9829L14.9829 3.00874L15.4829 3.00874ZM6.53862 4.25135C6.53862 4.60136 6.25633 4.87698 5.92989 4.87698L5.92989 5.87698C6.82283 5.87698 7.53862 5.13932 7.53862 4.25135L6.53862 4.25135ZM6.53862 2.12564L6.53862 4.25135L7.53862 4.25135L7.53862 2.12564L6.53862 2.12564ZM5.92989 1.5C6.25633 1.5 6.53862 1.77563 6.53862 2.12564L7.53862 2.12564C7.53862 1.23767 6.82283 0.5 5.92989 0.5V1.5ZM5.32116 2.12564C5.32116 1.77563 5.60345 1.5 5.92989 1.5V0.5C5.03695 0.5 4.32116 1.23767 4.32116 2.12564L5.32116 2.12564ZM5.32116 4.25135L5.32116 2.12564L4.32116 2.12564L4.32116 4.25135H5.32116ZM5.92989 4.87698C5.60345 4.87698 5.32116 4.60136 5.32116 4.25135H4.32116C4.32116 5.13932 5.03695 5.87698 5.92989 5.87698L5.92989 4.87698ZM14.7053 4.25135C14.7053 4.60136 14.423 4.87698 14.0966 4.87698V5.87698C14.9895 5.87698 15.7053 5.13932 15.7053 4.25135H14.7053ZM14.7053 2.12564L14.7053 4.25135H15.7053L15.7053 2.12564L14.7053 2.12564ZM14.0966 1.5C14.423 1.5 14.7053 1.77563 14.7053 2.12564L15.7053 2.12564C15.7053 1.23767 14.9895 0.5 14.0966 0.5V1.5ZM13.4879 2.12564C13.4879 1.77563 13.7702 1.5 14.0966 1.5V0.5C13.2037 0.5 12.4879 1.23767 12.4879 2.12564L13.4879 2.12564ZM13.4879 4.25135L13.4879 2.12564L12.4879 2.12564L12.4879 4.25135L13.4879 4.25135ZM14.0966 4.87698C13.7717 4.87698 13.4891 4.60258 13.4879 4.24959L12.4879 4.2531C12.491 5.13809 13.2021 5.87698 14.0966 5.87698V4.87698ZM19.5 5.81952C19.5 4.00417 18.0378 2.50874 16.2314 2.50874V3.50874C17.4713 3.50874 18.5 4.54213 18.5 5.81952H19.5ZM19.5 6.88788V5.81952H18.5V6.88788H19.5ZM19.5 6.8967V6.88788H18.5V6.8967H19.5ZM19.5 16.7344L19.5 6.8967H18.5L18.5 16.7344H19.5ZM16.2314 20.0452C18.0378 20.0452 19.5 18.5498 19.5 16.7344H18.5C18.5 18.0118 17.4713 19.0452 16.2314 19.0452V20.0452ZM3.76856 20.0452L16.2314 20.0452V19.0452L3.76856 19.0452L3.76856 20.0452ZM0.5 16.7344C0.5 18.5498 1.96217 20.0452 3.76856 20.0452L3.76856 19.0452C2.52867 19.0452 1.5 18.0118 1.5 16.7344H0.5ZM0.5 5.81732L0.5 16.7344H1.5L1.5 5.81732H0.5ZM3.76856 2.50653C1.96217 2.50653 0.5 4.00197 0.5 5.81732H1.5C1.5 4.53993 2.52867 3.50653 3.76856 3.50653L3.76856 2.50653ZM4.54532 2.50653L3.76856 2.50653L3.76856 3.50653L4.54532 3.50653L4.54532 2.50653ZM5.04532 4.51766L5.04532 3.00653L4.04532 3.00653L4.04532 4.51766H5.04532ZM5.9296 5.42305C5.45128 5.42305 5.04532 5.02187 5.04532 4.51766H4.04532C4.04532 5.55983 4.88478 6.42305 5.9296 6.42305L5.9296 5.42305ZM6.81389 4.51766C6.81389 5.02187 6.40793 5.42305 5.9296 5.42305L5.9296 6.42305C6.97443 6.42305 7.81389 5.55983 7.81389 4.51766L6.81389 4.51766ZM6.81389 3.00653L6.81389 4.51766L7.81389 4.51766L7.81389 3.00653L6.81389 3.00653ZM12.7122 2.50653L7.31389 2.50653V3.50653L12.7122 3.50653L12.7122 2.50653ZM13.2122 4.51766V3.00653L12.2122 3.00653V4.51766H13.2122ZM14.0986 5.42526C13.6203 5.42526 13.2122 5.02187 13.2122 4.51766H12.2122C12.2122 5.55983 13.0538 6.42526 14.0986 6.42526V5.42526ZM14.9829 4.51986C14.9829 5.02407 14.5769 5.42526 14.0986 5.42526V6.42526C15.1434 6.42526 15.9829 5.56203 15.9829 4.51986H14.9829ZM14.9829 3.00874V4.51986H15.9829V3.00874L14.9829 3.00874ZM16.2314 2.50874L15.4829 2.50874L15.4829 3.50874L16.2314 3.50874V2.50874ZM15.7316 15.3313C15.7316 15.8355 15.3256 16.2367 14.8473 16.2367V17.2367C15.8921 17.2367 16.7316 16.3735 16.7316 15.3313H15.7316ZM15.7316 8.7206L15.7316 15.3313H16.7316L16.7316 8.7206H15.7316ZM15.2316 8.2206C15.5077 8.2206 15.7316 8.44445 15.7316 8.7206H16.7316C16.7316 7.89217 16.06 7.2206 15.2316 7.2206V8.2206ZM4.76868 8.2206L15.2316 8.2206V7.2206L4.76868 7.2206V8.2206ZM4.26868 8.7206C4.26868 8.44445 4.49254 8.2206 4.76868 8.2206V7.2206C3.94025 7.2206 3.26868 7.89217 3.26868 8.7206L4.26868 8.7206ZM4.26868 15.3313L4.26868 8.7206L3.26868 8.7206L3.26868 15.3313H4.26868ZM5.15296 16.2367C4.67464 16.2367 4.26868 15.8355 4.26868 15.3313H3.26868C3.26868 16.3735 4.10814 17.2367 5.15296 17.2367L5.15296 16.2367ZM14.8473 16.2367L5.15296 16.2367L5.15296 17.2367L14.8473 17.2367V16.2367ZM6.51381 10.4636C5.87121 10.4636 5.35028 10.9845 5.35028 11.6271H6.35028C6.35028 11.5368 6.4235 11.4636 6.51381 11.4636L6.51381 10.4636ZM8.2413 10.4636H6.51381L6.51381 11.4636H8.2413L8.2413 10.4636ZM9.40483 11.6271C9.40483 10.9845 8.8839 10.4636 8.2413 10.4636L8.2413 11.4636C8.33162 11.4636 8.40483 11.5368 8.40483 11.6271H9.40483ZM9.40483 13.3546V11.6271H8.40483L8.40483 13.3546H9.40483ZM8.2413 14.5181C8.8839 14.5181 9.40483 13.9972 9.40483 13.3546H8.40483C8.40483 13.4449 8.33162 13.5181 8.2413 13.5181V14.5181ZM6.51381 14.5181H8.2413V13.5181H6.51381V14.5181ZM5.35028 13.3546C5.35028 13.9972 5.87121 14.5181 6.51381 14.5181V13.5181C6.4235 13.5181 6.35028 13.4449 6.35028 13.3546H5.35028ZM5.35028 11.6271L5.35028 13.3546H6.35028L6.35028 11.6271H5.35028ZM11.4994 11.6271C11.4994 11.5368 11.5726 11.4636 11.6629 11.4636V10.4636C11.0203 10.4636 10.4994 10.9845 10.4994 11.6271H11.4994ZM11.4994 13.3546V11.6271H10.4994V13.3546H11.4994ZM11.6629 13.5181C11.5726 13.5181 11.4994 13.4449 11.4994 13.3546H10.4994C10.4994 13.9972 11.0203 14.5181 11.6629 14.5181L11.6629 13.5181ZM13.3904 13.5181H11.6629L11.6629 14.5181H13.3904L13.3904 13.5181ZM13.5539 13.3546C13.5539 13.4449 13.4807 13.5181 13.3904 13.5181L13.3904 14.5181C14.033 14.5181 14.5539 13.9972 14.5539 13.3546L13.5539 13.3546ZM13.5539 11.6271V13.3546L14.5539 13.3546V11.6271L13.5539 11.6271ZM13.3904 11.4636C13.4807 11.4636 13.5539 11.5368 13.5539 11.6271L14.5539 11.6271C14.5539 10.9845 14.033 10.4636 13.3904 10.4636V11.4636ZM11.6629 11.4636H13.3904V10.4636H11.6629V11.4636Z" fill="#6650F6"/>
<mask id="mask0_1475_2296" style="mask-type:alpha" maskUnits="userSpaceOnUse" x="0" y="0" width="20" height="21">
<path id="&#232;&#146;&#153;&#231;&#137;&#136;_2" d="M12.9879 4.25135H12.4879L12.4879 4.2531L12.9879 4.25135ZM4.54532 3.00653H5.04532V2.50653H4.54532V3.00653ZM7.31389 3.00653V2.50653L6.81389 2.50653V3.00653L7.31389 3.00653ZM12.7122 3.00653H13.2122L13.2122 2.50653L12.7122 2.50653L12.7122 3.00653ZM15.4829 3.00874L15.4829 2.50874H14.9829L14.9829 3.00874L15.4829 3.00874ZM16.2316 7.7206L16.7316 7.7206V7.2206L16.2316 7.2206V7.7206ZM3.76868 7.7206V7.2206L3.26868 7.2206V7.7206L3.76868 7.7206ZM6.53862 4.25135C6.53862 4.60136 6.25633 4.87698 5.92989 4.87698L5.92989 5.87698C6.82283 5.87698 7.53862 5.13932 7.53862 4.25135L6.53862 4.25135ZM6.53862 2.12564L6.53862 4.25135L7.53862 4.25135L7.53862 2.12564L6.53862 2.12564ZM5.92989 1.5C6.25633 1.5 6.53862 1.77563 6.53862 2.12564L7.53862 2.12564C7.53862 1.23767 6.82283 0.5 5.92989 0.5V1.5ZM5.32116 2.12564C5.32116 1.77563 5.60345 1.5 5.92989 1.5V0.5C5.03695 0.5 4.32116 1.23767 4.32116 2.12564L5.32116 2.12564ZM5.32116 4.25135L5.32116 2.12564L4.32116 2.12564L4.32116 4.25135H5.32116ZM5.92989 4.87698C5.60345 4.87698 5.32116 4.60136 5.32116 4.25135H4.32116C4.32116 5.13932 5.03695 5.87698 5.92989 5.87698L5.92989 4.87698ZM14.7053 4.25135C14.7053 4.60136 14.423 4.87698 14.0966 4.87698V5.87698C14.9895 5.87698 15.7053 5.13932 15.7053 4.25135H14.7053ZM14.7053 2.12564L14.7053 4.25135H15.7053L15.7053 2.12564L14.7053 2.12564ZM14.0966 1.5C14.423 1.5 14.7053 1.77563 14.7053 2.12564L15.7053 2.12564C15.7053 1.23767 14.9895 0.5 14.0966 0.5V1.5ZM13.4879 2.12564C13.4879 1.77563 13.7702 1.5 14.0966 1.5V0.5C13.2037 0.5 12.4879 1.23767 12.4879 2.12564L13.4879 2.12564ZM13.4879 4.25135L13.4879 2.12564L12.4879 2.12564L12.4879 4.25135L13.4879 4.25135ZM14.0966 4.87698C13.7717 4.87698 13.4891 4.60258 13.4879 4.24959L12.4879 4.2531C12.491 5.13809 13.2021 5.87698 14.0966 5.87698V4.87698ZM19.5 5.81952C19.5 4.00417 18.0378 2.50874 16.2314 2.50874V3.50874C17.4713 3.50874 18.5 4.54213 18.5 5.81952H19.5ZM19.5 6.88788V5.81952H18.5V6.88788H19.5ZM19.5 6.8967V6.88788H18.5V6.8967H19.5ZM19.5 16.7344L19.5 6.8967H18.5L18.5 16.7344H19.5ZM16.2314 20.0452C18.0378 20.0452 19.5 18.5498 19.5 16.7344H18.5C18.5 18.0118 17.4713 19.0452 16.2314 19.0452V20.0452ZM3.76856 20.0452L16.2314 20.0452V19.0452L3.76856 19.0452L3.76856 20.0452ZM0.5 16.7344C0.5 18.5498 1.96217 20.0452 3.76856 20.0452L3.76856 19.0452C2.52867 19.0452 1.5 18.0118 1.5 16.7344H0.5ZM0.5 5.81732L0.5 16.7344H1.5L1.5 5.81732H0.5ZM3.76856 2.50653C1.96217 2.50653 0.5 4.00197 0.5 5.81732H1.5C1.5 4.53993 2.52867 3.50653 3.76856 3.50653L3.76856 2.50653ZM4.54532 2.50653L3.76856 2.50653L3.76856 3.50653L4.54532 3.50653L4.54532 2.50653ZM5.04532 4.51766L5.04532 3.00653L4.04532 3.00653L4.04532 4.51766H5.04532ZM5.9296 5.42305C5.45128 5.42305 5.04532 5.02187 5.04532 4.51766H4.04532C4.04532 5.55983 4.88478 6.42305 5.9296 6.42305L5.9296 5.42305ZM6.81389 4.51766C6.81389 5.02187 6.40793 5.42305 5.9296 5.42305L5.9296 6.42305C6.97443 6.42305 7.81389 5.55983 7.81389 4.51766L6.81389 4.51766ZM6.81389 3.00653L6.81389 4.51766L7.81389 4.51766L7.81389 3.00653L6.81389 3.00653ZM12.7122 2.50653L7.31389 2.50653V3.50653L12.7122 3.50653L12.7122 2.50653ZM13.2122 4.51766V3.00653L12.2122 3.00653V4.51766H13.2122ZM14.0986 5.42526C13.6203 5.42526 13.2122 5.02187 13.2122 4.51766H12.2122C12.2122 5.55983 13.0538 6.42526 14.0986 6.42526V5.42526ZM14.9829 4.51986C14.9829 5.02407 14.5769 5.42526 14.0986 5.42526V6.42526C15.1434 6.42526 15.9829 5.56203 15.9829 4.51986H14.9829ZM14.9829 3.00874V4.51986H15.9829V3.00874L14.9829 3.00874ZM16.2314 2.50874L15.4829 2.50874L15.4829 3.50874L16.2314 3.50874V2.50874ZM15.7316 15.3313C15.7316 15.8355 15.3256 16.2367 14.8473 16.2367V17.2367C15.8921 17.2367 16.7316 16.3735 16.7316 15.3313H15.7316ZM15.7316 7.7206L15.7316 15.3313H16.7316L16.7316 7.7206L15.7316 7.7206ZM3.76868 8.2206L16.2316 8.2206V7.2206L3.76868 7.2206L3.76868 8.2206ZM4.26868 15.3313L4.26868 7.7206L3.26868 7.7206L3.26868 15.3313H4.26868ZM5.15296 16.2367C4.67464 16.2367 4.26868 15.8355 4.26868 15.3313H3.26868C3.26868 16.3735 4.10814 17.2367 5.15296 17.2367L5.15296 16.2367ZM14.8473 16.2367L5.15296 16.2367L5.15296 17.2367L14.8473 17.2367V16.2367ZM6.00472 8.93629C5.36212 8.93629 4.84119 9.45722 4.84119 10.0998H5.84119C5.84119 10.0095 5.91441 9.93629 6.00472 9.93629L6.00472 8.93629ZM6.85058 8.93629H6.00472L6.00472 9.93629L6.85058 9.93629L6.85058 8.93629ZM8.01411 10.0998C8.01411 9.45722 7.49318 8.93629 6.85058 8.93629L6.85058 9.93629C6.94089 9.93629 7.01411 10.0095 7.01411 10.0998H8.01411ZM8.01411 10.9788L8.01411 10.0998H7.01411L7.01411 10.9788H8.01411ZM6.85058 12.1423C7.49318 12.1423 8.01411 11.6214 8.01411 10.9788H7.01411C7.01411 11.0691 6.94089 11.1423 6.85058 11.1423V12.1423ZM6.00472 12.1423L6.85058 12.1423V11.1423L6.00472 11.1423V12.1423ZM4.84119 10.9788C4.84119 11.6214 5.36212 12.1423 6.00472 12.1423V11.1423C5.91441 11.1423 5.84119 11.0691 5.84119 10.9788H4.84119ZM4.84119 10.0998L4.84119 10.9788H5.84119L5.84119 10.0998H4.84119ZM5.84119 13.4089C5.84119 13.3186 5.91441 13.2454 6.00472 13.2454L6.00472 12.2454C5.36212 12.2454 4.84119 12.7663 4.84119 13.4089H5.84119ZM5.84119 14.2879V13.4089H4.84119L4.84119 14.2879H5.84119ZM6.00472 14.4514C5.91441 14.4514 5.84119 14.3782 5.84119 14.2879H4.84119C4.84119 14.9305 5.36212 15.4514 6.00472 15.4514L6.00472 14.4514ZM6.85058 14.4514L6.00472 14.4514L6.00472 15.4514L6.85058 15.4514L6.85058 14.4514ZM7.01411 14.2879C7.01411 14.3782 6.94089 14.4514 6.85058 14.4514L6.85058 15.4514C7.49318 15.4514 8.01411 14.9305 8.01411 14.2879H7.01411ZM7.01411 13.4089V14.2879H8.01411V13.4089H7.01411ZM6.85058 13.2454C6.94089 13.2454 7.01411 13.3186 7.01411 13.4089H8.01411C8.01411 12.7663 7.49318 12.2454 6.85058 12.2454L6.85058 13.2454ZM6.00472 13.2454L6.85058 13.2454L6.85058 12.2454L6.00472 12.2454L6.00472 13.2454ZM9.62652 8.93629C8.98393 8.93629 8.463 9.45722 8.463 10.0998H9.463C9.463 10.0095 9.53621 9.93629 9.62652 9.93629V8.93629ZM10.4724 8.93629H9.62652V9.93629L10.4724 9.93629V8.93629ZM11.6359 10.0998C11.6359 9.45722 11.115 8.93629 10.4724 8.93629V9.93629C10.5627 9.93629 10.6359 10.0095 10.6359 10.0998H11.6359ZM11.6359 10.9788V10.0998H10.6359V10.9788H11.6359ZM10.4724 12.1423C11.115 12.1423 11.6359 11.6214 11.6359 10.9788H10.6359C10.6359 11.0691 10.5627 11.1423 10.4724 11.1423V12.1423ZM9.62652 12.1423L10.4724 12.1423V11.1423L9.62652 11.1423V12.1423ZM8.463 10.9788C8.463 11.6214 8.98393 12.1423 9.62652 12.1423V11.1423C9.53621 11.1423 9.463 11.0691 9.463 10.9788H8.463ZM8.463 10.0998L8.463 10.9788H9.463V10.0998H8.463ZM9.463 13.4089C9.463 13.3186 9.53621 13.2454 9.62652 13.2454V12.2454C8.98393 12.2454 8.463 12.7663 8.463 13.4089H9.463ZM9.463 14.2879L9.463 13.4089H8.463V14.2879H9.463ZM9.62652 14.4514C9.53621 14.4514 9.463 14.3782 9.463 14.2879H8.463C8.463 14.9305 8.98393 15.4514 9.62652 15.4514V14.4514ZM10.4724 14.4514L9.62652 14.4514V15.4514L10.4724 15.4514V14.4514ZM10.6359 14.2879C10.6359 14.3782 10.5627 14.4514 10.4724 14.4514V15.4514C11.115 15.4514 11.6359 14.9305 11.6359 14.2879H10.6359ZM10.6359 13.4089L10.6359 14.2879H11.6359L11.6359 13.4089H10.6359ZM10.4724 13.2454C10.5627 13.2454 10.6359 13.3186 10.6359 13.4089H11.6359C11.6359 12.7663 11.115 12.2454 10.4724 12.2454V13.2454ZM9.62652 13.2454L10.4724 13.2454V12.2454L9.62652 12.2454V13.2454ZM13.2483 8.93629C12.6057 8.93629 12.0848 9.45722 12.0848 10.0998H13.0848C13.0848 10.0095 13.158 9.93629 13.2483 9.93629V8.93629ZM14.0942 8.93629H13.2483V9.93629L14.0942 9.93629V8.93629ZM15.2577 10.0998C15.2577 9.45722 14.7368 8.93629 14.0942 8.93629V9.93629C14.1845 9.93629 14.2577 10.0095 14.2577 10.0998H15.2577ZM15.2577 10.9788V10.0998H14.2577V10.9788H15.2577ZM14.0942 12.1423C14.7368 12.1423 15.2577 11.6214 15.2577 10.9788H14.2577C14.2577 11.0691 14.1845 11.1423 14.0942 11.1423V12.1423ZM13.2483 12.1423L14.0942 12.1423V11.1423L13.2483 11.1423V12.1423ZM12.0848 10.9788C12.0848 11.6214 12.6057 12.1423 13.2483 12.1423V11.1423C13.158 11.1423 13.0848 11.0691 13.0848 10.9788H12.0848ZM12.0848 10.0998V10.9788H13.0848V10.0998H12.0848ZM13.0848 13.4089C13.0848 13.3186 13.158 13.2454 13.2483 13.2454V12.2454C12.6057 12.2454 12.0848 12.7663 12.0848 13.4089H13.0848ZM13.0848 14.2879L13.0848 13.4089H12.0848L12.0848 14.2879H13.0848ZM13.2483 14.4514C13.158 14.4514 13.0848 14.3782 13.0848 14.2879H12.0848C12.0848 14.9305 12.6057 15.4514 13.2483 15.4514V14.4514ZM14.0942 14.4514L13.2483 14.4514V15.4514L14.0942 15.4514V14.4514ZM14.2577 14.2879C14.2577 14.3782 14.1845 14.4514 14.0942 14.4514V15.4514C14.7368 15.4514 15.2577 14.9305 15.2577 14.2879H14.2577ZM14.2577 13.4089L14.2577 14.2879H15.2577L15.2577 13.4089H14.2577ZM14.0942 13.2454C14.1845 13.2454 14.2577 13.3186 14.2577 13.4089H15.2577C15.2577 12.7663 14.7368 12.2454 14.0942 12.2454V13.2454ZM13.2483 13.2454L14.0942 13.2454V12.2454L13.2483 12.2454V13.2454Z" fill="white"/>
</mask>
<g mask="url(#mask0_1475_2296)">
</g>
</g>
</g>
</svg>
