<svg width="20" height="14" viewBox="0 0 20 14" fill="none" xmlns="http://www.w3.org/2000/svg">
<g id="email">
<g id="&#231;&#159;&#169;&#229;&#189;&#162;&#229;&#164;&#135;&#228;&#187;&#189; 7">
<rect id="&#232;&#146;&#153;&#231;&#137;&#136;" x="1" y="1" width="18" height="12" rx="1" stroke="#6650F6"/>
<mask id="mask0_1475_2380" style="mask-type:alpha" maskUnits="userSpaceOnUse" x="0" y="0" width="20" height="14">
<rect id="&#232;&#146;&#153;&#231;&#137;&#136;_2" x="1" y="1" width="18" height="12" rx="1" fill="white" stroke="white"/>
</mask>
<g mask="url(#mask0_1475_2380)">
<path id="&#231;&#159;&#169;&#229;&#189;&#162;&#229;&#164;&#135;&#228;&#187;&#189; 2" d="M6.59713 6.53276L1.24617 12.1067C0.874685 12.4936 0.874685 13.1048 1.24617 13.4917L9.27861 21.8589C9.67217 22.2688 10.3278 22.2688 10.7214 21.8589L18.7538 13.4917C19.1253 13.1048 19.1253 12.4936 18.7538 12.1067L13.4029 6.53276" stroke="#6650F6"/>
<path id="&#231;&#159;&#169;&#229;&#189;&#162;" fill-rule="evenodd" clip-rule="evenodd" d="M9.27861 -7.88527C9.67217 -8.29523 10.3278 -8.29523 10.7214 -7.88527L18.2447 -0.048475C18.6162 0.338487 18.6162 0.949627 18.2447 1.33659L10.7214 9.17339C10.3278 9.58334 9.67217 9.58335 9.27861 9.17339L1.75529 1.33659C1.3838 0.949627 1.3838 0.338487 1.75529 -0.0484746L9.27861 -7.88527Z" stroke="#6650F6"/>
</g>
</g>
</g>
</svg>
