<svg width="20" height="14" viewBox="0 0 20 14" fill="none" xmlns="http://www.w3.org/2000/svg">
<g id="icloud">
<g id="&#231;&#188;&#150;&#231;&#187;&#132; 2&#229;&#164;&#135;&#228;&#187;&#189;">
<path id="&#230;&#164;&#173;&#229;&#156;&#134;&#229;&#189;&#162;" d="M6.96815 3.6317C6.58055 3.39378 6.1281 3.25231 5.64245 3.24088C4.16041 3.206 2.93033 4.3954 2.89499 5.89747C2.88991 6.11325 2.90976 6.32374 2.95189 6.52612" stroke="#6650F6"/>
<path id="&#229;&#189;&#162;&#231;&#138;&#182;&#231;&#187;&#147;&#229;&#144;&#136;" d="M6.36827 5.80085C6.36827 5.80085 6.54816 4.29899 6.86779 3.65263C7.64561 2.07972 9.25095 1 11.1051 1C13.7212 1 15.842 3.14942 15.842 5.80085L15.8419 5.81532C17.6125 5.97694 19 7.48505 19 9.32161C19 11.266 17.4448 12.8422 15.5263 12.8422C15.4994 12.8422 15.4725 12.8419 15.4457 12.8413C15.4236 12.8419 15.4014 12.8422 15.3791 12.8422H4.62121C4.59608 12.8422 4.57104 12.8418 4.54611 12.8411C4.52203 12.8416 4.49788 12.8418 4.47368 12.8418C2.55522 12.8418 1 11.2656 1 9.32118C1 7.91496 1.81346 6.70129 2.98947 6.13719" stroke="#6650F6"/>
</g>
</g>
</svg>
