<svg width="49" height="51" viewBox="0 0 49 51" fill="none" xmlns="http://www.w3.org/2000/svg">
<g id="GPS">
<rect id="&#232;&#146;&#153;&#231;&#137;&#136;" x="0.015625" y="0.578125" width="48.9844" height="49.875" rx="16" fill="url(#paint0_linear_1407_537)"/>
<path id="Fill 4" fill-rule="evenodd" clip-rule="evenodd" d="M24.7584 9.48438C17.4367 9.48438 11.4805 15.4572 11.4805 22.7986C11.4805 32.6353 22.3649 39.3052 23.6063 40.7039C23.8988 41.0341 24.3181 41.223 24.7586 41.223C25.1991 41.223 25.6184 41.0341 25.9109 40.7039C27.1523 39.3056 38.0373 32.6353 38.0373 22.7986C38.0373 15.4572 32.0805 9.48438 24.7584 9.48438Z" fill="url(#paint1_linear_1407_537)"/>
<path id="&#232;&#183;&#175;&#229;&#190;&#132;" fill-rule="evenodd" clip-rule="evenodd" d="M24.6218 27.6112C22.1222 27.6112 20.0879 25.5772 20.0879 23.0769C20.0879 20.5769 22.1222 18.543 24.6218 18.543C27.1222 18.543 29.1561 20.5769 29.1561 23.0769C29.1562 25.5772 27.1222 27.6112 24.6218 27.6112Z" fill="#6D6EFF"/>
</g>
<defs>
<linearGradient id="paint0_linear_1407_537" x1="-17.5143" y1="26.0575" x2="26.4903" y2="67.4215" gradientUnits="userSpaceOnUse">
<stop stop-color="#6FB8FF"/>
<stop offset="1" stop-color="#6D32FF"/>
</linearGradient>
<linearGradient id="paint1_linear_1407_537" x1="5.9087" y1="24.5663" x2="28.1247" y2="42.9252" gradientUnits="userSpaceOnUse">
<stop stop-color="#FAFBFF"/>
<stop offset="1" stop-color="#8F91FF"/>
</linearGradient>
</defs>
</svg>
