<svg width="72" height="72" viewBox="0 0 72 72" fill="none" xmlns="http://www.w3.org/2000/svg"><path d="M36 72c19.882 0 36-16.118 36-36S55.882 0 36 0 0 16.118 0 36s16.118 36 36 36z" fill="#25D366"/><path fill-rule="evenodd" clip-rule="evenodd" d="M37.187 56.029h-.01a21.386 21.386 0 01-10.229-2.606L15.6 56.4l3.037-11.093a21.367 21.367 0 01-2.857-10.702C15.784 22.803 25.386 13.2 37.185 13.2a21.266 21.266 0 0115.143 6.278 21.277 21.277 0 016.264 15.144c-.005 11.8-9.604 21.402-21.406 21.407zm-9.713-6.481l.65.385a17.766 17.766 0 009.055 2.48h.008c9.806 0 17.788-7.981 17.792-17.792a17.685 17.685 0 00-5.206-12.588 17.671 17.671 0 00-12.58-5.217c-9.814 0-17.795 7.98-17.8 17.79a17.75 17.75 0 002.721 9.47l.423.673-1.797 6.565 6.734-1.766zM47.239 39.23c.373.18.625.302.732.482.134.223.134 1.294-.312 2.543-.445 1.25-2.582 2.39-3.61 2.544-.922.137-2.088.195-3.369-.212a30.73 30.73 0 01-3.05-1.127c-5.014-2.165-8.402-7.025-9.043-7.944a6.466 6.466 0 00-.094-.133l-.004-.005c-.283-.378-2.18-2.909-2.18-5.528 0-2.464 1.21-3.755 1.768-4.35l.104-.112c.49-.535 1.07-.67 1.427-.67.356 0 .713.004 1.025.02.038.002.078.001.12.001.311-.002.7-.004 1.083.917.148.354.364.88.591 1.433.46 1.121.969 2.36 1.058 2.538.134.268.223.58.045.937l-.075.153c-.134.273-.233.474-.46.74-.09.104-.182.216-.274.329a8.847 8.847 0 01-.528.608c-.268.266-.547.556-.235 1.091.312.536 1.386 2.287 2.976 3.706a13.815 13.815 0 003.948 2.495c.147.064.266.116.353.16.535.267.847.222 1.16-.134.311-.357 1.336-1.562 1.693-2.098.356-.535.713-.446 1.203-.267.49.178 3.12 1.472 3.655 1.74.105.052.202.1.293.143z" fill="#FDFDFD"/></svg>