<svg width="72" height="72" viewBox="0 0 72 72" fill="none" xmlns="http://www.w3.org/2000/svg"><path d="M0 36C0 16.118 16.118 0 36 0s36 16.118 36 36-16.118 36-36 36S0 55.882 0 36z" fill="url(#paint0_linear)"/><mask id="a" style="mask-type:alpha" maskUnits="userSpaceOnUse" x="0" y="0" width="72" height="72"><path fill-rule="evenodd" clip-rule="evenodd" d="M0 36C0 16.118 16.118 0 36 0s36 16.118 36 36-16.118 36-36 36S0 55.882 0 36z" fill="#fff"/></mask><g mask="url(#a)"><path fill-rule="evenodd" clip-rule="evenodd" d="M36.002 16.8c-5.215 0-5.87.023-7.917.116-2.044.094-3.44.417-4.66.892a9.402 9.402 0 00-3.401 2.214 9.425 9.425 0 00-2.216 3.4c-.476 1.222-.8 2.618-.892 4.661-.092 2.048-.116 2.703-.116 7.917 0 5.215.023 5.867.116 7.915.094 2.044.418 3.44.892 4.66a9.408 9.408 0 002.214 3.401 9.402 9.402 0 003.4 2.216c1.222.475 2.618.799 4.661.892 2.048.094 2.702.116 7.916.116 5.215 0 5.868-.022 7.916-.116 2.044-.093 3.44-.417 4.662-.892a9.394 9.394 0 003.399-2.216 9.425 9.425 0 002.216-3.4c.472-1.222.796-2.617.892-4.66.092-2.048.116-2.701.116-7.916 0-5.214-.024-5.869-.116-7.917-.096-2.044-.42-3.439-.892-4.66a9.423 9.423 0 00-2.216-3.4 9.384 9.384 0 00-3.4-2.215c-1.224-.475-2.62-.798-4.664-.892-2.048-.093-2.7-.116-7.916-.116h.006zm-1.723 3.46h1.723c5.126 0 5.734.018 7.758.11 1.872.086 2.888.399 3.565.662a5.938 5.938 0 012.206 1.436 5.95 5.95 0 011.437 2.208c.263.676.576 1.692.662 3.564.092 2.024.112 2.632.112 7.756 0 5.124-.02 5.732-.112 7.756-.086 1.872-.399 2.888-.662 3.564a5.937 5.937 0 01-1.437 2.206 5.938 5.938 0 01-2.206 1.436c-.676.264-1.693.576-3.565.661-2.024.092-2.632.112-7.758.112-5.127 0-5.735-.02-7.759-.112-1.872-.086-2.888-.399-3.565-.662a5.947 5.947 0 01-2.208-1.436 5.95 5.95 0 01-1.437-2.207c-.263-.676-.576-1.692-.661-3.564-.092-2.024-.11-2.632-.11-7.759 0-5.127.018-5.732.11-7.756.086-1.872.398-2.888.661-3.565a5.948 5.948 0 011.437-2.208c.672-.672 1.312-1.088 2.208-1.437.677-.264 1.693-.576 3.565-.662 1.772-.08 2.458-.104 6.036-.108v.005zm9.668 5.491a2.305 2.305 0 114.607.001 2.305 2.305 0 01-4.607 0zm-7.946.39c-5.445 0-9.86 4.414-9.86 9.86 0 5.445 4.416 9.857 9.86 9.857 5.446 0 9.86-4.412 9.86-9.858 0-5.445-4.414-9.86-9.86-9.86zm6.4 9.86a6.4 6.4 0 10-12.8 0 6.4 6.4 0 0012.8 0z" fill="#fff"/></g><defs><linearGradient id="paint0_linear" x1="4.834" y1="67.309" x2="71.547" y2="9.559" gradientUnits="userSpaceOnUse"><stop stop-color="#FD5"/><stop offset=".5" stop-color="#FF543E"/><stop offset="1" stop-color="#C837AB"/></linearGradient></defs></svg>