<svg width="72" height="72" viewBox="0 0 72 72" fill="none" xmlns="http://www.w3.org/2000/svg"><path d="M0 36C0 16.118 16.118 0 36 0s36 16.118 36 36-16.118 36-36 36S0 55.882 0 36z" fill="#FFE400"/><path d="M55.307 46.312c-6.969-3.373-8.08-8.581-8.129-8.968-.06-.468-.127-.836.389-1.312.498-.46 2.706-1.826 3.32-2.254 1.012-.708 1.458-1.415 1.13-2.285-.23-.601-.79-.827-1.38-.827-.186 0-.372.021-.553.062-1.113.241-2.194.799-2.82.95a.98.98 0 01-.23.03c-.333 0-.46-.148-.427-.55.078-1.216.244-3.59.052-5.808-.264-3.051-1.248-4.563-2.415-5.9-.564-.649-3.186-3.434-8.245-3.434-5.058 0-7.676 2.785-8.237 3.426-1.17 1.337-2.154 2.849-2.415 5.9-.192 2.218-.02 4.591.052 5.809.023.381-.094.55-.428.55a1 1 0 01-.23-.032c-.624-.15-1.705-.708-2.818-.95a2.559 2.559 0 00-.553-.061c-.592 0-1.15.23-1.38.827-.328.87.116 1.577 1.132 2.285.613.428 2.821 1.793 3.32 2.254.514.477.448.844.388 1.312-.05.392-1.161 5.6-8.129 8.968-.408.198-1.102.617.122 1.293 1.922 1.062 3.202.948 4.197 1.589.843.543.345 1.716.958 2.14.755.52 2.984-.038 5.864.913 2.415.796 3.882 3.044 8.163 3.044 4.282 0 5.791-2.258 8.163-3.044 2.875-.95 5.109-.393 5.864-.914.613-.423.115-1.596.959-2.14.994-.64 2.273-.526 4.196-1.588 1.223-.669.528-1.087.12-1.285z" fill="#fff"/><path fill-rule="evenodd" clip-rule="evenodd" d="M56.752 44.233c.679.377 1.274.832 1.587 1.683.35.952.136 2.03-.72 2.945l-.011.014a4.486 4.486 0 01-1.207.945 12.5 12.5 0 01-2.852 1.136c-.19.05-.37.133-.533.244-.17.15-.241.338-.329.571-.067.177-.143.38-.28.613a3.21 3.21 0 01-.948 1.035c-.929.641-1.973.682-3.079.724h-.003c-.998.038-2.13.081-3.422.508-.52.173-1.074.512-1.714.905l-.004.003c-1.56.955-3.695 2.262-7.24 2.262-3.548 0-5.668-1.302-7.216-2.255-.645-.4-1.202-.742-1.738-.92-1.293-.426-2.426-.47-3.425-.507-1.106-.043-2.15-.083-3.079-.725a3.198 3.198 0 01-.832-.846 3.378 3.378 0 01-.399-.8c-.088-.233-.159-.421-.329-.57a1.855 1.855 0 00-.568-.255 12.444 12.444 0 01-2.813-1.125 4.562 4.562 0 01-1.15-.87c-.912-.936-1.146-2.047-.788-3.023.407-1.104 1.287-1.546 2.21-2.009.159-.08.319-.16.477-.243 2.047-1.112 3.65-2.501 4.77-4.14.319-.462.596-.952.828-1.463.11-.3.107-.461.034-.612a1.02 1.02 0 00-.306-.307c-.35-.232-.708-.464-.953-.623l-.26-.17a34.131 34.131 0 01-.783-.52c-.868-.607-1.475-1.252-1.856-1.973a3.93 3.93 0 01-.19-3.266c.573-1.513 2.005-2.453 3.737-2.453.366 0 .73.039 1.087.116.095.02.19.042.283.066a32.471 32.471 0 01.1-3.202c.326-3.776 1.65-5.76 3.03-7.34a12.02 12.02 0 013.085-2.483C31.049 14.107 33.412 13.5 36 13.5s4.962.607 7.056 1.803a12.069 12.069 0 013.08 2.479c1.38 1.58 2.703 3.56 3.03 7.34.091 1.075.114 2.167.098 3.202.093-.025.189-.046.284-.067a5.14 5.14 0 011.087-.115c1.731 0 3.16.94 3.735 2.452a3.925 3.925 0 01-.194 3.263c-.38.721-.987 1.366-1.855 1.973-.23.164-.586.395-1.036.686l-.006.004c-.255.164-.63.408-.993.648a.945.945 0 00-.27.282c-.07.145-.075.304.023.583.236.523.518 1.023.843 1.495 1.145 1.676 2.796 3.09 4.91 4.211.108.056.216.11.323.164l.292.149c.1.046.218.106.346.18zm-4.206 4.382c.726-.194 1.586-.423 2.64-1.005 1.224-.681.53-1.1.118-1.306-6.969-3.367-8.08-8.576-8.129-8.968l-.006-.047c-.057-.446-.104-.805.395-1.265.338-.313 1.468-1.045 2.349-1.616.414-.268.774-.501.97-.638 1.015-.708 1.459-1.416 1.13-2.285-.23-.598-.787-.828-1.38-.828-.186.001-.37.022-.552.063-.656.142-1.301.394-1.848.608-.381.149-.715.28-.972.341a.976.976 0 01-.23.031c-.333 0-.454-.148-.427-.55l.008-.132c.081-1.25.229-3.536.044-5.676-.261-3.051-1.246-4.563-2.415-5.9-.561-.64-3.204-3.415-8.246-3.415-5.041 0-7.678 2.786-8.239 3.429-1.168 1.337-2.151 2.849-2.414 5.9-.177 2.038-.045 4.208.033 5.491l.018.318c.023.381-.094.549-.427.549a.993.993 0 01-.23-.031c-.256-.062-.589-.192-.97-.34-.546-.215-1.192-.467-1.848-.61a2.572 2.572 0 00-.553-.062c-.589 0-1.15.227-1.38.828-.329.87.117 1.576 1.131 2.285.197.137.557.37.972.64.881.57 2.01 1.302 2.348 1.614.498.46.452.82.394 1.267l-.006.045c-.05.386-1.16 5.595-8.128 8.968-.408.198-1.103.616.121 1.292 1.051.578 1.91.806 2.634.998.602.16 1.111.295 1.563.586.456.294.52.771.58 1.215.05.377.098.73.379.924.327.226.933.249 1.747.28 1.065.041 2.488.096 4.117.634.817.27 1.528.706 2.276 1.166 1.46.898 3.065 1.883 5.89 1.883 2.836 0 4.458-.995 5.922-1.893.741-.456 1.443-.886 2.241-1.15 1.632-.539 3.055-.593 4.119-.634.814-.031 1.418-.054 1.745-.28.282-.194.329-.547.38-.924.058-.444.122-.922.579-1.216.45-.29.958-.425 1.557-.584z" fill="#000"/></svg>