<svg width="48" height="16" viewBox="0 0 48 16" fill="none" xmlns="http://www.w3.org/2000/svg"><path d="M35.423 1.87l-.929 2.048h1.862l-.933-2.047zM24.706 3.14c.175-.084.278-.264.278-.489a.466.466 0 00-.284-.454c-.159-.083-.404-.092-.64-.092H22.4v1.14h1.64c.262 0 .481-.003.667-.106zM3.415 1.87l-.919 2.048h1.842l-.923-2.047zm42.751 13.117h-2.605v-1.102h2.595c.257 0 .437-.03.546-.127a.433.433 0 00.16-.335.406.406 0 00-.166-.34c-.097-.078-.24-.114-.475-.114-1.267-.039-2.848.036-2.848-1.59 0-.745.52-1.529 1.936-1.529h2.688V8.828H45.5c-.754 0-1.301.164-1.689.42v-.42h-3.694c-.59 0-1.283.133-1.611.42v-.42h-6.597v.42c-.525-.345-1.41-.42-1.82-.42h-4.35v.42c-.415-.366-1.34-.42-1.902-.42h-4.87l-1.113 1.097-1.044-1.097H9.536v7.168h7.137l1.148-1.114 1.081 1.114 4.4.004v-1.686h.432c.584.008 1.272-.013 1.88-.252v1.934h3.628v-1.868h.175c.223 0 .245.008.245.211v1.657h11.023c.7 0 1.432-.163 1.837-.459v.459h3.496c.728 0 1.438-.093 1.98-.33V14.33c-.328.436-.967.657-1.832.657zm-22.374-1.693h-1.684v1.723h-2.623l-1.661-1.7-1.727 1.7h-5.345V9.88h5.427l1.66 1.684 1.717-1.684h4.311c1.071 0 2.274.27 2.274 1.693 0 1.427-1.17 1.721-2.35 1.721zm8.096-.232c.19.25.218.484.223.937v1.018h-1.354v-.642c0-.31.032-.767-.218-1.006-.197-.184-.498-.228-.99-.228h-1.442v1.877H26.75V9.88h3.115c.683 0 1.18.028 1.623.243.426.234.694.555.694 1.14 0 .82-.6 1.239-.956 1.367.3.101.546.282.66.431zm5.574-2.12h-3.16v.935h3.083v1.048h-3.083v1.022l3.16.005v1.065h-4.504V9.88h4.504v1.063zm3.467 4.075h-2.628v-1.101h2.618c.256 0 .437-.031.551-.127a.438.438 0 00.16-.335.426.426 0 00-.165-.34c-.104-.079-.246-.114-.48-.114-1.263-.04-2.843.035-2.843-1.59 0-.745.515-1.53 1.93-1.53h2.704v1.094h-2.475c-.245 0-.405.008-.54.093-.148.083-.203.206-.203.37 0 .193.125.325.295.382.142.045.295.058.525.058l.727.018c.732.016 1.235.132 1.54.413.263.247.404.56.404 1.088 0 1.105-.759 1.621-2.12 1.621zm-10.465-3.991c-.163-.088-.404-.093-.644-.093h-1.662v1.154h1.64c.262 0 .486-.009.666-.106a.542.542 0 00.28-.493.482.482 0 00-.28-.462zm15.076-.093c-.245 0-.408.008-.546.093-.142.083-.197.206-.197.37 0 .193.12.325.295.382.143.045.296.058.52.058l.732.018c.738.016 1.23.132 1.53.414.055.038.088.082.126.127v-1.462h-2.46zm-21.702 0H22.08v1.308h1.744c.518 0 .84-.234.84-.678 0-.45-.337-.63-.825-.63zm-11.742 0v.934h2.962v1.048h-2.962v1.022h3.318l1.541-1.507-1.476-1.497h-3.383zm8.663 3.592v-4.118l-2.072 2.026 2.072 2.092zm-8.55-8.248v.886h11.274l-.006-1.873h.219c.152.005.197.018.197.247v1.626h5.83v-.436c.471.229 1.202.436 2.165.436h2.453l.525-1.141h1.164l.513 1.14h4.727V6.08l.716 1.084h3.788V0h-3.749v.846L41.5 0h-3.846v.846L37.17 0h-5.196c-.87 0-1.634.11-2.251.418V0h-3.586v.418C25.745.101 25.209 0 24.614 0h-13.1l-.879 1.85L9.732 0H5.606v.846L5.153 0H1.634L0 3.406V6.13L2.416.994h2.005l2.295 4.863V.994H8.92l1.765 3.484L12.307.994h2.246V6.13H13.17l-.005-4.022L11.21 6.13h-1.185L8.062 2.104V6.13H5.317L4.8 4.984H1.99L1.466 6.13H0v1.033h2.306l.52-1.14h1.163l.519 1.14h4.536v-.872l.405.876h2.355l.405-.89zm17.765-4.684c.436-.41 1.12-.6 2.05-.6h1.305v1.101H32.05c-.492 0-.77.067-1.038.304-.23.217-.388.625-.388 1.164 0 .55.12.947.371 1.206.208.203.586.265.94.265h.607l1.902-4.04h2.021l2.285 4.859V.994h2.055l2.372 3.577V.994h1.382V6.13h-1.912l-2.558-3.855V6.13H37.34l-.525-1.146h-2.803l-.51 1.146h-1.579c-.656 0-1.486-.132-1.956-.569-.475-.436-.721-1.026-.721-1.96 0-.762.147-1.458.727-2.008zm-2.776-.6h1.377V6.13h-1.377V.994zm-6.207 0h3.104c.689 0 1.197.017 1.634.247.426.23.682.564.682 1.137 0 .819-.6 1.242-.95 1.369.295.102.547.283.667.432.19.256.224.484.224.943V6.13H24.99l-.005-.648c0-.31.032-.754-.213-1-.197-.181-.498-.22-.984-.22H22.34V6.13h-1.349V.994zm-5.44 0h4.508v1.07h-3.158v.926h3.082v1.053h-3.082v1.025h3.158V6.13h-4.508V.994z" fill="#2557D6"/></svg>