<svg width="28" height="32" viewBox="0 0 28 32" fill="none" xmlns="http://www.w3.org/2000/svg">
<g id="android-fill">
<mask id="mask0_1433_1043" style="mask-type:alpha" maskUnits="userSpaceOnUse" x="0" y="0" width="28" height="32">
<path id="Clip 2" fill-rule="evenodd" clip-rule="evenodd" d="M0 0H27.1659V31.7065H0V0Z" fill="white"/>
</mask>
<g mask="url(#mask0_1433_1043)">
<path id="Fill 1" fill-rule="evenodd" clip-rule="evenodd" d="M5.02148 23.9818C5.02148 24.8097 5.69721 25.4856 6.5288 25.4856H8.2521V29.746C8.2521 30.8252 9.1189 31.7064 10.1841 31.7064C11.2527 31.7064 12.1161 30.8288 12.1161 29.746V25.4822H15.1238V29.7426C15.1238 30.8218 15.9909 31.7028 17.0559 31.7028C18.1245 31.7028 18.9878 30.8252 18.9878 29.7426V25.4822H20.7111C21.5427 25.4822 22.2185 24.8063 22.2185 23.9783V9.99414H5.02148V23.9818ZM17.6582 2.74739L19.2469 0.447361C19.339 0.312765 19.3177 0.132389 19.1938 0.0439268C19.07 -0.0410859 18.893 0.00142043 18.8011 0.135839L17.1521 2.52796C16.0659 2.09984 14.8557 1.86276 13.5853 1.86276C12.315 1.86276 11.1049 2.09984 10.0185 2.52796L8.3696 0.139466C8.27751 0.0050474 8.10058 -0.0410859 7.97669 0.0473768C7.85302 0.132389 7.83174 0.309315 7.92366 0.450811L9.51254 2.75084C6.986 3.92558 5.21674 6.1513 4.99023 8.75215H22.1874C21.9538 6.14785 20.1811 3.92213 17.6582 2.74739ZM9.95474 6.37455C9.43104 6.37455 9.00293 5.94989 9.00293 5.42274C9.00293 4.89886 9.42742 4.4707 9.95474 4.4707C10.4784 4.4707 10.9066 4.89541 10.9066 5.42274C10.903 5.94989 10.4784 6.37455 9.95474 6.37455ZM17.3287 6.37436C16.805 6.37436 16.3768 5.9497 16.3768 5.42255C16.3768 4.89867 16.8015 4.47051 17.3287 4.47051C17.8524 4.47051 18.2805 4.89522 18.2805 5.42255C18.277 5.9497 17.8524 6.37436 17.3287 6.37436ZM25.2337 9.93759C24.165 9.93759 23.3016 10.8151 23.3016 11.8979V19.5553C23.3016 20.6345 24.1686 21.5157 25.2337 21.5157C26.3023 21.5157 27.1656 20.6381 27.1656 19.5553V11.8943C27.1693 10.8117 26.3059 9.93759 25.2337 9.93759ZM1.9291 9.93759C0.860466 9.93759 -0.00292969 10.8151 -0.00292969 11.8979V19.5553C-0.00292969 20.6345 0.864093 21.5157 1.9291 21.5157C2.99773 21.5157 3.86108 20.6381 3.86108 19.5553V11.8943C3.86108 10.8117 2.99428 9.93759 1.9291 9.93759Z" fill="#4126F4"/>
</g>
</g>
</svg>
