<svg width="40" height="8" viewBox="0 0 40 8" fill="none" xmlns="http://www.w3.org/2000/svg"><path d="M24.58 3.982a3.321 3.321 0 00-.967-2.37 3.32 3.32 0 00-2.375-.966h-.012A3.332 3.332 0 0017.87 4a3.355 3.355 0 003.355 3.355A3.332 3.332 0 0024.58 4v-.018z" fill="#F26E21"/><path d="M17.247 5.42c-.501.502-.964.698-1.462.708-1.215-.01-2.107-.91-2.107-2.192 0-.646.244-1.175.631-1.626a1.97 1.97 0 011.369-.568c.58 0 1.032.194 1.548.71V.968C16.71.71 16.258.581 15.678.581c-.82.059-1.594.39-2.187.91-.17.154-.335.324-.474.518a3.252 3.252 0 00-.695 1.992c0 1.87 1.485 3.29 3.355 3.29l.027-.001h.038c.516 0 .968-.128 1.548-.386l-.043-1.484c-.021.021.022.042 0 .062V5.42zm11.569-3.915l-1.461 3.592L25.677.84h-1.354l2.645 6.516h.71L30.451.839h-1.355l-.281.666zm2.152 2.173v3.484h3.548V6.129h-2.257V4.388h2.193V3.29h-2.194V1.936h2.258V.839h-3.548v2.839zM1.807.839H0v6.323h1.807c.967 0 1.677-.259 2.257-.71A3.19 3.19 0 005.226 4c0-1.872-1.355-3.162-3.42-3.162zM3.29 5.613c-.387.323-.903.516-1.677.516h-.387V1.936h.322c.775 0 1.29.129 1.678.516.452.386.71.967.71 1.548a1.929 1.929 0 01-.646 1.613zM7.033.838H5.807v6.323h1.226V.838zM10.13 3.29c-.775-.258-.969-.451-.969-.774 0-.387.387-.71.904-.71.387 0 .71.13 1.032.517l.645-.839a2.81 2.81 0 00-1.87-.71c-1.098 0-2.001.775-2.001 1.807 0 .903.387 1.29 1.549 1.742.516.193.71.258.839.387a.71.71 0 01.386.645c0 .516-.386.903-.967.903a1.504 1.504 0 01-1.355-.838l-.775.774c.581.838 1.29 1.225 2.194 1.225 1.29 0 2.193-.838 2.193-2.064 0-1.097-.386-1.548-1.806-2.065zM38 4.516c.968-.193 1.484-.839 1.484-1.806 0-1.161-.839-1.871-2.258-1.871h-1.871v6.323h1.226V4.645h.194l1.741 2.517H40l-2-2.646zm-1.032-.774h-.387V1.807h.387c.774 0 1.226.322 1.226.968 0 .645-.452.967-1.226.967z" fill="#2B2B2B"/></svg>