<svg width="32" height="32" viewBox="0 0 32 32" fill="none" xmlns="http://www.w3.org/2000/svg">
<path d="M6.6905 16C6.6905 14.984 6.86383 14.0093 7.1705 13.096L1.7865 9.06934C0.704766 11.2193 0.143021 13.5932 0.1465 16C0.1465 18.4907 0.735834 20.84 1.78383 22.9253L7.16517 18.892C6.85139 17.9601 6.69108 16.9833 6.6905 16Z" fill="#FBBC05"/>
<path d="M16.1471 6.75547C18.4004 6.75547 20.4364 7.5368 22.0364 8.8168L26.6911 4.26614C23.8551 1.8488 20.2191 0.355469 16.1471 0.355469C9.82444 0.355469 4.38978 3.89547 1.78711 9.0688L7.17378 13.0955C8.41378 9.40747 11.9498 6.75547 16.1471 6.75547Z" fill="#EA4335"/>
<path d="M16.1471 25.2443C11.9484 25.2443 8.41244 22.5923 7.17111 18.9043L1.78711 22.931C4.38844 28.1043 9.82311 31.6443 16.1471 31.6443C20.0484 31.6443 23.7738 30.2883 26.5711 27.7456L21.4591 23.8763C20.0178 24.7656 18.2018 25.2443 16.1458 25.2443" fill="#34A853"/>
<path d="M31.4188 16.0003C31.4188 15.0763 31.2722 14.0803 31.0548 13.1562H16.1455V19.2003H24.7268C24.2988 21.2616 23.1308 22.8456 21.4602 23.8763L26.5708 27.7456C29.5082 25.0763 31.4188 21.1003 31.4188 16.0003Z" fill="#4285F4"/>
</svg>
