<svg width="26" height="26" viewBox="0 0 26 26" fill="none" xmlns="http://www.w3.org/2000/svg">
<path opacity="0.8" d="M12.2694 2.24621C12.6647 1.8233 13.3353 1.8233 13.7306 2.24621L15.3801 4.01108C15.9715 4.64387 16.8075 4.99016 17.6732 4.96091L20.0875 4.87932C20.666 4.85977 21.1402 5.334 21.1207 5.91252L21.0391 8.32684C21.0098 9.19248 21.3561 10.0285 21.9889 10.6199L23.7538 12.2694C24.1767 12.6647 24.1767 13.3353 23.7538 13.7306L21.9889 15.3801C21.3561 15.9715 21.0098 16.8075 21.0391 17.6732L21.1207 20.0875C21.1402 20.666 20.666 21.1402 20.0875 21.1207L17.6732 21.0391C16.8075 21.0098 15.9715 21.3561 15.3801 21.9889L13.7306 23.7538C13.3353 24.1767 12.6647 24.1767 12.2694 23.7538L10.6199 21.9889C10.0285 21.3561 9.19248 21.0098 8.32684 21.0391L5.91252 21.1207C5.33399 21.1402 4.85977 20.666 4.87932 20.0875L4.96091 17.6732C4.99016 16.8075 4.64387 15.9715 4.01108 15.3801L2.24621 13.7306C1.8233 13.3353 1.8233 12.6647 2.24621 12.2694L4.01108 10.6199C4.64387 10.0285 4.99016 9.19248 4.96091 8.32684L4.87932 5.91252C4.85977 5.334 5.334 4.85977 5.91252 4.87932L8.32684 4.96091C9.19248 4.99016 10.0285 4.64387 10.6199 4.01108L12.2694 2.24621Z" stroke="#2405F2" stroke-width="2"/>
<path fill-rule="evenodd" clip-rule="evenodd" d="M21.3849 7.39666C21.0465 7.05821 20.4977 7.05821 20.1593 7.39666L13.214 14.342L11.376 12.504C11.0375 12.1655 10.4888 12.1655 10.1503 12.504C9.81186 12.8424 9.81186 13.3912 10.1503 13.7296L12.5348 16.1141C12.5542 16.1383 12.5752 16.1616 12.5976 16.184C12.909 16.4954 13.3983 16.5203 13.7382 16.2588C13.7692 16.2352 13.799 16.2093 13.8273 16.1809C13.8354 16.1728 13.8433 16.1645 13.8511 16.1562L21.3849 8.62232C21.7234 8.28386 21.7234 7.73512 21.3849 7.39666Z" fill="#5037F5"/>
</svg>
