<svg width="26" height="31" viewBox="0 0 26 31" fill="none" xmlns="http://www.w3.org/2000/svg">
<g id="ai-ios">
<mask id="mask0_1433_1038" style="mask-type:alpha" maskUnits="userSpaceOnUse" x="0" y="0" width="26" height="31">
<path id="Clip 2" fill-rule="evenodd" clip-rule="evenodd" d="M0 0H25.6461V30.0456H0V0Z" fill="white"/>
</mask>
<g mask="url(#mask0_1433_1038)">
<path id="Fill 1" fill-rule="evenodd" clip-rule="evenodd" d="M21.4192 15.9657C21.4629 20.5092 25.5982 22.0211 25.6463 22.0421C25.6088 22.1461 24.9837 24.1972 23.4642 26.3161C22.1511 28.1472 20.7912 29.9681 18.6452 30.0056C16.5339 30.0433 15.8578 28.8129 13.4453 28.8129C11.0342 28.8129 10.2798 29.9681 8.28432 30.0433C6.21524 30.1186 4.63696 28.0674 3.31319 26.2438C0.605522 22.5121 -1.46066 15.7006 1.31628 11.103C2.69426 8.81843 5.15949 7.37428 7.83257 7.33518C9.86714 7.30052 11.7887 8.64381 13.0295 8.64381C14.275 8.64381 16.6076 7.02944 19.0608 7.26583C20.0865 7.30654 22.9704 7.66039 24.8211 10.2417C24.6735 10.3335 21.3801 12.1588 21.4192 15.9657ZM12.7811 6.92432C12.5431 5.19706 13.4347 3.40192 14.4527 2.27396C15.5897 1.00447 17.5082 0.0601866 19.0925 0C19.2958 1.75891 18.5519 3.52541 17.4541 4.79791C16.3532 6.06601 14.549 7.0554 12.7811 6.92432Z" fill="white"/>
</g>
</g>
</svg>
