<svg width="32" height="26" viewBox="0 0 32 26" fill="none" xmlns="http://www.w3.org/2000/svg"><path d="M32 20.35a4.977 4.977 0 01-4.977 4.977H0V5.652A4.977 4.977 0 014.978.674H32v19.675z" fill="#fff"/><path d="M23.19 13.432c.772.017 1.548-.034 2.317.027.779.145.966 1.323.275 1.71-.472.254-1.033.094-1.544.139H23.19v-1.876zm2.763-2.123c.172.605-.412 1.149-.995 1.065H23.19c.013-.57-.024-1.19.018-1.73.709.02 1.423-.042 2.128.03a.842.842 0 01.617.635zm4.256-8.976c.032 1.156.004 2.373.014 3.552-.002 4.795.004 9.59-.004 14.385-.031 1.797-1.624 3.358-3.408 3.394-1.786.008-3.573.002-5.36.003V16.42c1.947-.01 3.895.02 5.84-.016.903-.056 1.892-.652 1.933-1.645.107-.998-.834-1.688-1.727-1.797-.343-.009-.333-.1 0-.14.852-.184 1.52-1.065 1.27-1.948-.213-.929-1.24-1.288-2.093-1.286-1.74-.012-3.482-.002-5.222-.005.011-1.354-.024-2.708.018-4.06.138-1.765 1.771-3.22 3.53-3.189h5.209z" fill="url(#paint0_linear_2722_3849)"/><path d="M1.782 5.704c.045-1.794 1.644-3.343 3.426-3.37 1.78-.005 3.56 0 5.34-.002-.005 6.003.01 12.007-.008 18.01-.068 1.772-1.65 3.29-3.413 3.322-1.783.007-3.566.001-5.35.003v-7.493c1.733.409 3.549.583 5.316.312 1.056-.17 2.212-.689 2.57-1.785.262-.937.114-1.923.153-2.886V9.582H6.76c-.014 1.478.028 2.958-.023 4.434-.082.907-.98 1.483-1.836 1.453-1.06.01-3.163-.77-3.163-.77-.006-2.768.03-6.235.045-8.994z" fill="url(#paint1_linear_2722_3849)"/><path d="M11.688 10.483c-.16.034-.032-.549-.073-.77.01-1.396-.023-2.795.018-4.19.138-1.773 1.783-3.232 3.55-3.19h5.202c-.005 6.003.01 12.006-.007 18.009-.069 1.772-1.65 3.291-3.413 3.323-1.784.006-3.567 0-5.35.002v-8.21c1.218 1 2.873 1.155 4.39 1.158 1.144 0 2.281-.177 3.392-.44V14.67c-1.252.624-2.723 1.02-4.111.662-.968-.24-1.67-1.176-1.655-2.175-.112-1.04.497-2.136 1.518-2.445 1.267-.397 2.649-.093 3.837.423.254.133.513.298.41-.127V9.826c-1.986-.473-4.101-.647-6.097-.133-.578.163-1.141.41-1.61.79z" fill="url(#paint2_linear_2722_3849)"/><defs><linearGradient id="paint0_linear_2722_3849" x1="21.392" y1="12.544" x2="30.168" y2="12.544" gradientUnits="userSpaceOnUse"><stop stop-color="#007B40"/><stop offset="1" stop-color="#55B330"/></linearGradient><linearGradient id="paint1_linear_2722_3849" x1="1.591" y1="13.204" x2="10.404" y2="13.204" gradientUnits="userSpaceOnUse"><stop stop-color="#1D2970"/><stop offset="1" stop-color="#006DBA"/></linearGradient><linearGradient id="paint2_linear_2722_3849" x1="11.602" y1="12.751" x2="20.384" y2="12.751" gradientUnits="userSpaceOnUse"><stop stop-color="#6E2B2F"/><stop offset="1" stop-color="#E30138"/></linearGradient></defs></svg>