<?xml version="1.0" encoding="UTF-8"?>
<svg width="150px" height="43px" viewBox="0 0 150 43" version="1.1" xmlns="http://www.w3.org/2000/svg" xmlns:xlink="http://www.w3.org/1999/xlink">
    <title>SPYX备份 2</title>
    <g id="主题" stroke="none" stroke-width="1" fill="none" fill-rule="evenodd">
        <g id="修改主题" transform="translate(-862.000000, -1255.000000)" fill="#FFFFFF" fill-rule="nonzero">
            <g id="渐变背景备份" transform="translate(365.000000, 713.000000)">
                <path d="M513.881657,585 C516.970414,585 519.757396,584.519309 522.242604,583.557927 C524.727811,582.596545 526.671598,581.24187 528.073964,579.493902 C529.476331,577.745935 530.177515,575.735772 530.177515,573.463415 C530.177515,570.736585 529.485207,568.577846 528.100592,566.987195 C526.715976,565.396545 525.073964,564.242886 523.174556,563.52622 C521.275148,562.809553 518.869822,562.136585 515.95858,561.507317 C514.112426,561.087805 512.674556,560.720732 511.64497,560.406098 C510.615385,560.091463 509.763314,559.663211 509.088757,559.121341 C508.414201,558.579472 508.076923,557.889024 508.076923,557.05 C508.076923,555.826423 508.565089,554.856301 509.54142,554.139634 C510.517751,553.422967 511.822485,553.064634 513.455621,553.064634 C514.485207,553.064634 515.408284,553.248171 516.224852,553.615244 C517.04142,553.982317 517.698225,554.497967 518.195266,555.162195 C518.940828,556.141057 519.464497,556.805285 519.766272,557.154878 C520.068047,557.504472 520.467456,557.810366 520.964497,558.072561 C521.461538,558.334756 522.100592,558.465854 522.881657,558.465854 L522.881657,558.465854 L525.011834,558.465854 C526.218935,558.465854 527.204142,558.194919 527.967456,557.653049 C528.730769,557.111179 529.112426,556.368293 529.112426,555.42439 C529.112426,555.074797 529.023669,554.602846 528.846154,554.008537 C527.852071,551.316667 525.988166,549.166667 523.254438,547.558537 C520.52071,545.950407 517.254438,545.146341 513.455621,545.146341 C510.43787,545.146341 507.739645,545.627033 505.360947,546.588415 C502.982249,547.549797 501.118343,548.913211 499.769231,550.678659 C498.420118,552.444106 497.745562,554.463008 497.745562,556.735366 C497.745562,559.147561 498.37574,561.070325 499.636095,562.503659 C500.89645,563.936992 502.414201,564.994512 504.189349,565.67622 C505.964497,566.357927 508.254438,567.030894 511.059172,567.695122 C513.08284,568.184553 514.671598,568.630285 515.825444,569.032317 C516.97929,569.43435 517.928994,569.95874 518.674556,570.605488 C519.420118,571.252236 519.792899,572.1 519.792899,573.14878 C519.792899,574.337398 519.251479,575.290041 518.168639,576.006707 C517.085799,576.723374 515.656805,577.081707 513.881657,577.081707 C512.639053,577.081707 511.502959,576.880691 510.473373,576.478659 C509.443787,576.076626 508.609467,575.508537 507.970414,574.77439 C507.757396,574.529675 507.420118,574.127642 506.95858,573.568293 C506.497041,573.008943 506.008876,572.554472 505.494083,572.204878 C504.97929,571.855285 504.242604,571.680488 503.284024,571.680488 L503.284024,571.680488 L501.100592,571.680488 C499.893491,571.680488 498.908284,571.951423 498.14497,572.493293 C497.381657,573.035163 497,573.760569 497,574.669512 C497,575.123984 497.106509,575.613415 497.319527,576.137805 C498.455621,578.829675 500.497041,580.979675 503.443787,582.587805 C506.390533,584.195935 509.869822,585 513.881657,585 Z M540.251479,583.95122 C541.636095,583.95122 542.692308,583.592886 543.420118,582.87622 C544.147929,582.159553 544.511834,581.119512 544.511834,579.756098 L544.511834,572.204878 L553.831361,572.204878 C558.37574,572.204878 561.97929,571.086179 564.642012,568.84878 C567.304734,566.611382 568.636095,563.48252 568.636095,559.462195 C568.636095,555.267073 567.304734,552.007114 564.642012,549.682317 C561.97929,547.35752 558.37574,546.195122 553.831361,546.195122 L538.440828,546.195122 C537.056213,546.195122 536,546.553455 535.272189,547.270122 C534.544379,547.986789 534.180473,549.026829 534.180473,550.390244 L534.180473,579.756098 C534.180473,581.119512 534.544379,582.159553 535.272189,582.87622 C536,583.592886 537.056213,583.95122 538.440828,583.95122 L540.251479,583.95122 Z M551.754438,563.971951 L544.511834,563.971951 L544.511834,555.004878 L551.754438,555.004878 C556.085799,555.004878 558.251479,556.49065 558.251479,559.462195 C558.251479,562.468699 556.085799,563.971951 551.754438,563.971951 L551.754438,563.971951 Z M585.695266,583.95122 C587.079882,583.95122 588.136095,583.592886 588.863905,582.87622 C589.591716,582.159553 589.955621,581.119512 589.955621,579.756098 L589.955621,579.756098 L589.955621,567.537805 L600.446746,551.281707 C601.050296,550.337805 601.352071,549.463821 601.352071,548.659756 C601.352071,547.89065 601.076923,547.287602 600.526627,546.85061 C599.976331,546.413618 599.168639,546.195122 598.10355,546.195122 L598.10355,546.195122 L595.813609,546.195122 C594.642012,546.195122 593.656805,546.422358 592.857988,546.876829 C592.059172,547.331301 591.357988,548.047967 590.754438,549.026829 L590.754438,549.026829 L584.789941,558.832927 L578.718935,549.026829 C578.115385,548.047967 577.405325,547.331301 576.588757,546.876829 C575.772189,546.422358 574.778107,546.195122 573.606509,546.195122 L573.606509,546.195122 L571.955621,546.195122 C570.784024,546.195122 569.878698,546.431098 569.239645,546.903049 C568.600592,547.375 568.281065,548.013008 568.281065,548.817073 C568.281065,549.586179 568.565089,550.407724 569.133136,551.281707 L569.133136,551.281707 L579.62426,567.537805 L579.62426,579.756098 C579.62426,581.119512 579.988166,582.159553 580.715976,582.87622 C581.443787,583.592886 582.5,583.95122 583.884615,583.95122 L583.884615,583.95122 L585.695266,583.95122 Z M609.952663,546.195122 C611.088757,546.195122 612.189794,546.352152 612.881657,546.771951 C613.573519,547.19175 614.377586,547.972802 615.118343,548.659756 C617.666222,551.158905 619.574275,553.923054 620.842502,556.952202 C622.331724,562.570258 624.901433,565.47297 629.763314,567.032831 C633.358435,567.878236 638.440189,575.943547 639.269231,577.377871 C640.098272,578.812195 640.450049,580.477122 640.450049,581.434146 C640.450049,582.391171 639.869622,582.864383 639.269231,583.269512 C638.66884,583.674641 637.236334,583.95122 636.579882,583.95122 L636.579882,583.95122 L634.928994,583.95122 C633.792899,583.95122 632.816568,583.750203 632,583.348171 C631.183432,582.946138 630.43787,582.30813 629.763314,581.434146 L629.763314,581.434146 L622.467456,572.257317 L615.118343,581.486585 C614.443787,582.360569 613.698225,582.989837 612.881657,583.37439 C612.065089,583.758943 611.088757,583.95122 609.952663,583.95122 L609.952663,583.95122 L608.301775,583.95122 C607.16568,583.95122 606.269231,583.723984 605.612426,583.269512 C604.955621,582.815041 604.627219,582.220732 604.627219,581.486585 C604.627219,580.68252 605.017751,579.791057 605.798817,578.812195 L605.798817,578.812195 L616.715976,565.073171 L605.798817,551.334146 C605.017751,550.355285 604.627219,549.463821 604.627219,548.659756 C604.627219,547.92561 604.955621,547.331301 605.612426,546.876829 C606.269231,546.422358 607.16568,546.195122 608.301775,546.195122 L608.301775,546.195122 Z M635.350592,542 C641.784382,542 647,547.135758 647,553.471037 C647,559.806315 641.784382,564.942073 635.350592,564.942073 C628.916801,564.942073 623.701183,559.806315 623.701183,553.471037 C623.701183,547.135758 628.916801,542 635.350592,542 Z" id="SPYX备份-2"></path>
            </g>
        </g>
    </g>
</svg>