<svg width="150" height="43" viewBox="0 0 150 43" fill="none" xmlns="http://www.w3.org/2000/svg">
<path fill-rule="evenodd" clip-rule="evenodd" d="M138.351 22.9421C144.784 22.9421 150 17.8063 150 11.471C150 5.13576 144.784 0 138.351 0C131.917 0 126.701 5.13576 126.701 11.471C126.701 17.8063 131.917 22.9421 138.351 22.9421ZM25.2426 41.5579C22.7574 42.5193 19.9704 43 16.8817 43C12.8698 43 9.39053 42.1959 6.44379 40.5878C3.49704 38.9797 1.45562 36.8297 0.319527 34.1378C0.106509 33.6134 0 33.124 0 32.6695C0 31.7606 0.381657 31.0352 1.14497 30.4933C1.90828 29.9514 2.89349 29.6805 4.10059 29.6805H6.28402C7.2426 29.6805 7.97929 29.8553 8.49408 30.2049C9.00887 30.5545 9.49704 31.0089 9.95858 31.5683C10.4201 32.1276 10.7574 32.5297 10.9704 32.7744C11.6095 33.5085 12.4438 34.0766 13.4734 34.4787C14.503 34.8807 15.6391 35.0817 16.8817 35.0817C18.6568 35.0817 20.0858 34.7234 21.1686 34.0067C22.2515 33.29 22.7929 32.3374 22.7929 31.1488C22.7929 30.1 22.4201 29.2522 21.6746 28.6055C20.929 27.9587 19.9793 27.4343 18.8254 27.0323C17.6716 26.6303 16.0828 26.1846 14.0592 25.6951C11.2544 25.0309 8.9645 24.3579 7.18935 23.6762C5.4142 22.9945 3.89645 21.937 2.63609 20.5037C1.37574 19.0703 0.745562 17.1476 0.745562 14.7354C0.745562 12.463 1.42012 10.4441 2.76923 8.67866C4.11834 6.91321 5.98225 5.5498 8.36095 4.58841C10.7396 3.62703 13.4379 3.14634 16.4556 3.14634C20.2544 3.14634 23.5207 3.95041 26.2544 5.55854C28.9882 7.16667 30.8521 9.31667 31.8462 12.0085C32.0237 12.6028 32.1124 13.0748 32.1124 13.4244C32.1124 14.3683 31.7308 15.1112 30.9675 15.653C30.2041 16.1949 29.2189 16.4659 28.0118 16.4659H25.8817C25.1006 16.4659 24.4615 16.3348 23.9645 16.0726C23.4675 15.8104 23.068 15.5045 22.7663 15.1549C22.4645 14.8053 21.9408 14.1411 21.1953 13.1622C20.6982 12.498 20.0414 11.9823 19.2249 11.6152C18.4083 11.2482 17.4852 11.0646 16.4556 11.0646C14.8225 11.0646 13.5178 11.423 12.5414 12.1396C11.5651 12.8563 11.0769 13.8264 11.0769 15.05C11.0769 15.889 11.4142 16.5795 12.0888 17.1213C12.7633 17.6632 13.6154 18.0915 14.645 18.4061C15.6746 18.7207 17.1124 19.0878 18.9586 19.5073C21.8698 20.1366 24.2751 20.8096 26.1746 21.5262C28.074 22.2429 29.716 23.3965 31.1006 24.9872C32.4852 26.5778 33.1775 28.7366 33.1775 31.4634C33.1775 33.7358 32.4763 35.7459 31.074 37.4939C29.6716 39.2419 27.7278 40.5965 25.2426 41.5579ZM46.4193 40.8763C45.6915 41.5929 44.6353 41.9513 43.2507 41.9513H41.44C40.0554 41.9513 38.9992 41.5929 38.2714 40.8763C37.5436 40.1596 37.1797 39.1196 37.1797 37.7561V8.39029C37.1797 7.02688 37.5436 5.98684 38.2714 5.27017C38.9992 4.5535 40.0554 4.19517 41.44 4.19517H56.8306C61.375 4.19517 64.9785 5.35757 67.6412 7.68236C70.3039 10.0072 71.6353 13.2671 71.6353 17.4622C71.6353 21.4826 70.3039 24.6114 67.6412 26.8488C64.9785 29.0862 61.375 30.2049 56.8306 30.2049H47.511V37.7561C47.511 39.1196 47.1471 40.1596 46.4193 40.8763ZM47.5118 21.972V13.0049H54.7544C59.0858 13.0049 61.2515 14.4907 61.2515 17.4622C61.2515 20.4687 59.0858 21.972 54.7544 21.972H47.5118ZM91.8639 40.8762C91.1361 41.5929 90.0799 41.9512 88.6953 41.9512H86.8846C85.5 41.9512 84.4438 41.5929 83.716 40.8762C82.9882 40.1596 82.6243 39.1195 82.6243 37.7561V25.5378L72.1331 9.28171C71.5651 8.40772 71.2811 7.58618 71.2811 6.81707C71.2811 6.01301 71.6006 5.375 72.2396 4.90305C72.8787 4.4311 73.784 4.19512 74.9556 4.19512H76.6065C77.7781 4.19512 78.7722 4.42236 79.5888 4.87683C80.4053 5.3313 81.1154 6.04797 81.7189 7.02683L87.7899 16.8329L93.7544 7.02683C94.358 6.04797 95.0592 5.3313 95.858 4.87683C96.6568 4.42236 97.642 4.19512 98.8136 4.19512H101.104C102.169 4.19512 102.976 4.41362 103.527 4.85061C104.077 5.2876 104.352 5.89065 104.352 6.65976C104.352 7.46382 104.05 8.3378 103.447 9.28171L92.9556 25.5378V37.7561C92.9556 39.1195 92.5917 40.1596 91.8639 40.8762ZM112.952 41.9513C114.088 41.9513 115.065 41.759 115.881 41.3744C116.698 40.9899 117.444 40.3606 118.118 39.4866L125.467 30.2574L132.763 39.4342C133.438 40.3082 134.183 40.9462 135 41.3482C135.816 41.7503 136.793 41.9513 137.929 41.9513H139.58C140.236 41.9513 141.669 41.6747 142.269 41.2696C142.869 40.8644 143.45 40.3912 143.45 39.4342C143.45 38.4772 143.098 36.8122 142.269 35.3779C141.44 33.9436 136.358 25.8783 132.763 25.0329C127.901 23.473 125.331 20.5703 123.842 14.9522C121.94 10.4085 118.118 6.6598 118.118 6.6598C118.029 6.57728 117.939 6.4934 117.849 6.40895C117.186 5.79041 116.49 5.14137 115.881 4.772C115.19 4.3522 114.088 4.19517 112.952 4.19517H111.302C110.165 4.19517 109.269 4.42241 108.612 4.87688C107.955 5.33135 107.627 5.92566 107.627 6.6598C107.627 7.46387 108.017 8.35533 108.799 9.33419L119.716 23.0732L108.799 36.8122C108.017 37.7911 107.627 38.6826 107.627 39.4866C107.627 40.2208 107.955 40.8151 108.612 41.2696C109.269 41.724 110.165 41.9513 111.302 41.9513H112.952Z" fill="#1C1E53"/>
</svg>
