<svg width="30" height="30" viewBox="0 0 30 30" fill="none" xmlns="http://www.w3.org/2000/svg">
<path d="M28.709 9.30285L28.2095 9.32705L28.2097 9.33091L28.709 9.30285ZM26.4822 3.51674L26.1287 3.87029L26.1287 3.87029L26.4822 3.51674ZM20.6962 1.29007L20.6681 1.7893L20.672 1.78949L20.6962 1.29007ZM9.30367 1.29007L9.32784 1.78951L9.33177 1.78928L9.30367 1.29007ZM3.51767 3.51674L3.16412 3.16319L3.16412 3.16319L3.51767 3.51674ZM1.29105 9.30285L1.79028 9.3309L1.79046 9.32702L1.29105 9.30285ZM1.29105 20.6956L1.79048 20.6714L1.79026 20.6675L1.29105 20.6956ZM3.51767 26.4817L3.87123 26.1281L3.87123 26.1281L3.51767 26.4817ZM9.30367 28.7085L9.33168 28.2093L9.32788 28.2091L9.30367 28.7085ZM20.6962 28.7085L20.672 28.2091L20.6681 28.2093L20.6962 28.7085ZM26.4822 26.4817L26.8358 26.8352L26.8358 26.8352L26.4822 26.4817ZM28.709 20.6956L28.2098 20.6666L28.2095 20.6714L28.709 20.6956ZM22.3674 9.28212L22.3679 8.78212H22.3674V9.28212ZM24.0211 7.62835L23.5211 7.62835L23.5211 7.62887L24.0211 7.62835ZM23.5374 8.79834L23.8909 9.15192L23.8909 9.15187L23.5374 8.79834ZM29.2986 14.9993C29.2986 13.1007 29.3161 11.1947 29.2082 9.27479L28.2097 9.33091C28.3157 11.2156 28.2986 13.0865 28.2986 14.9993H29.2986ZM29.2084 9.27864C29.0982 7.00641 28.5747 4.90216 26.8358 3.16319L26.1287 3.87029C27.6211 5.36275 28.1055 7.18047 28.2095 9.32705L29.2084 9.27864ZM26.8358 3.16319C25.0934 1.42073 22.9925 0.900628 20.7204 0.790659L20.672 1.78949C22.8189 1.89339 24.6329 2.37454 26.1287 3.87029L26.8358 3.16319ZM20.7242 0.790862C18.801 0.682786 16.8951 0.700244 15 0.700244V1.70024C16.9092 1.70024 18.7801 1.68319 20.6681 1.78929L20.7242 0.790862ZM15 0.700244C13.1014 0.700244 11.1955 0.682785 9.27557 0.790865L9.33177 1.78928C11.2164 1.68319 13.0873 1.70024 15 1.70024V0.700244ZM9.2795 0.790659C7.0073 0.900638 4.90305 1.42422 3.16412 3.16319L3.87123 3.87029C5.36365 2.37784 7.18138 1.89338 9.32784 1.78949L9.2795 0.790659ZM3.16412 3.16319C1.42169 4.90566 0.9016 7.00662 0.791634 9.27868L1.79046 9.32702C1.89437 7.18025 2.37551 5.36604 3.87123 3.87029L3.16412 3.16319ZM0.791837 9.2748C0.683763 11.1981 0.70122 13.104 0.70122 14.9993H1.70122C1.70122 13.0899 1.68417 11.219 1.79026 9.3309L0.791837 9.2748ZM0.70122 14.9993C0.70122 16.8944 0.683762 18.8037 0.79184 20.7237L1.79026 20.6675C1.68417 18.7828 1.70122 16.9085 1.70122 14.9993H0.70122ZM0.791634 20.7198C0.901611 22.9921 1.42519 25.0963 3.16412 26.8352L3.87123 26.1281C2.3788 24.6357 1.89436 22.8181 1.79047 20.6714L0.791634 20.7198ZM3.16412 26.8352C4.90655 28.5777 7.00751 29.0978 9.27946 29.2079L9.32788 28.2091C7.18117 28.105 5.36695 27.6239 3.87123 26.1281L3.16412 26.8352ZM9.27566 29.2077C11.1989 29.3156 13.1048 29.2982 15 29.2982V28.2982C13.0907 28.2982 11.2198 28.3152 9.33168 28.2093L9.27566 29.2077ZM15 29.2982C16.8986 29.2982 18.8044 29.3156 20.7243 29.2077L20.6681 28.2093C18.7835 28.3152 16.9128 28.2982 15 28.2982V29.2982ZM20.7204 29.2079C22.9928 29.0978 25.0969 28.5742 26.8358 26.8352L26.1287 26.1281C24.6362 27.6206 22.8187 28.1051 20.672 28.2091L20.7204 29.2079ZM26.8358 26.8352C28.5782 25.0928 29.0983 22.9919 29.2084 20.7198L28.2095 20.6714C28.1055 22.8183 27.6244 24.6324 26.1287 26.1281L26.8358 26.8352ZM29.2081 20.7246C29.3197 18.8039 29.2986 16.8968 29.2986 14.9993H28.2986C28.2986 16.9132 28.3192 18.7827 28.2098 20.6666L29.2081 20.7246ZM14.9469 20.5446C11.8509 20.5446 9.35315 18.0469 9.35315 14.9508H8.35315C8.35315 18.5991 11.2986 21.5446 14.9469 21.5446V20.5446ZM9.35315 14.9508C9.35315 11.8546 11.8509 9.35681 14.9469 9.35681V8.35681C11.2986 8.35681 8.35315 11.3023 8.35315 14.9508H9.35315ZM14.9469 9.35681C18.043 9.35681 20.5406 11.8546 20.5406 14.9508H21.5406C21.5406 11.3023 18.5953 8.35681 14.9469 8.35681V9.35681ZM20.5406 14.9508C20.5406 18.0469 18.043 20.5446 14.9469 20.5446V21.5446C18.5953 21.5446 21.5406 18.5991 21.5406 14.9508H20.5406ZM22.3674 8.78212C21.7288 8.78212 21.2138 8.2672 21.2138 7.62835H20.2138C20.2138 8.81942 21.1765 9.78212 22.3674 9.78212V8.78212ZM21.2138 7.62835C21.2138 6.98971 21.7288 6.47473 22.3674 6.47473V5.47473C21.1765 5.47473 20.2138 6.43745 20.2138 7.62835H21.2138ZM22.3674 6.47473C23.0062 6.47473 23.5211 6.98974 23.5211 7.62835H24.5211C24.5211 6.43742 23.5585 5.47473 22.3674 5.47473V6.47473ZM23.5211 7.62887C23.5215 7.93495 23.4 8.22855 23.1838 8.44482L23.8909 9.15187C24.295 8.74775 24.5217 8.19937 24.5211 7.62784L23.5211 7.62887ZM23.1838 8.44477C22.9676 8.66101 22.674 8.78244 22.3679 8.78213L22.3669 9.78212C22.9384 9.78271 23.4868 9.55599 23.8909 9.15192L23.1838 8.44477Z" fill="white"/>
</svg>
