<svg width="32" height="32" viewBox="0 0 32 32" fill="none" xmlns="http://www.w3.org/2000/svg">
<path fill-rule="evenodd" clip-rule="evenodd" d="M30.9971 16.0059C30.9971 7.71963 24.2833 1.00586 15.9971 1.00586C7.71084 1.00586 0.99707 7.71963 0.99707 16.0059C0.99707 23.0878 5.90545 29.0236 12.5059 30.5978C13.1033 30.7403 13.6533 30.2692 13.6533 29.6551V21.3419C13.6533 20.7896 13.2056 20.3419 12.6533 20.3419H10.8428C10.2905 20.3419 9.84281 19.8942 9.84281 19.3419V17.0059C9.84281 16.4536 10.2905 16.0059 10.8428 16.0059H12.6533C13.2056 16.0059 13.6533 15.5581 13.6533 15.0059V12.701C13.6533 8.942 15.8912 6.86552 19.3188 6.86552C20.2423 6.86552 21.1895 6.9582 21.8415 7.03927C22.3252 7.09942 22.6769 7.5148 22.6769 8.00219V9.84777C22.6769 10.4001 22.2291 10.8478 21.6769 10.8478H20.785C18.922 10.8478 18.3408 12.0043 18.3408 13.1903V15.0059C18.3408 15.5581 18.7885 16.0059 19.3408 16.0059H21.3357C21.9484 16.0059 22.4171 16.5519 22.3241 17.1575L21.9656 19.4936C21.8907 19.9816 21.4709 20.3419 20.9772 20.3419H19.3408C18.7885 20.3419 18.3408 20.7896 18.3408 21.3419V29.6551C18.3408 30.2692 18.8908 30.7403 19.4882 30.5978C26.0887 29.0236 30.9971 23.0878 30.9971 16.0059Z" stroke="white"/>
</svg>
