<svg width="31" height="27" viewBox="0 0 31 27" fill="none" xmlns="http://www.w3.org/2000/svg">
<path fill-rule="evenodd" clip-rule="evenodd" d="M29.9887 5.17974C30.302 4.83312 29.9388 4.31994 29.4899 4.44956V4.44956C29.0079 4.58871 28.6778 3.86766 29.0015 3.48441C29.1543 3.30346 29.2966 3.11398 29.4276 2.91683C29.7416 2.44413 29.2061 1.96377 28.6827 2.18318C28.025 2.45892 27.3375 2.68235 26.6331 2.84597C26.3048 2.92223 25.9676 2.80612 25.7141 2.58404C24.5862 1.59602 23.0957 1 21.4626 1C17.9421 1 15.1107 3.78095 15.1107 7.19349C15.1107 7.23778 15.1112 7.28206 15.1122 7.32633C15.127 7.98204 14.6251 8.58088 13.974 8.50236C9.72773 7.99032 5.92184 6.05356 3.11346 3.1805C2.63155 2.68749 1.79689 2.75898 1.58753 3.41584C1.40287 3.99518 1.30393 4.61133 1.30393 5.25848C1.30393 6.68249 1.7962 7.995 2.62587 9.04279C2.9829 9.49367 2.67184 10.2204 2.13181 10.0225C1.85379 9.9207 1.58587 9.80106 1.33014 9.66559C1.29978 9.6495 1.263 9.67138 1.263 9.70574V9.70574C1.263 12.1329 2.68284 14.2248 4.75854 15.2445C5.12181 15.4229 5.08766 15.9935 4.68292 15.9935V15.9935V15.9935C4.12681 15.9935 3.69566 16.5149 3.97029 16.9985C4.58494 18.0808 5.52525 18.9639 6.66442 19.5256C7.51313 19.9441 7.83537 21.2691 6.97507 21.6632C5.32144 22.4206 3.47844 22.8406 1.53496 22.8406V22.8406C1.1639 22.8406 1.00666 23.3541 1.33678 23.5235C3.8512 24.8139 6.71208 25.5417 9.75712 25.5417C21.4402 25.5417 27.8333 16.1098 27.8333 7.92316C27.8333 7.84093 27.8333 7.75869 27.8328 7.67644C27.8305 7.32879 27.989 6.99647 28.2633 6.78292C28.8848 6.2991 29.4631 5.76118 29.9887 5.17974Z" stroke="white"/>
</svg>
