<svg width="34" height="24" viewBox="0 0 34 24" fill="none" xmlns="http://www.w3.org/2000/svg">
<path d="M15.0257 7.3818L15.2757 6.94879L15.2756 6.94876L15.0257 7.3818ZM21.0948 10.8859L21.3449 10.4529L21.3448 10.4528L21.0948 10.8859ZM21.0948 12.8673L20.8449 12.4342L20.8448 12.4343L21.0948 12.8673ZM15.0257 16.3713L15.2756 16.8044L15.2757 16.8043L15.0257 16.3713ZM27.6815 0.526367H6.31268V1.52637H27.6815V0.526367ZM6.31268 0.526367C3.11287 0.526367 0.49707 3.14217 0.49707 6.34197H1.49707C1.49707 3.69445 3.66515 1.52637 6.31268 1.52637V0.526367ZM0.49707 6.34197V17.2132H1.49707V6.34197H0.49707ZM0.49707 17.2132C0.49707 20.413 3.11286 23.0289 6.31268 23.0289V22.0289C3.66516 22.0289 1.49707 19.8607 1.49707 17.2132H0.49707ZM6.31268 23.0289H27.6815V22.0289H6.31268V23.0289ZM27.6815 23.0289C30.881 23.0289 33.4971 20.413 33.4971 17.2132H32.4971C32.4971 19.8607 30.3288 22.0289 27.6815 22.0289V23.0289ZM33.4971 17.2132V6.34197H32.4971V17.2132H33.4971ZM33.4971 6.34197C33.4971 3.14234 30.881 0.526367 27.6815 0.526367V1.52637C30.3288 1.52637 32.4971 3.69463 32.4971 6.34197H33.4971ZM13.8096 15.3805V8.3726H12.8096V15.3805H13.8096ZM13.8096 8.3726C13.8096 7.87695 14.3463 7.56698 14.7757 7.81485L15.2756 6.94876C14.1797 6.31621 12.8096 7.10697 12.8096 8.3726H13.8096ZM14.7757 7.81482L20.8448 11.3189L21.3448 10.4528L15.2757 6.94879L14.7757 7.81482ZM20.8448 11.3188C21.2742 11.5669 21.274 12.1865 20.8449 12.4342L21.3448 13.3003C22.4409 12.6676 22.4407 11.0857 21.3449 10.4529L20.8448 11.3188ZM20.8448 12.4343L14.7757 15.9383L15.2757 16.8043L21.3448 13.3003L20.8448 12.4343ZM14.7757 15.9383C14.3463 16.1862 13.8096 15.8762 13.8096 15.3805H12.8096C12.8096 16.6461 14.1797 17.437 15.2756 16.8044L14.7757 15.9383Z" fill="white"/>
</svg>
