<svg xmlns="http://www.w3.org/2000/svg" width="40" height="14" viewBox="0 0 40 14"><path fill="#3362AB" d="M37.3 1h-2.5c-.8 0-1.3.2-1.7 1l-4.8 11h3.4s.6-1.5.7-1.8h4.2c.1.4.4 1.8.4 1.8h3L37.3 1zm-4 7.7c.3-.7 1.3-3.3 1.3-3.3 0 .1.3-.7.4-1.1l.2 1.1s.6 2.9.8 3.5l-2.7-.2zm-4.8.3c0 2.5-2.2 4.1-5.7 4.1-1.5 0-2.9-.3-3.6-.6l.5-2.7.4.2c1.1.5 1.8.6 3 .6.9 0 1.9-.4 1.9-1.2 0-.5-.4-.9-1.7-1.5-1.2-.6-2.9-1.5-2.9-3.2 0-2.3 2.3-3.9 5.5-3.9 1.2 0 2.3.2 2.9.5L28.5 4l-.2-.2c-.6-.2-1.3-.5-2.5-.5s-1.8.5-1.8 1 .7.9 1.8 1.5c1.9.8 2.7 1.8 2.7 3.2z"/><path fill="#F9B50B" d="M0 1.2L.1 1h5c.7 0 1.2.2 1.4 1l1.1 5.3C6.5 4.4 3.9 2.1 0 1.2z"/><path fill="#3362AB" d="M14.7 1L9.6 12.9H6.1L3.2 3c2.1 1.3 3.9 3.5 4.5 4.9l.4 1.2L11.2 1h3.5zM16 1h3.2l-2 11.9H14L16 1z"/></svg>